G04 #@! TF.GenerationSoftware,KiCad,Pcbnew,6.0.0-rc1-1.20211210git84e0fee.fc34*
G04 #@! TF.CreationDate,2021-12-15T09:31:59+00:00*
G04 #@! TF.ProjectId,panel,70616e65-6c2e-46b6-9963-61645f706362,rev?*
G04 #@! TF.SameCoordinates,Original*
G04 #@! TF.FileFunction,Copper,L1,Top*
G04 #@! TF.FilePolarity,Positive*
%FSLAX46Y46*%
G04 Gerber Fmt 4.6, Leading zero omitted, Abs format (unit mm)*
G04 Created by KiCad (PCBNEW 6.0.0-rc1-1.20211210git84e0fee.fc34) date 2021-12-15 09:31:59*
%MOMM*%
%LPD*%
G01*
G04 APERTURE LIST*
G04 Aperture macros list*
%AMRoundRect*
0 Rectangle with rounded corners*
0 $1 Rounding radius*
0 $2 $3 $4 $5 $6 $7 $8 $9 X,Y pos of 4 corners*
0 Add a 4 corners polygon primitive as box body*
4,1,4,$2,$3,$4,$5,$6,$7,$8,$9,$2,$3,0*
0 Add four circle primitives for the rounded corners*
1,1,$1+$1,$2,$3*
1,1,$1+$1,$4,$5*
1,1,$1+$1,$6,$7*
1,1,$1+$1,$8,$9*
0 Add four rect primitives between the rounded corners*
20,1,$1+$1,$2,$3,$4,$5,0*
20,1,$1+$1,$4,$5,$6,$7,0*
20,1,$1+$1,$6,$7,$8,$9,0*
20,1,$1+$1,$8,$9,$2,$3,0*%
G04 Aperture macros list end*
G04 #@! TA.AperFunction,ComponentPad*
%ADD10C,3.800000*%
G04 #@! TD*
G04 #@! TA.AperFunction,SMDPad,CuDef*
%ADD11R,0.650000X1.060000*%
G04 #@! TD*
G04 #@! TA.AperFunction,SMDPad,CuDef*
%ADD12RoundRect,0.250000X-0.375000X-0.625000X0.375000X-0.625000X0.375000X0.625000X-0.375000X0.625000X0*%
G04 #@! TD*
G04 #@! TA.AperFunction,SMDPad,CuDef*
%ADD13RoundRect,0.250000X-0.475000X0.250000X-0.475000X-0.250000X0.475000X-0.250000X0.475000X0.250000X0*%
G04 #@! TD*
G04 #@! TA.AperFunction,SMDPad,CuDef*
%ADD14RoundRect,0.250000X-0.625000X0.312500X-0.625000X-0.312500X0.625000X-0.312500X0.625000X0.312500X0*%
G04 #@! TD*
G04 #@! TA.AperFunction,SMDPad,CuDef*
%ADD15RoundRect,0.200000X0.275000X-0.200000X0.275000X0.200000X-0.275000X0.200000X-0.275000X-0.200000X0*%
G04 #@! TD*
G04 #@! TA.AperFunction,SMDPad,CuDef*
%ADD16RoundRect,0.200000X0.200000X0.275000X-0.200000X0.275000X-0.200000X-0.275000X0.200000X-0.275000X0*%
G04 #@! TD*
G04 #@! TA.AperFunction,SMDPad,CuDef*
%ADD17R,0.600000X1.450000*%
G04 #@! TD*
G04 #@! TA.AperFunction,SMDPad,CuDef*
%ADD18R,0.300000X1.450000*%
G04 #@! TD*
G04 #@! TA.AperFunction,ComponentPad*
%ADD19O,1.000000X2.100000*%
G04 #@! TD*
G04 #@! TA.AperFunction,ComponentPad*
%ADD20O,1.000000X1.600000*%
G04 #@! TD*
G04 #@! TA.AperFunction,SMDPad,CuDef*
%ADD21RoundRect,0.150000X-0.625000X0.150000X-0.625000X-0.150000X0.625000X-0.150000X0.625000X0.150000X0*%
G04 #@! TD*
G04 #@! TA.AperFunction,SMDPad,CuDef*
%ADD22RoundRect,0.250000X-0.650000X0.350000X-0.650000X-0.350000X0.650000X-0.350000X0.650000X0.350000X0*%
G04 #@! TD*
G04 #@! TA.AperFunction,ViaPad*
%ADD23C,0.600000*%
G04 #@! TD*
G04 #@! TA.AperFunction,Conductor*
%ADD24C,0.300000*%
G04 #@! TD*
G04 #@! TA.AperFunction,Conductor*
%ADD25C,0.200000*%
G04 #@! TD*
G04 APERTURE END LIST*
D10*
G04 #@! TO.P,H1,1*
G04 #@! TO.N,N/C*
X40249995Y-49949999D03*
G04 #@! TD*
G04 #@! TO.P,H2,1,1*
G04 #@! TO.N,Board_0-SHIELD*
X68249995Y-49949999D03*
G04 #@! TD*
D11*
G04 #@! TO.P,U1,1,IO1*
G04 #@! TO.N,Board_0-D+*
X44499995Y-51949999D03*
G04 #@! TO.P,U1,2,VN*
G04 #@! TO.N,Board_0-GND*
X45449995Y-51949999D03*
G04 #@! TO.P,U1,3,IO2*
G04 #@! TO.N,Board_0-unconnected-(U1-Pad3)*
X46399995Y-51949999D03*
G04 #@! TO.P,U1,4,IO3*
G04 #@! TO.N,Board_0-unconnected-(U1-Pad4)*
X46399995Y-49749999D03*
G04 #@! TO.P,U1,5,VP*
G04 #@! TO.N,Board_0-+5V*
X45449995Y-49749999D03*
G04 #@! TO.P,U1,6,IO4*
G04 #@! TO.N,Board_0-D-*
X44499995Y-49749999D03*
G04 #@! TD*
D12*
G04 #@! TO.P,F1,1*
G04 #@! TO.N,Board_0-+5V*
X44049995Y-47699999D03*
G04 #@! TO.P,F1,2*
G04 #@! TO.N,Board_0-VBUS*
X46849995Y-47699999D03*
G04 #@! TD*
D13*
G04 #@! TO.P,C1,1*
G04 #@! TO.N,Board_0-SHIELD*
X63399995Y-49274999D03*
G04 #@! TO.P,C1,2*
G04 #@! TO.N,Board_0-GND*
X63399995Y-51174999D03*
G04 #@! TD*
D14*
G04 #@! TO.P,R3,1*
G04 #@! TO.N,Board_0-SHIELD*
X61149995Y-49287499D03*
G04 #@! TO.P,R3,2*
G04 #@! TO.N,Board_0-GND*
X61149995Y-52212499D03*
G04 #@! TD*
D15*
G04 #@! TO.P,R2,1*
G04 #@! TO.N,Board_0-GND*
X48149995Y-52474999D03*
G04 #@! TO.P,R2,2*
G04 #@! TO.N,Board_0-Net-(J2-PadB5)*
X48149995Y-50824999D03*
G04 #@! TD*
D16*
G04 #@! TO.P,R1,1*
G04 #@! TO.N,Board_0-GND*
X62299995Y-47499999D03*
G04 #@! TO.P,R1,2*
G04 #@! TO.N,Board_0-Net-(J2-PadA5)*
X60649995Y-47499999D03*
G04 #@! TD*
D17*
G04 #@! TO.P,J2,A1,GND*
G04 #@! TO.N,Board_0-GND*
X57799995Y-52534999D03*
G04 #@! TO.P,J2,A4,VBUS*
G04 #@! TO.N,Board_0-VBUS*
X56999995Y-52534999D03*
D18*
G04 #@! TO.P,J2,A5,CC1*
G04 #@! TO.N,Board_0-Net-(J2-PadA5)*
X55799995Y-52534999D03*
G04 #@! TO.P,J2,A6,D+*
G04 #@! TO.N,Board_0-D+*
X54799995Y-52534999D03*
G04 #@! TO.P,J2,A7,D-*
G04 #@! TO.N,Board_0-D-*
X54299995Y-52534999D03*
G04 #@! TO.P,J2,A8,SBU1*
G04 #@! TO.N,Board_0-unconnected-(J2-PadA8)*
X53299995Y-52534999D03*
D17*
G04 #@! TO.P,J2,A9,VBUS*
G04 #@! TO.N,Board_0-VBUS*
X52099995Y-52534999D03*
G04 #@! TO.P,J2,A12,GND*
G04 #@! TO.N,Board_0-GND*
X51299995Y-52534999D03*
G04 #@! TO.P,J2,B1,GND*
X51299995Y-52534999D03*
G04 #@! TO.P,J2,B4,VBUS*
G04 #@! TO.N,Board_0-VBUS*
X52099995Y-52534999D03*
D18*
G04 #@! TO.P,J2,B5,CC2*
G04 #@! TO.N,Board_0-Net-(J2-PadB5)*
X52799995Y-52534999D03*
G04 #@! TO.P,J2,B6,D+*
G04 #@! TO.N,Board_0-D+*
X53799995Y-52534999D03*
G04 #@! TO.P,J2,B7,D-*
G04 #@! TO.N,Board_0-D-*
X55299995Y-52534999D03*
G04 #@! TO.P,J2,B8,SBU2*
G04 #@! TO.N,Board_0-unconnected-(J2-PadB8)*
X56299995Y-52534999D03*
D17*
G04 #@! TO.P,J2,B9,VBUS*
G04 #@! TO.N,Board_0-VBUS*
X56999995Y-52534999D03*
G04 #@! TO.P,J2,B12,GND*
G04 #@! TO.N,Board_0-GND*
X57799995Y-52534999D03*
D19*
G04 #@! TO.P,J2,S1,SHIELD*
G04 #@! TO.N,Board_0-SHIELD*
X58869995Y-51619999D03*
D20*
X50229995Y-47439999D03*
D19*
X50229995Y-51619999D03*
D20*
X58869995Y-47439999D03*
G04 #@! TD*
D21*
G04 #@! TO.P,J1,1,Pin_1*
G04 #@! TO.N,Board_0-+5V*
X35806245Y-48449999D03*
G04 #@! TO.P,J1,2,Pin_2*
G04 #@! TO.N,Board_0-D-*
X35806245Y-49449999D03*
G04 #@! TO.P,J1,3,Pin_3*
G04 #@! TO.N,Board_0-D+*
X35806245Y-50449999D03*
G04 #@! TO.P,J1,4,Pin_4*
G04 #@! TO.N,Board_0-GND*
X35806245Y-51449999D03*
D22*
G04 #@! TO.P,J1,MP*
G04 #@! TO.N,N/C*
X31931245Y-47149999D03*
X31931245Y-52749999D03*
G04 #@! TD*
D23*
G04 #@! TO.N,Board_0-D+*
X54849995Y-51049999D03*
X53818597Y-50300737D03*
X36969173Y-50449999D03*
G04 #@! TO.N,Board_0-D-*
X54849995Y-49998518D03*
X36969173Y-49449999D03*
G04 #@! TO.N,Board_0-GND*
X47949995Y-47024999D03*
X65824995Y-50849999D03*
X37799995Y-48399999D03*
X43049995Y-52549999D03*
X55649995Y-48849999D03*
X67149995Y-47399999D03*
X42899995Y-49099999D03*
X57649995Y-48449999D03*
X49541630Y-53049999D03*
X35949995Y-52649999D03*
X47299995Y-52850499D03*
G04 #@! TO.N,Board_0-VBUS*
X52449995Y-50699999D03*
X52249995Y-48149999D03*
X57499995Y-50149999D03*
G04 #@! TD*
D24*
G04 #@! TO.N,Board_0-+5V*
X45449995Y-49099999D02*
X44049995Y-47699999D01*
X35806245Y-48449999D02*
X36856245Y-47399999D01*
X36856245Y-47399999D02*
X43749995Y-47399999D01*
X45449995Y-49749999D02*
X45449995Y-49099999D01*
D25*
G04 #@! TO.N,Board_0-D+*
X38485901Y-52603124D02*
X41826589Y-52603124D01*
X53799995Y-51799999D02*
X53799995Y-52534999D01*
X41826589Y-52603124D02*
X43379714Y-51049999D01*
X43379714Y-51049999D02*
X43394995Y-51049999D01*
X54849995Y-51049999D02*
X54799995Y-51099999D01*
X35806245Y-50449999D02*
X36969173Y-50449999D01*
X37574995Y-50621507D02*
X37574995Y-51692218D01*
X54799995Y-51099999D02*
X54799995Y-52633518D01*
X36969173Y-50449999D02*
X37403487Y-50449999D01*
X53818597Y-50300737D02*
X53750964Y-50368370D01*
X37403487Y-50449999D02*
X37574995Y-50621507D01*
X53750964Y-50368370D02*
X53750964Y-51750968D01*
X37574995Y-51692218D02*
X38485901Y-52603124D01*
X53750964Y-51750968D02*
X53799995Y-51799999D01*
X43394995Y-51049999D02*
X44294995Y-51949999D01*
G04 #@! TO.N,Board_0-D-*
X37974995Y-51526530D02*
X38651589Y-52203124D01*
X43394995Y-50649999D02*
X44294995Y-49749999D01*
X43214026Y-50649999D02*
X43394995Y-50649999D01*
X37974995Y-50455821D02*
X37974995Y-51526530D01*
X55299995Y-52633518D02*
X55299995Y-51659496D01*
X55449506Y-50801672D02*
X55098322Y-50450488D01*
X54150484Y-51524985D02*
X54150484Y-50816672D01*
X54516668Y-50450488D02*
X54150484Y-50816672D01*
X54848025Y-50450488D02*
X54516668Y-50450488D01*
X55098322Y-50450488D02*
X54848025Y-50450488D01*
X41660901Y-52203124D02*
X43214026Y-50649999D01*
X54299995Y-51674496D02*
X54150484Y-51524985D01*
X38651589Y-52203124D02*
X41660901Y-52203124D01*
X54299995Y-52648518D02*
X54299995Y-51674496D01*
X36969173Y-49449999D02*
X37974995Y-50455821D01*
X35806245Y-49449999D02*
X36969173Y-49449999D01*
X55299995Y-51659496D02*
X55449506Y-51509985D01*
X55449506Y-51509985D02*
X55449506Y-50801672D01*
X54848025Y-50000488D02*
X54849995Y-49998518D01*
X54848025Y-50450488D02*
X54848025Y-50000488D01*
D24*
G04 #@! TO.N,Board_0-GND*
X45399495Y-52850499D02*
X43350495Y-52850499D01*
X42554177Y-52949999D02*
X42501532Y-53002644D01*
X47675495Y-52474999D02*
X48149995Y-52474999D01*
X43350495Y-52850499D02*
X43049995Y-52549999D01*
X58389995Y-53124999D02*
X58949995Y-53124999D01*
X45449995Y-52799999D02*
X45399495Y-52850499D01*
X51299995Y-52584999D02*
X50915475Y-52969519D01*
X57799995Y-52534999D02*
X58070475Y-52264519D01*
X49669515Y-52969519D02*
X49619515Y-53019519D01*
X61137495Y-52449999D02*
X61199995Y-52512499D01*
X58070475Y-52264519D02*
X58070475Y-50854519D01*
X38198457Y-53002644D02*
X38145812Y-52949999D01*
X50915475Y-52969519D02*
X49669515Y-52969519D01*
X42501532Y-53002644D02*
X38198457Y-53002644D01*
X47299995Y-52850499D02*
X47675495Y-52474999D01*
X47299995Y-52850499D02*
X45399495Y-52850499D01*
X45449995Y-52149999D02*
X45449995Y-52799999D01*
X57799995Y-52534999D02*
X58389995Y-53124999D01*
D25*
G04 #@! TO.N,Board_0-Net-(J2-PadA5)*
X57500484Y-48999510D02*
X59150484Y-48999510D01*
X56100495Y-50403149D02*
X56381701Y-50121943D01*
X59150484Y-48999510D02*
X60649995Y-47499999D01*
X56381701Y-50121943D02*
X56381701Y-50118293D01*
X55799995Y-51749999D02*
X56100495Y-51449499D01*
X56381701Y-50118293D02*
X57500484Y-48999510D01*
X55799995Y-52584999D02*
X55799995Y-51749999D01*
X56100495Y-51449499D02*
X56100495Y-50403149D01*
G04 #@! TO.N,Board_0-Net-(J2-PadB5)*
X52799995Y-51485717D02*
X53149506Y-51136206D01*
X49024517Y-49950477D02*
X48149995Y-50824999D01*
X52799995Y-52584999D02*
X52799995Y-51485717D01*
X52689732Y-49950477D02*
X49024517Y-49950477D01*
X53149506Y-51136206D02*
X53149506Y-50410251D01*
X53149506Y-50410251D02*
X52689732Y-49950477D01*
D24*
G04 #@! TO.N,Board_0-SHIELD*
X67574995Y-49274999D02*
X61706422Y-49274999D01*
X58869995Y-51619999D02*
X61149995Y-49339999D01*
X61706422Y-49274999D02*
X61693922Y-49287499D01*
X61693922Y-49287499D02*
X61149995Y-49287499D01*
X58869995Y-47439999D02*
X50229995Y-47439999D01*
X61149995Y-49339999D02*
X61149995Y-49287499D01*
X68249995Y-49949999D02*
X67574995Y-49274999D01*
X61112495Y-49437499D02*
X60867495Y-49437499D01*
G04 #@! TO.N,Board_0-VBUS*
X52249995Y-48149999D02*
X51810475Y-48589519D01*
X56999995Y-51799999D02*
X56999995Y-52584999D01*
X52449995Y-51199999D02*
X52099995Y-51549999D01*
X57499995Y-50149999D02*
X57149995Y-50149999D01*
X52099995Y-51549999D02*
X52099995Y-52584999D01*
X47739515Y-48589519D02*
X46849995Y-47699999D01*
X56550015Y-50749979D02*
X56550015Y-51350019D01*
X51810475Y-48589519D02*
X47739515Y-48589519D01*
X52449995Y-50699999D02*
X52449995Y-51199999D01*
X56550015Y-51350019D02*
X56999995Y-51799999D01*
X57149995Y-50149999D02*
X56550015Y-50749979D01*
G04 #@! TD*
G04 #@! TA.AperFunction,Conductor*
G04 #@! TO.N,Board_0-GND*
G36*
X33515544Y-46667906D02*
G01*
X33551508Y-46717406D01*
X33556106Y-46741006D01*
X33556770Y-46750383D01*
X33559440Y-46757284D01*
X33559440Y-46757285D01*
X33573128Y-46792666D01*
X33605648Y-46876725D01*
X33689515Y-46983109D01*
X33800956Y-47060130D01*
X33930117Y-47100979D01*
X33936724Y-47101499D01*
X34035237Y-47101499D01*
X34086281Y-47093825D01*
X34128028Y-47087549D01*
X34128030Y-47087548D01*
X34135349Y-47086448D01*
X34142020Y-47083245D01*
X34142022Y-47083244D01*
X34250798Y-47031010D01*
X34257466Y-47027808D01*
X34356943Y-46935853D01*
X34391287Y-46876725D01*
X34416401Y-46833488D01*
X34461978Y-46792666D01*
X34522844Y-46786430D01*
X34575752Y-46817161D01*
X34594337Y-46847489D01*
X34605648Y-46876725D01*
X34689515Y-46983109D01*
X34800956Y-47060130D01*
X34930117Y-47100979D01*
X34936724Y-47101499D01*
X35035237Y-47101499D01*
X35086281Y-47093825D01*
X35128028Y-47087549D01*
X35128030Y-47087548D01*
X35135349Y-47086448D01*
X35142020Y-47083245D01*
X35142022Y-47083244D01*
X35250798Y-47031010D01*
X35257466Y-47027808D01*
X35356943Y-46935853D01*
X35391287Y-46876725D01*
X35416401Y-46833488D01*
X35461978Y-46792666D01*
X35522844Y-46786430D01*
X35575752Y-46817161D01*
X35594337Y-46847489D01*
X35605648Y-46876725D01*
X35689515Y-46983109D01*
X35800956Y-47060130D01*
X35930117Y-47100979D01*
X35936724Y-47101499D01*
X36035237Y-47101499D01*
X36086281Y-47093825D01*
X36128028Y-47087549D01*
X36128030Y-47087548D01*
X36135349Y-47086448D01*
X36142020Y-47083245D01*
X36142022Y-47083244D01*
X36250798Y-47031010D01*
X36257466Y-47027808D01*
X36356943Y-46935853D01*
X36391287Y-46876725D01*
X36416401Y-46833488D01*
X36461978Y-46792666D01*
X36522844Y-46786430D01*
X36575752Y-46817161D01*
X36594337Y-46847489D01*
X36605648Y-46876725D01*
X36675872Y-46965802D01*
X36697049Y-47023204D01*
X36680441Y-47082093D01*
X36653695Y-47108420D01*
X36651919Y-47109273D01*
X36647971Y-47112591D01*
X36646467Y-47114095D01*
X36645174Y-47115281D01*
X36644148Y-47116147D01*
X36638451Y-47119221D01*
X36632900Y-47125226D01*
X36632895Y-47125230D01*
X36604436Y-47156017D01*
X36601742Y-47158820D01*
X35840059Y-47920503D01*
X35785542Y-47948280D01*
X35770055Y-47949499D01*
X35148027Y-47949499D01*
X35144444Y-47950027D01*
X35144437Y-47950027D01*
X35086746Y-47958520D01*
X35086744Y-47958521D01*
X35079133Y-47959641D01*
X35072227Y-47963032D01*
X35072226Y-47963032D01*
X35057191Y-47970414D01*
X34974390Y-48011067D01*
X34968609Y-48016858D01*
X34964174Y-48021301D01*
X34891952Y-48093649D01*
X34840709Y-48198481D01*
X34839600Y-48206083D01*
X34839599Y-48206086D01*
X34833005Y-48251288D01*
X34830745Y-48266781D01*
X34830745Y-48633217D01*
X34831273Y-48636800D01*
X34831273Y-48636807D01*
X34839680Y-48693912D01*
X34840887Y-48702111D01*
X34844278Y-48709017D01*
X34844278Y-48709018D01*
X34846872Y-48714301D01*
X34892313Y-48806854D01*
X34898104Y-48812635D01*
X34965465Y-48879879D01*
X34993290Y-48934371D01*
X34983771Y-48994811D01*
X34965587Y-49019885D01*
X34897732Y-49087858D01*
X34897730Y-49087861D01*
X34891952Y-49093649D01*
X34840709Y-49198481D01*
X34839600Y-49206083D01*
X34839599Y-49206086D01*
X34833261Y-49249532D01*
X34830745Y-49266781D01*
X34830745Y-49633217D01*
X34831273Y-49636800D01*
X34831273Y-49636807D01*
X34839646Y-49693682D01*
X34840887Y-49702111D01*
X34844278Y-49709017D01*
X34844278Y-49709018D01*
X34849223Y-49719090D01*
X34892313Y-49806854D01*
X34898104Y-49812635D01*
X34965465Y-49879879D01*
X34993290Y-49934371D01*
X34983771Y-49994811D01*
X34965587Y-50019885D01*
X34897732Y-50087858D01*
X34897730Y-50087861D01*
X34891952Y-50093649D01*
X34840709Y-50198481D01*
X34839600Y-50206083D01*
X34839599Y-50206086D01*
X34832906Y-50251965D01*
X34830745Y-50266781D01*
X34830745Y-50633217D01*
X34831273Y-50636800D01*
X34831273Y-50636807D01*
X34837934Y-50682051D01*
X34840887Y-50702111D01*
X34844278Y-50709017D01*
X34846561Y-50716365D01*
X34843697Y-50717255D01*
X34850469Y-50764518D01*
X34821889Y-50818618D01*
X34813194Y-50826131D01*
X34758473Y-50868120D01*
X34749366Y-50877227D01*
X34661097Y-50992262D01*
X34654662Y-51003408D01*
X34599172Y-51137374D01*
X34595842Y-51149799D01*
X34587989Y-51209454D01*
X34590419Y-51222568D01*
X34591721Y-51223804D01*
X34597003Y-51224999D01*
X37010867Y-51224999D01*
X37023552Y-51220877D01*
X37024608Y-51219425D01*
X37025103Y-51214032D01*
X37016648Y-51149805D01*
X37013316Y-51137369D01*
X36989112Y-51078934D01*
X36984312Y-51017937D01*
X37016281Y-50965768D01*
X37054536Y-50945536D01*
X37086794Y-50936741D01*
X37149456Y-50919658D01*
X37210571Y-50922594D01*
X37258288Y-50960892D01*
X37274495Y-51015172D01*
X37274495Y-51638710D01*
X37274192Y-51642835D01*
X37272570Y-51647560D01*
X37273343Y-51668164D01*
X37274425Y-51696979D01*
X37274495Y-51700692D01*
X37274495Y-51720166D01*
X37275320Y-51724596D01*
X37275656Y-51729789D01*
X37276069Y-51740785D01*
X37276423Y-51750199D01*
X37276769Y-51759426D01*
X37280375Y-51767820D01*
X37280376Y-51767823D01*
X37281312Y-51770001D01*
X37287678Y-51790952D01*
X37289786Y-51802271D01*
X37294583Y-51810053D01*
X37303763Y-51824946D01*
X37310446Y-51837813D01*
X37320959Y-51862281D01*
X37324973Y-51867167D01*
X37329337Y-51871531D01*
X37343608Y-51889586D01*
X37348527Y-51897566D01*
X37371764Y-51915236D01*
X37381834Y-51924028D01*
X38235581Y-52777775D01*
X38238281Y-52780904D01*
X38240476Y-52785393D01*
X38247179Y-52791611D01*
X38276723Y-52819017D01*
X38279399Y-52821593D01*
X38293178Y-52835372D01*
X38296888Y-52837917D01*
X38300801Y-52841353D01*
X38313506Y-52853138D01*
X38322547Y-52861525D01*
X38331033Y-52864911D01*
X38331035Y-52864912D01*
X38333238Y-52865791D01*
X38352549Y-52876102D01*
X38354508Y-52877446D01*
X38354511Y-52877447D01*
X38362047Y-52882617D01*
X38370939Y-52884727D01*
X38370941Y-52884728D01*
X38387967Y-52888768D01*
X38401786Y-52893138D01*
X38426523Y-52903007D01*
X38432816Y-52903624D01*
X38438986Y-52903624D01*
X38461842Y-52906299D01*
X38470967Y-52908464D01*
X38499889Y-52904528D01*
X38513238Y-52903624D01*
X41773081Y-52903624D01*
X41777206Y-52903927D01*
X41781931Y-52905549D01*
X41831350Y-52903694D01*
X41835063Y-52903624D01*
X41854537Y-52903624D01*
X41858967Y-52902799D01*
X41864160Y-52902463D01*
X41880191Y-52901861D01*
X41884664Y-52901693D01*
X41893797Y-52901350D01*
X41902191Y-52897744D01*
X41902194Y-52897743D01*
X41904372Y-52896807D01*
X41925323Y-52890441D01*
X41936642Y-52888333D01*
X41959318Y-52874356D01*
X41972185Y-52867672D01*
X41990231Y-52859919D01*
X41990232Y-52859918D01*
X41996652Y-52857160D01*
X42001538Y-52853146D01*
X42005902Y-52848782D01*
X42023957Y-52834511D01*
X42031937Y-52829592D01*
X42049607Y-52806355D01*
X42058399Y-52796285D01*
X43317350Y-51537334D01*
X43371867Y-51509557D01*
X43432299Y-51519128D01*
X43457358Y-51537334D01*
X43945499Y-52025475D01*
X43973276Y-52079992D01*
X43974495Y-52095479D01*
X43974495Y-52499747D01*
X43986128Y-52558230D01*
X44030443Y-52624551D01*
X44096764Y-52668866D01*
X44106327Y-52670768D01*
X44106329Y-52670769D01*
X44128476Y-52675174D01*
X44155247Y-52680499D01*
X44663661Y-52680499D01*
X44721852Y-52699406D01*
X44743294Y-52720681D01*
X44798803Y-52795834D01*
X44809160Y-52806191D01*
X44906096Y-52877790D01*
X44919029Y-52884637D01*
X45034026Y-52925021D01*
X45045729Y-52927589D01*
X45068913Y-52929781D01*
X45073549Y-52929999D01*
X45209315Y-52929999D01*
X45222000Y-52925877D01*
X45224995Y-52921756D01*
X45224995Y-52914318D01*
X45674995Y-52914318D01*
X45679117Y-52927003D01*
X45683238Y-52929998D01*
X45826438Y-52929998D01*
X45831081Y-52929779D01*
X45854264Y-52927588D01*
X45865960Y-52925023D01*
X45980961Y-52884637D01*
X45993894Y-52877790D01*
X46090830Y-52806191D01*
X46101187Y-52795834D01*
X46156696Y-52720681D01*
X46206477Y-52685107D01*
X46236329Y-52680499D01*
X46744743Y-52680499D01*
X46771514Y-52675174D01*
X46793661Y-52670769D01*
X46793663Y-52670768D01*
X46803226Y-52668866D01*
X46869547Y-52624551D01*
X46913862Y-52558230D01*
X46925495Y-52499747D01*
X46925495Y-52234319D01*
X47224995Y-52234319D01*
X47229117Y-52247004D01*
X47233238Y-52249999D01*
X47909315Y-52249999D01*
X47922000Y-52245877D01*
X47924995Y-52241756D01*
X47924995Y-52234319D01*
X48374995Y-52234319D01*
X48379117Y-52247004D01*
X48383238Y-52249999D01*
X49059315Y-52249999D01*
X49072000Y-52245877D01*
X49074995Y-52241756D01*
X49074995Y-52211307D01*
X49074842Y-52207415D01*
X49072492Y-52177550D01*
X49070684Y-52167650D01*
X49028015Y-52020783D01*
X49023105Y-52009438D01*
X48945851Y-51878808D01*
X48938274Y-51869039D01*
X48830955Y-51761720D01*
X48821186Y-51754143D01*
X48690556Y-51676889D01*
X48679211Y-51671979D01*
X48532344Y-51629310D01*
X48522444Y-51627502D01*
X48492579Y-51625152D01*
X48488687Y-51624999D01*
X48390675Y-51624999D01*
X48377990Y-51629121D01*
X48374995Y-51633242D01*
X48374995Y-52234319D01*
X47924995Y-52234319D01*
X47924995Y-51640679D01*
X47920873Y-51627994D01*
X47916752Y-51624999D01*
X47811303Y-51624999D01*
X47807411Y-51625152D01*
X47777546Y-51627502D01*
X47767646Y-51629310D01*
X47620779Y-51671979D01*
X47609434Y-51676889D01*
X47478804Y-51754143D01*
X47469035Y-51761720D01*
X47361716Y-51869039D01*
X47354139Y-51878808D01*
X47276885Y-52009438D01*
X47271975Y-52020783D01*
X47229306Y-52167650D01*
X47227498Y-52177550D01*
X47225148Y-52207415D01*
X47224995Y-52211307D01*
X47224995Y-52234319D01*
X46925495Y-52234319D01*
X46925495Y-51400251D01*
X46917489Y-51360000D01*
X46915765Y-51351333D01*
X46915764Y-51351331D01*
X46913862Y-51341768D01*
X46869547Y-51275447D01*
X46803226Y-51231132D01*
X46793663Y-51229230D01*
X46793661Y-51229229D01*
X46770990Y-51224720D01*
X46744743Y-51219499D01*
X46236329Y-51219499D01*
X46178138Y-51200592D01*
X46156696Y-51179317D01*
X46101187Y-51104164D01*
X46090830Y-51093807D01*
X45993894Y-51022208D01*
X45980961Y-51015361D01*
X45865964Y-50974977D01*
X45854261Y-50972409D01*
X45831077Y-50970217D01*
X45826441Y-50969999D01*
X45690675Y-50969999D01*
X45677990Y-50974121D01*
X45674995Y-50978242D01*
X45674995Y-52914318D01*
X45224995Y-52914318D01*
X45224995Y-50985680D01*
X45220873Y-50972995D01*
X45216752Y-50970000D01*
X45073552Y-50970000D01*
X45068909Y-50970219D01*
X45045726Y-50972410D01*
X45034030Y-50974975D01*
X44919029Y-51015361D01*
X44906096Y-51022208D01*
X44809160Y-51093807D01*
X44798803Y-51104164D01*
X44743294Y-51179317D01*
X44693513Y-51214891D01*
X44663661Y-51219499D01*
X44155247Y-51219499D01*
X44128847Y-51224750D01*
X44106324Y-51229230D01*
X44106322Y-51229231D01*
X44096764Y-51231132D01*
X44090384Y-51235395D01*
X44030695Y-51240094D01*
X43983800Y-51213833D01*
X43689970Y-50920003D01*
X43662193Y-50865486D01*
X43671764Y-50805054D01*
X43689970Y-50779995D01*
X43829826Y-50640139D01*
X43983802Y-50486164D01*
X44038317Y-50458388D01*
X44090290Y-50464540D01*
X44096764Y-50468866D01*
X44106322Y-50470767D01*
X44106324Y-50470768D01*
X44128847Y-50475248D01*
X44155247Y-50480499D01*
X44844743Y-50480499D01*
X44870990Y-50475278D01*
X44893661Y-50470769D01*
X44893663Y-50470768D01*
X44903226Y-50468866D01*
X44919993Y-50457662D01*
X44978879Y-50441053D01*
X45029997Y-50457662D01*
X45046764Y-50468866D01*
X45056327Y-50470768D01*
X45056329Y-50470769D01*
X45079000Y-50475278D01*
X45105247Y-50480499D01*
X45794743Y-50480499D01*
X45820990Y-50475278D01*
X45843661Y-50470769D01*
X45843663Y-50470768D01*
X45853226Y-50468866D01*
X45869993Y-50457662D01*
X45928879Y-50441053D01*
X45979997Y-50457662D01*
X45996764Y-50468866D01*
X46006327Y-50470768D01*
X46006329Y-50470769D01*
X46029000Y-50475278D01*
X46055247Y-50480499D01*
X46744743Y-50480499D01*
X46770990Y-50475278D01*
X46793661Y-50470769D01*
X46793663Y-50470768D01*
X46803226Y-50468866D01*
X46869547Y-50424551D01*
X46913862Y-50358230D01*
X46916028Y-50347345D01*
X46922475Y-50314929D01*
X46925495Y-50299747D01*
X46925495Y-49200251D01*
X46913862Y-49141768D01*
X46869547Y-49075447D01*
X46803226Y-49031132D01*
X46793663Y-49029230D01*
X46793661Y-49029229D01*
X46770990Y-49024720D01*
X46744743Y-49019499D01*
X46055247Y-49019499D01*
X46029000Y-49024720D01*
X46006329Y-49029229D01*
X46006327Y-49029230D01*
X45996764Y-49031132D01*
X45979997Y-49042336D01*
X45921111Y-49058945D01*
X45869993Y-49042336D01*
X45853226Y-49031132D01*
X45843661Y-49029229D01*
X45834653Y-49025498D01*
X45836077Y-49022060D01*
X45798359Y-49000924D01*
X45783949Y-48980755D01*
X45772460Y-48959463D01*
X45763499Y-48942855D01*
X45761390Y-48938716D01*
X45743415Y-48901282D01*
X45743413Y-48901278D01*
X45740721Y-48895673D01*
X45737403Y-48891725D01*
X45735895Y-48890217D01*
X45734713Y-48888928D01*
X45733847Y-48887902D01*
X45730773Y-48882205D01*
X45724768Y-48876654D01*
X45724764Y-48876649D01*
X45693977Y-48848190D01*
X45691174Y-48845496D01*
X44904491Y-48058813D01*
X44876714Y-48004296D01*
X44875495Y-47988809D01*
X44875495Y-47021165D01*
X44873721Y-47002393D01*
X44873082Y-46995638D01*
X44873082Y-46995637D01*
X44872514Y-46989630D01*
X44827629Y-46861815D01*
X44816748Y-46847083D01*
X44787007Y-46806817D01*
X44767643Y-46748776D01*
X44786093Y-46690439D01*
X44835309Y-46654088D01*
X44866640Y-46648999D01*
X46033350Y-46648999D01*
X46091541Y-46667906D01*
X46127505Y-46717406D01*
X46127505Y-46778592D01*
X46112983Y-46806817D01*
X46083242Y-46847083D01*
X46072361Y-46861815D01*
X46027476Y-46989630D01*
X46026908Y-46995637D01*
X46026908Y-46995638D01*
X46026270Y-47002393D01*
X46024495Y-47021165D01*
X46024495Y-48378833D01*
X46024713Y-48381134D01*
X46024713Y-48381144D01*
X46026627Y-48401387D01*
X46027476Y-48410368D01*
X46072361Y-48538183D01*
X46076756Y-48544134D01*
X46076757Y-48544135D01*
X46132729Y-48619914D01*
X46152845Y-48647149D01*
X46158802Y-48651549D01*
X46250256Y-48719098D01*
X46261811Y-48727633D01*
X46389626Y-48772518D01*
X46395633Y-48773086D01*
X46395634Y-48773086D01*
X46418850Y-48775281D01*
X46418860Y-48775281D01*
X46421161Y-48775499D01*
X47278829Y-48775499D01*
X47281130Y-48775281D01*
X47281140Y-48775281D01*
X47304356Y-48773086D01*
X47304357Y-48773086D01*
X47310364Y-48772518D01*
X47316055Y-48770519D01*
X47316057Y-48770519D01*
X47337799Y-48762884D01*
X47398967Y-48761445D01*
X47440603Y-48786289D01*
X47457770Y-48803456D01*
X47470935Y-48819759D01*
X47472248Y-48821793D01*
X47472251Y-48821797D01*
X47476690Y-48828671D01*
X47501847Y-48848504D01*
X47506252Y-48852418D01*
X47506253Y-48852417D01*
X47509384Y-48855070D01*
X47512261Y-48857947D01*
X47515571Y-48860312D01*
X47515573Y-48860314D01*
X47519312Y-48862986D01*
X47527116Y-48868563D01*
X47530827Y-48871349D01*
X47568326Y-48900911D01*
X47575633Y-48903477D01*
X47576879Y-48904124D01*
X47583184Y-48908630D01*
X47627296Y-48921822D01*
X47628918Y-48922307D01*
X47633354Y-48923748D01*
X47672548Y-48937512D01*
X47672551Y-48937513D01*
X47678421Y-48939574D01*
X47683559Y-48940019D01*
X47685695Y-48940019D01*
X47687434Y-48940094D01*
X47688777Y-48940208D01*
X47694978Y-48942062D01*
X47703153Y-48941741D01*
X47703154Y-48941741D01*
X47745053Y-48940095D01*
X47748939Y-48940019D01*
X51762527Y-48940019D01*
X51783363Y-48942237D01*
X51784645Y-48942513D01*
X51793736Y-48944470D01*
X51825546Y-48940705D01*
X51831438Y-48940358D01*
X51831438Y-48940355D01*
X51835505Y-48940019D01*
X51839590Y-48940019D01*
X51843616Y-48939349D01*
X51843627Y-48939348D01*
X51857594Y-48937023D01*
X51862201Y-48936367D01*
X51888483Y-48933256D01*
X51901487Y-48931717D01*
X51901488Y-48931717D01*
X51909613Y-48930755D01*
X51916597Y-48927401D01*
X51917929Y-48926980D01*
X51925578Y-48925707D01*
X51967635Y-48903014D01*
X51971758Y-48900914D01*
X52009192Y-48882939D01*
X52009196Y-48882937D01*
X52014801Y-48880245D01*
X52018749Y-48876927D01*
X52020257Y-48875419D01*
X52021546Y-48874237D01*
X52022572Y-48873371D01*
X52028269Y-48870297D01*
X52033820Y-48864292D01*
X52033825Y-48864288D01*
X52062284Y-48833501D01*
X52064978Y-48830698D01*
X52215392Y-48680284D01*
X52269909Y-48652507D01*
X52287208Y-48651305D01*
X52297870Y-48651501D01*
X52305442Y-48651640D01*
X52305444Y-48651640D01*
X52312494Y-48651769D01*
X52319297Y-48649914D01*
X52319299Y-48649914D01*
X52429336Y-48619914D01*
X52450812Y-48614059D01*
X52554803Y-48550208D01*
X52566973Y-48542736D01*
X52572986Y-48539044D01*
X52586152Y-48524499D01*
X52664463Y-48437981D01*
X52669195Y-48432753D01*
X52731705Y-48303732D01*
X52733031Y-48295855D01*
X52754857Y-48166123D01*
X52754857Y-48166119D01*
X52755491Y-48162353D01*
X52755544Y-48158064D01*
X52755592Y-48154064D01*
X52755642Y-48149999D01*
X52735318Y-48008081D01*
X52707782Y-47947518D01*
X52700033Y-47930475D01*
X52693160Y-47869677D01*
X52723336Y-47816450D01*
X52779034Y-47791126D01*
X52790155Y-47790499D01*
X58082719Y-47790499D01*
X58140910Y-47809406D01*
X58176874Y-47858906D01*
X58181002Y-47877605D01*
X58183552Y-47898672D01*
X58184719Y-47908319D01*
X58244650Y-48066922D01*
X58248030Y-48071839D01*
X58248031Y-48071842D01*
X58310238Y-48162353D01*
X58340683Y-48206650D01*
X58467274Y-48319439D01*
X58617114Y-48398775D01*
X58692425Y-48417692D01*
X58775764Y-48438626D01*
X58775767Y-48438626D01*
X58781554Y-48440080D01*
X58867154Y-48440528D01*
X58945134Y-48440937D01*
X58945136Y-48440937D01*
X58951100Y-48440968D01*
X58962191Y-48438305D01*
X59047914Y-48417725D01*
X59108910Y-48422526D01*
X59155436Y-48462262D01*
X59169720Y-48521757D01*
X59146305Y-48578285D01*
X59141029Y-48583994D01*
X59055009Y-48670014D01*
X59000492Y-48697791D01*
X58985005Y-48699010D01*
X57553992Y-48699010D01*
X57549867Y-48698707D01*
X57545142Y-48697085D01*
X57495723Y-48698940D01*
X57492010Y-48699010D01*
X57472536Y-48699010D01*
X57468106Y-48699835D01*
X57462913Y-48700171D01*
X57446882Y-48700773D01*
X57442409Y-48700941D01*
X57433276Y-48701284D01*
X57424882Y-48704890D01*
X57424879Y-48704891D01*
X57422701Y-48705827D01*
X57401750Y-48712193D01*
X57390431Y-48714301D01*
X57382648Y-48719098D01*
X57382649Y-48719098D01*
X57367756Y-48728278D01*
X57354888Y-48734962D01*
X57336842Y-48742715D01*
X57336841Y-48742716D01*
X57330421Y-48745474D01*
X57325535Y-48749488D01*
X57321171Y-48753852D01*
X57303116Y-48768123D01*
X57295136Y-48773042D01*
X57277466Y-48796279D01*
X57268674Y-48806349D01*
X56207050Y-49867973D01*
X56203921Y-49870673D01*
X56199432Y-49872868D01*
X56193214Y-49879571D01*
X56165808Y-49909115D01*
X56163232Y-49911791D01*
X56149453Y-49925570D01*
X56146908Y-49929280D01*
X56143472Y-49933193D01*
X56123300Y-49954939D01*
X56123137Y-49954788D01*
X56120147Y-49958526D01*
X55925844Y-50152829D01*
X55922715Y-50155529D01*
X55918226Y-50157724D01*
X55912008Y-50164427D01*
X55884602Y-50193971D01*
X55882026Y-50196647D01*
X55868247Y-50210426D01*
X55865702Y-50214136D01*
X55862266Y-50218049D01*
X55842094Y-50239795D01*
X55838707Y-50248283D01*
X55838707Y-50248284D01*
X55837829Y-50250485D01*
X55827515Y-50269801D01*
X55826174Y-50271756D01*
X55826173Y-50271759D01*
X55821003Y-50279295D01*
X55816855Y-50296774D01*
X55814854Y-50305207D01*
X55810481Y-50319033D01*
X55803201Y-50337281D01*
X55800612Y-50343771D01*
X55799995Y-50350064D01*
X55799995Y-50356233D01*
X55797320Y-50379092D01*
X55795155Y-50388215D01*
X55798996Y-50416441D01*
X55799091Y-50417136D01*
X55799995Y-50430486D01*
X55799995Y-50488182D01*
X55781088Y-50546373D01*
X55731588Y-50582337D01*
X55670402Y-50582337D01*
X55630991Y-50558186D01*
X55348642Y-50275837D01*
X55345941Y-50272708D01*
X55343747Y-50268219D01*
X55337338Y-50262274D01*
X55317900Y-50204506D01*
X55326666Y-50165373D01*
X55326486Y-50165316D01*
X55327132Y-50163292D01*
X55327799Y-50160314D01*
X55328630Y-50158599D01*
X55328631Y-50158596D01*
X55331705Y-50152251D01*
X55346318Y-50065397D01*
X55354857Y-50014642D01*
X55354857Y-50014638D01*
X55355491Y-50010872D01*
X55355642Y-49998518D01*
X55335318Y-49856600D01*
X55308634Y-49797912D01*
X55278900Y-49732514D01*
X55278899Y-49732513D01*
X55275979Y-49726090D01*
X55210502Y-49650101D01*
X55187000Y-49622825D01*
X55186999Y-49622824D01*
X55182395Y-49617481D01*
X55062090Y-49539503D01*
X54924734Y-49498425D01*
X54841492Y-49497916D01*
X54788422Y-49497592D01*
X54788421Y-49497592D01*
X54781371Y-49497549D01*
X54774594Y-49499486D01*
X54774593Y-49499486D01*
X54650304Y-49535008D01*
X54650302Y-49535009D01*
X54643524Y-49536946D01*
X54522275Y-49613448D01*
X54517608Y-49618732D01*
X54517606Y-49618734D01*
X54432039Y-49715621D01*
X54432037Y-49715623D01*
X54427372Y-49720906D01*
X54424376Y-49727288D01*
X54424375Y-49727289D01*
X54422038Y-49732267D01*
X54366442Y-49850681D01*
X54357330Y-49909205D01*
X54329697Y-49963790D01*
X54275254Y-49991711D01*
X54214797Y-49982299D01*
X54184512Y-49958595D01*
X54155603Y-49925045D01*
X54155601Y-49925043D01*
X54150997Y-49919700D01*
X54030692Y-49841722D01*
X53893336Y-49800644D01*
X53810094Y-49800135D01*
X53757024Y-49799811D01*
X53757023Y-49799811D01*
X53749973Y-49799768D01*
X53743196Y-49801705D01*
X53743195Y-49801705D01*
X53618906Y-49837227D01*
X53618904Y-49837228D01*
X53612126Y-49839165D01*
X53490877Y-49915667D01*
X53486210Y-49920951D01*
X53486208Y-49920953D01*
X53400641Y-50017840D01*
X53400639Y-50017842D01*
X53395974Y-50023125D01*
X53389239Y-50037470D01*
X53347393Y-50082107D01*
X53287301Y-50093623D01*
X53229625Y-50065399D01*
X52940049Y-49775823D01*
X52937352Y-49772699D01*
X52935157Y-49768208D01*
X52898910Y-49734584D01*
X52896234Y-49732008D01*
X52882455Y-49718229D01*
X52878745Y-49715684D01*
X52874832Y-49712248D01*
X52859787Y-49698292D01*
X52853086Y-49692076D01*
X52842396Y-49687811D01*
X52823080Y-49677497D01*
X52821125Y-49676156D01*
X52821122Y-49676155D01*
X52813586Y-49670985D01*
X52787673Y-49664836D01*
X52773848Y-49660463D01*
X52755600Y-49653183D01*
X52755598Y-49653183D01*
X52749110Y-49650594D01*
X52742817Y-49649977D01*
X52736648Y-49649977D01*
X52713789Y-49647302D01*
X52713559Y-49647247D01*
X52713557Y-49647247D01*
X52704666Y-49645137D01*
X52675745Y-49649073D01*
X52662395Y-49649977D01*
X49078025Y-49649977D01*
X49073900Y-49649674D01*
X49069175Y-49648052D01*
X49020928Y-49649863D01*
X49019756Y-49649907D01*
X49016043Y-49649977D01*
X48996569Y-49649977D01*
X48992139Y-49650802D01*
X48986946Y-49651138D01*
X48970915Y-49651740D01*
X48966442Y-49651908D01*
X48957309Y-49652251D01*
X48948915Y-49655857D01*
X48948912Y-49655858D01*
X48946734Y-49656794D01*
X48925783Y-49663160D01*
X48914464Y-49665268D01*
X48906681Y-49670065D01*
X48906682Y-49670065D01*
X48891789Y-49679245D01*
X48878921Y-49685929D01*
X48860875Y-49693682D01*
X48860874Y-49693683D01*
X48854454Y-49696441D01*
X48849568Y-49700455D01*
X48845204Y-49704819D01*
X48827149Y-49719090D01*
X48819169Y-49724009D01*
X48801499Y-49747246D01*
X48792707Y-49757316D01*
X48354520Y-50195503D01*
X48300003Y-50223280D01*
X48284516Y-50224499D01*
X47885281Y-50224500D01*
X47843477Y-50224500D01*
X47839634Y-50225109D01*
X47839629Y-50225109D01*
X47802778Y-50230946D01*
X47749691Y-50239353D01*
X47718219Y-50255389D01*
X47643592Y-50293413D01*
X47643590Y-50293414D01*
X47636653Y-50296949D01*
X47546945Y-50386657D01*
X47543410Y-50393594D01*
X47543409Y-50393596D01*
X47492885Y-50492755D01*
X47489349Y-50499695D01*
X47488130Y-50507389D01*
X47488130Y-50507390D01*
X47475104Y-50589634D01*
X47474495Y-50593480D01*
X47474496Y-51056517D01*
X47475105Y-51060360D01*
X47475105Y-51060365D01*
X47477919Y-51078133D01*
X47489349Y-51150303D01*
X47514776Y-51200206D01*
X47535782Y-51241432D01*
X47546945Y-51263341D01*
X47636653Y-51353049D01*
X47643590Y-51356584D01*
X47643592Y-51356585D01*
X47729808Y-51400514D01*
X47749691Y-51410645D01*
X47757385Y-51411864D01*
X47757386Y-51411864D01*
X47839630Y-51424890D01*
X47839632Y-51424890D01*
X47843476Y-51425499D01*
X48149955Y-51425499D01*
X48456513Y-51425498D01*
X48460356Y-51424889D01*
X48460361Y-51424889D01*
X48509300Y-51417138D01*
X48550299Y-51410645D01*
X48608300Y-51381092D01*
X48656398Y-51356585D01*
X48656400Y-51356584D01*
X48663337Y-51353049D01*
X48753045Y-51263341D01*
X48764209Y-51241432D01*
X48807105Y-51157243D01*
X48807105Y-51157242D01*
X48810641Y-51150303D01*
X48814043Y-51128828D01*
X48824886Y-51060364D01*
X48824886Y-51060362D01*
X48825495Y-51056518D01*
X48825494Y-50615479D01*
X48844401Y-50557288D01*
X48854490Y-50545475D01*
X49119992Y-50279973D01*
X49174509Y-50252196D01*
X49189996Y-50250977D01*
X49881778Y-50250977D01*
X49939969Y-50269884D01*
X49975933Y-50319384D01*
X49975933Y-50380570D01*
X49939969Y-50430070D01*
X49927184Y-50437950D01*
X49838670Y-50483635D01*
X49838668Y-50483637D01*
X49833364Y-50486374D01*
X49752073Y-50557288D01*
X49710586Y-50593480D01*
X49705599Y-50597830D01*
X49702168Y-50602712D01*
X49702167Y-50602713D01*
X49632309Y-50702111D01*
X49608108Y-50736546D01*
X49593630Y-50773679D01*
X49565305Y-50846330D01*
X49546519Y-50894512D01*
X49545740Y-50900427D01*
X49545740Y-50900428D01*
X49533650Y-50992262D01*
X49529495Y-51023825D01*
X49529495Y-52212515D01*
X49532134Y-52234319D01*
X49543191Y-52325689D01*
X49544719Y-52338319D01*
X49604650Y-52496922D01*
X49608030Y-52501839D01*
X49608031Y-52501842D01*
X49641070Y-52549913D01*
X49700683Y-52636650D01*
X49827274Y-52749439D01*
X49977114Y-52828775D01*
X50052031Y-52847593D01*
X50135764Y-52868626D01*
X50135767Y-52868626D01*
X50141554Y-52870080D01*
X50227154Y-52870528D01*
X50305134Y-52870937D01*
X50305136Y-52870937D01*
X50311100Y-52870968D01*
X50316896Y-52869576D01*
X50316900Y-52869576D01*
X50427884Y-52842930D01*
X50488881Y-52847731D01*
X50535407Y-52887467D01*
X50549996Y-52939195D01*
X50549996Y-53251000D01*
X50531089Y-53309191D01*
X50481589Y-53345155D01*
X50450996Y-53350000D01*
X49598523Y-53350000D01*
X49567216Y-53344920D01*
X49351214Y-53272919D01*
X49346306Y-53270925D01*
X49339269Y-53265298D01*
X49308706Y-53258273D01*
X49299605Y-53255716D01*
X49291857Y-53253134D01*
X49286317Y-53252593D01*
X49283310Y-53251953D01*
X49280971Y-53251571D01*
X49278163Y-53251253D01*
X49272706Y-53249998D01*
X49264628Y-53249999D01*
X49254997Y-53249529D01*
X49224058Y-53246504D01*
X49215462Y-53249652D01*
X49209935Y-53250003D01*
X49008229Y-53250020D01*
X48950037Y-53231118D01*
X48914069Y-53181621D01*
X48914064Y-53120435D01*
X48934983Y-53086294D01*
X48934454Y-53085884D01*
X48938169Y-53081094D01*
X48938217Y-53081016D01*
X48938274Y-53080959D01*
X48945851Y-53071190D01*
X49023105Y-52940560D01*
X49028015Y-52929215D01*
X49070684Y-52782348D01*
X49072492Y-52772448D01*
X49074842Y-52742583D01*
X49074995Y-52738691D01*
X49074995Y-52715679D01*
X49070873Y-52702994D01*
X49066752Y-52699999D01*
X47240675Y-52699999D01*
X47227990Y-52704121D01*
X47224995Y-52708242D01*
X47224995Y-52738691D01*
X47225148Y-52742583D01*
X47227498Y-52772448D01*
X47229306Y-52782348D01*
X47271975Y-52929215D01*
X47276885Y-52940560D01*
X47354139Y-53071190D01*
X47361716Y-53080959D01*
X47361920Y-53081163D01*
X47362007Y-53081335D01*
X47365536Y-53085884D01*
X47364668Y-53086557D01*
X47389697Y-53135680D01*
X47380126Y-53196112D01*
X47336861Y-53239377D01*
X47291926Y-53250166D01*
X39454263Y-53250833D01*
X37545429Y-53250995D01*
X37487237Y-53232093D01*
X37451269Y-53182596D01*
X37446669Y-53158992D01*
X37446528Y-53157002D01*
X37446527Y-53156995D01*
X37446004Y-53149616D01*
X37443334Y-53142713D01*
X37399796Y-53030176D01*
X37397126Y-53023274D01*
X37313259Y-52916890D01*
X37307171Y-52912682D01*
X37278897Y-52893141D01*
X37201818Y-52839869D01*
X37072657Y-52799020D01*
X37066050Y-52798500D01*
X36967537Y-52798500D01*
X36931337Y-52803942D01*
X36874746Y-52812450D01*
X36874744Y-52812451D01*
X36867425Y-52813551D01*
X36860754Y-52816754D01*
X36860752Y-52816755D01*
X36784969Y-52853146D01*
X36745308Y-52872191D01*
X36645831Y-52964146D01*
X36642114Y-52970546D01*
X36586373Y-53066511D01*
X36540796Y-53107333D01*
X36479930Y-53113569D01*
X36427022Y-53082838D01*
X36408437Y-53052510D01*
X36397126Y-53023274D01*
X36313259Y-52916890D01*
X36307171Y-52912682D01*
X36278897Y-52893141D01*
X36201818Y-52839869D01*
X36072657Y-52799020D01*
X36066050Y-52798500D01*
X35967537Y-52798500D01*
X35931337Y-52803942D01*
X35874746Y-52812450D01*
X35874744Y-52812451D01*
X35867425Y-52813551D01*
X35860754Y-52816754D01*
X35860752Y-52816755D01*
X35784969Y-52853146D01*
X35745308Y-52872191D01*
X35645831Y-52964146D01*
X35642114Y-52970546D01*
X35586373Y-53066511D01*
X35540796Y-53107333D01*
X35479930Y-53113569D01*
X35427022Y-53082838D01*
X35408437Y-53052510D01*
X35397126Y-53023274D01*
X35313259Y-52916890D01*
X35307171Y-52912682D01*
X35278897Y-52893141D01*
X35201818Y-52839869D01*
X35072657Y-52799020D01*
X35066050Y-52798500D01*
X34967537Y-52798500D01*
X34931337Y-52803942D01*
X34874746Y-52812450D01*
X34874744Y-52812451D01*
X34867425Y-52813551D01*
X34860754Y-52816754D01*
X34860752Y-52816755D01*
X34784969Y-52853146D01*
X34745308Y-52872191D01*
X34645831Y-52964146D01*
X34642114Y-52970546D01*
X34586373Y-53066511D01*
X34540796Y-53107333D01*
X34479930Y-53113569D01*
X34427022Y-53082838D01*
X34408437Y-53052510D01*
X34397126Y-53023274D01*
X34313259Y-52916890D01*
X34307171Y-52912682D01*
X34278897Y-52893141D01*
X34201818Y-52839869D01*
X34072657Y-52799020D01*
X34066050Y-52798500D01*
X33967537Y-52798500D01*
X33931337Y-52803942D01*
X33874746Y-52812450D01*
X33874744Y-52812451D01*
X33867425Y-52813551D01*
X33860754Y-52816754D01*
X33860752Y-52816755D01*
X33784969Y-52853146D01*
X33745308Y-52872191D01*
X33645831Y-52964146D01*
X33577791Y-53081287D01*
X33560243Y-53156995D01*
X33556219Y-53174354D01*
X33524661Y-53226773D01*
X33468318Y-53250631D01*
X33459784Y-53251000D01*
X33130743Y-53250996D01*
X33072553Y-53232088D01*
X33036590Y-53182588D01*
X33031745Y-53151996D01*
X33031745Y-52346165D01*
X33031432Y-52342848D01*
X33029332Y-52320638D01*
X33029332Y-52320637D01*
X33028764Y-52314630D01*
X32983879Y-52186815D01*
X32969724Y-52167650D01*
X32907795Y-52083806D01*
X32903395Y-52077849D01*
X32897438Y-52073449D01*
X32800381Y-52001761D01*
X32800380Y-52001760D01*
X32794429Y-51997365D01*
X32666614Y-51952480D01*
X32660607Y-51951912D01*
X32660606Y-51951912D01*
X32637390Y-51949717D01*
X32637380Y-51949717D01*
X32635079Y-51949499D01*
X31227411Y-51949499D01*
X31225110Y-51949717D01*
X31225100Y-51949717D01*
X31201884Y-51951912D01*
X31201883Y-51951912D01*
X31195876Y-51952480D01*
X31068061Y-51997365D01*
X31062110Y-52001760D01*
X31062109Y-52001761D01*
X30965052Y-52073449D01*
X30959095Y-52077849D01*
X30954695Y-52083806D01*
X30892767Y-52167650D01*
X30878611Y-52186815D01*
X30833726Y-52314630D01*
X30833158Y-52320637D01*
X30833158Y-52320638D01*
X30831059Y-52342848D01*
X30830745Y-52346165D01*
X30830745Y-52984591D01*
X30811838Y-53042782D01*
X30762338Y-53078746D01*
X30700260Y-53078451D01*
X30629081Y-53054574D01*
X30624514Y-53052916D01*
X30469944Y-52992478D01*
X30465275Y-52990513D01*
X30319941Y-52924929D01*
X30315495Y-52922788D01*
X30212752Y-52870111D01*
X30173437Y-52849954D01*
X30169102Y-52847593D01*
X30030828Y-52767752D01*
X30026632Y-52765188D01*
X29892504Y-52678551D01*
X29888446Y-52675784D01*
X29758816Y-52582578D01*
X29754882Y-52579598D01*
X29630094Y-52480075D01*
X29626312Y-52476902D01*
X29506596Y-52371244D01*
X29502978Y-52367887D01*
X29485714Y-52351047D01*
X29388659Y-52256375D01*
X29385241Y-52252870D01*
X29382578Y-52249999D01*
X29276670Y-52135848D01*
X29273408Y-52132151D01*
X29170780Y-52009832D01*
X29167703Y-52005974D01*
X29151441Y-51984504D01*
X29071303Y-51878699D01*
X29068443Y-51874722D01*
X28986241Y-51754143D01*
X28978518Y-51742814D01*
X28975840Y-51738668D01*
X28943637Y-51685966D01*
X34587387Y-51685966D01*
X34595842Y-51750193D01*
X34599174Y-51762629D01*
X34654661Y-51896590D01*
X34661097Y-51907737D01*
X34749372Y-52022778D01*
X34758468Y-52031874D01*
X34873508Y-52120147D01*
X34884654Y-52126582D01*
X35018620Y-52182072D01*
X35031045Y-52185402D01*
X35138709Y-52199576D01*
X35145163Y-52199999D01*
X35565565Y-52199999D01*
X35578250Y-52195877D01*
X35581245Y-52191756D01*
X35581245Y-52184318D01*
X36031245Y-52184318D01*
X36035367Y-52197003D01*
X36039488Y-52199998D01*
X36467325Y-52199998D01*
X36473782Y-52199575D01*
X36581438Y-52185402D01*
X36593875Y-52182070D01*
X36727836Y-52126583D01*
X36738983Y-52120147D01*
X36854024Y-52031872D01*
X36863120Y-52022776D01*
X36951393Y-51907736D01*
X36957828Y-51896590D01*
X37013318Y-51762624D01*
X37016648Y-51750199D01*
X37024501Y-51690544D01*
X37022071Y-51677430D01*
X37020769Y-51676194D01*
X37015487Y-51674999D01*
X36046925Y-51674999D01*
X36034240Y-51679121D01*
X36031245Y-51683242D01*
X36031245Y-52184318D01*
X35581245Y-52184318D01*
X35581245Y-51690679D01*
X35577123Y-51677994D01*
X35573002Y-51674999D01*
X34601623Y-51674999D01*
X34588938Y-51679121D01*
X34587882Y-51680573D01*
X34587387Y-51685966D01*
X28943637Y-51685966D01*
X28892590Y-51602424D01*
X28890122Y-51598148D01*
X28813770Y-51457927D01*
X28811519Y-51453536D01*
X28793992Y-51417138D01*
X28742332Y-51309855D01*
X28740264Y-51305263D01*
X28729517Y-51279673D01*
X28676101Y-51152492D01*
X28674332Y-51147974D01*
X28642490Y-51060365D01*
X28621873Y-51003641D01*
X28620334Y-50999060D01*
X28616438Y-50986449D01*
X28574946Y-50852164D01*
X28573630Y-50847503D01*
X28532566Y-50687112D01*
X28531411Y-50682051D01*
X28498776Y-50519553D01*
X28497937Y-50514771D01*
X28488520Y-50452101D01*
X28475120Y-50362917D01*
X28474520Y-50358127D01*
X28473653Y-50349499D01*
X28466246Y-50275837D01*
X28459139Y-50205155D01*
X28458772Y-50200316D01*
X28451860Y-50065397D01*
X28450303Y-50034987D01*
X28450173Y-50029807D01*
X28450174Y-50029570D01*
X28450384Y-49864052D01*
X28450509Y-49859217D01*
X28453600Y-49797831D01*
X28458234Y-49705835D01*
X28458595Y-49701013D01*
X28459051Y-49696441D01*
X28467315Y-49613448D01*
X28473829Y-49548032D01*
X28474429Y-49543212D01*
X28498958Y-49379054D01*
X28499834Y-49374067D01*
X28508815Y-49329644D01*
X28531400Y-49217924D01*
X28532486Y-49213161D01*
X28570326Y-49064252D01*
X28571636Y-49059577D01*
X28620233Y-48901297D01*
X28621879Y-48896397D01*
X28678785Y-48740666D01*
X28680547Y-48736188D01*
X28681065Y-48734962D01*
X28729623Y-48619914D01*
X28740248Y-48594740D01*
X28742240Y-48590325D01*
X28767319Y-48538183D01*
X28808887Y-48451758D01*
X28811093Y-48447444D01*
X28811283Y-48447095D01*
X28869267Y-48340286D01*
X28890086Y-48301937D01*
X28892682Y-48297442D01*
X28979281Y-48156133D01*
X28981919Y-48152056D01*
X28987539Y-48143822D01*
X29017850Y-48099406D01*
X29068469Y-48025234D01*
X29071296Y-48021301D01*
X29164091Y-47898672D01*
X29167099Y-47894894D01*
X29273625Y-47767613D01*
X29276965Y-47763823D01*
X29385307Y-47647059D01*
X29388718Y-47643560D01*
X29480619Y-47553833D01*
X29498697Y-47536183D01*
X29502240Y-47532890D01*
X29626229Y-47423182D01*
X29630205Y-47419846D01*
X29759910Y-47316678D01*
X29763786Y-47313747D01*
X29888635Y-47224079D01*
X29892675Y-47221326D01*
X29929759Y-47197375D01*
X30026505Y-47134891D01*
X30030772Y-47132287D01*
X30174623Y-47049478D01*
X30178876Y-47047168D01*
X30315718Y-46977098D01*
X30320123Y-46974978D01*
X30465315Y-46909465D01*
X30469953Y-46907514D01*
X30624520Y-46847078D01*
X30629055Y-46845431D01*
X30700257Y-46821544D01*
X30761440Y-46820961D01*
X30811280Y-46856452D01*
X30830745Y-46915403D01*
X30830745Y-47553833D01*
X30833726Y-47585368D01*
X30878611Y-47713183D01*
X30883006Y-47719134D01*
X30883007Y-47719135D01*
X30935718Y-47790499D01*
X30959095Y-47822149D01*
X30965052Y-47826549D01*
X31060095Y-47896749D01*
X31068061Y-47902633D01*
X31195876Y-47947518D01*
X31201883Y-47948086D01*
X31201884Y-47948086D01*
X31225100Y-47950281D01*
X31225110Y-47950281D01*
X31227411Y-47950499D01*
X32635079Y-47950499D01*
X32637380Y-47950281D01*
X32637390Y-47950281D01*
X32660606Y-47948086D01*
X32660607Y-47948086D01*
X32666614Y-47947518D01*
X32794429Y-47902633D01*
X32802396Y-47896749D01*
X32897438Y-47826549D01*
X32903395Y-47822149D01*
X32926772Y-47790499D01*
X32979483Y-47719135D01*
X32979484Y-47719134D01*
X32983879Y-47713183D01*
X33028764Y-47585368D01*
X33031745Y-47553833D01*
X33031745Y-46747999D01*
X33050652Y-46689808D01*
X33100152Y-46653844D01*
X33130745Y-46648999D01*
X33457353Y-46648999D01*
X33515544Y-46667906D01*
G37*
G04 #@! TD.AperFunction*
G04 #@! TA.AperFunction,Conductor*
G36*
X61576138Y-46667694D02*
G01*
X61612107Y-46717191D01*
X61612112Y-46778376D01*
X61590318Y-46813945D01*
X61590536Y-46814114D01*
X61589008Y-46816085D01*
X61587959Y-46817796D01*
X61586716Y-46819039D01*
X61579139Y-46828808D01*
X61501885Y-46959438D01*
X61496975Y-46970783D01*
X61454306Y-47117650D01*
X61452498Y-47127550D01*
X61450148Y-47157415D01*
X61449995Y-47161307D01*
X61449995Y-47259319D01*
X61454117Y-47272004D01*
X61458238Y-47274999D01*
X63134315Y-47274999D01*
X63147000Y-47270877D01*
X63149995Y-47266756D01*
X63149995Y-47161307D01*
X63149842Y-47157410D01*
X63149155Y-47148678D01*
X63163440Y-47089183D01*
X63204995Y-47051669D01*
X63248016Y-47031010D01*
X63254684Y-47027808D01*
X63354161Y-46935853D01*
X63388505Y-46876725D01*
X63413619Y-46833488D01*
X63459196Y-46792666D01*
X63520062Y-46786430D01*
X63572970Y-46817161D01*
X63591555Y-46847489D01*
X63602866Y-46876725D01*
X63686733Y-46983109D01*
X63798174Y-47060130D01*
X63927335Y-47100979D01*
X63933942Y-47101499D01*
X64032455Y-47101499D01*
X64083499Y-47093825D01*
X64125246Y-47087549D01*
X64125248Y-47087548D01*
X64132567Y-47086448D01*
X64139238Y-47083245D01*
X64139240Y-47083244D01*
X64248016Y-47031010D01*
X64254684Y-47027808D01*
X64354161Y-46935853D01*
X64388505Y-46876725D01*
X64413619Y-46833488D01*
X64459196Y-46792666D01*
X64520062Y-46786430D01*
X64572970Y-46817161D01*
X64591555Y-46847489D01*
X64602866Y-46876725D01*
X64686733Y-46983109D01*
X64798174Y-47060130D01*
X64927335Y-47100979D01*
X64933942Y-47101499D01*
X65032455Y-47101499D01*
X65083499Y-47093825D01*
X65125246Y-47087549D01*
X65125248Y-47087548D01*
X65132567Y-47086448D01*
X65139238Y-47083245D01*
X65139240Y-47083244D01*
X65248016Y-47031010D01*
X65254684Y-47027808D01*
X65354161Y-46935853D01*
X65388505Y-46876725D01*
X65413619Y-46833488D01*
X65459196Y-46792666D01*
X65520062Y-46786430D01*
X65572970Y-46817161D01*
X65591555Y-46847489D01*
X65602866Y-46876725D01*
X65686733Y-46983109D01*
X65798174Y-47060130D01*
X65927335Y-47100979D01*
X65933942Y-47101499D01*
X66032455Y-47101499D01*
X66083499Y-47093825D01*
X66125246Y-47087549D01*
X66125248Y-47087548D01*
X66132567Y-47086448D01*
X66139238Y-47083245D01*
X66139240Y-47083244D01*
X66248016Y-47031010D01*
X66254684Y-47027808D01*
X66354161Y-46935853D01*
X66406239Y-46846193D01*
X66418485Y-46825110D01*
X66418485Y-46825109D01*
X66422201Y-46818712D01*
X66443773Y-46725645D01*
X66475331Y-46673226D01*
X66531674Y-46649368D01*
X66540216Y-46648999D01*
X68181904Y-46649000D01*
X68243220Y-46649000D01*
X68245686Y-46649031D01*
X68411968Y-46653175D01*
X68416896Y-46653421D01*
X68515734Y-46660824D01*
X68576081Y-46665344D01*
X68580969Y-46665832D01*
X68739669Y-46685720D01*
X68744530Y-46686454D01*
X68901557Y-46714149D01*
X68906493Y-46715150D01*
X69067909Y-46752209D01*
X69072583Y-46753403D01*
X69220519Y-46795098D01*
X69225141Y-46796524D01*
X69370913Y-46845422D01*
X69375480Y-46847080D01*
X69397943Y-46855863D01*
X69530062Y-46907523D01*
X69534710Y-46909478D01*
X69547841Y-46915403D01*
X69679910Y-46974996D01*
X69684314Y-46977116D01*
X69685261Y-46977601D01*
X69788748Y-47030592D01*
X69821084Y-47047150D01*
X69825345Y-47049465D01*
X69969241Y-47132299D01*
X69973540Y-47134923D01*
X70107335Y-47221338D01*
X70111357Y-47224078D01*
X70114742Y-47226509D01*
X70236204Y-47313745D01*
X70240076Y-47316673D01*
X70369625Y-47419708D01*
X70373602Y-47423045D01*
X70497744Y-47532882D01*
X70501303Y-47536190D01*
X70611273Y-47643557D01*
X70614686Y-47647057D01*
X70723037Y-47763833D01*
X70726383Y-47767630D01*
X70832890Y-47894887D01*
X70835914Y-47898687D01*
X70928572Y-48021129D01*
X70931399Y-48025060D01*
X70969044Y-48080217D01*
X71016671Y-48149999D01*
X71018063Y-48152039D01*
X71020701Y-48156116D01*
X71107208Y-48297264D01*
X71109804Y-48301759D01*
X71188881Y-48447409D01*
X71191092Y-48451732D01*
X71257659Y-48590121D01*
X71259651Y-48594535D01*
X71275980Y-48633217D01*
X71319453Y-48736207D01*
X71321203Y-48740652D01*
X71378184Y-48896588D01*
X71379792Y-48901365D01*
X71426751Y-49053606D01*
X71428076Y-49058311D01*
X71466068Y-49207214D01*
X71467152Y-49211945D01*
X71500165Y-49374155D01*
X71501066Y-49379262D01*
X71511636Y-49449999D01*
X71525563Y-49543203D01*
X71526163Y-49548022D01*
X71540946Y-49696441D01*
X71541381Y-49700813D01*
X71541743Y-49705643D01*
X71549481Y-49859200D01*
X71549606Y-49864052D01*
X71549627Y-49879879D01*
X71549824Y-50029504D01*
X71549824Y-50029570D01*
X71549695Y-50034744D01*
X71544590Y-50134497D01*
X71541222Y-50200301D01*
X71540855Y-50205141D01*
X71534853Y-50264855D01*
X71525668Y-50356233D01*
X71525497Y-50357931D01*
X71524896Y-50362724D01*
X71516500Y-50418612D01*
X71502055Y-50514760D01*
X71501217Y-50519541D01*
X71485179Y-50599417D01*
X71468741Y-50681287D01*
X71468623Y-50681873D01*
X71467470Y-50686922D01*
X71426365Y-50847493D01*
X71425051Y-50852150D01*
X71383797Y-50985680D01*
X71379723Y-50998868D01*
X71378184Y-51003448D01*
X71325660Y-51147974D01*
X71325659Y-51147976D01*
X71323896Y-51152480D01*
X71259712Y-51305298D01*
X71257649Y-51309879D01*
X71191328Y-51447609D01*
X71188464Y-51453557D01*
X71186212Y-51457949D01*
X71109862Y-51598162D01*
X71107402Y-51602424D01*
X71075815Y-51654117D01*
X71024149Y-51738670D01*
X71021472Y-51742815D01*
X70931539Y-51874734D01*
X70928679Y-51878713D01*
X70832289Y-52005974D01*
X70832270Y-52005999D01*
X70829192Y-52009858D01*
X70726576Y-52132158D01*
X70723311Y-52135858D01*
X70614716Y-52252904D01*
X70611268Y-52256439D01*
X70496986Y-52367912D01*
X70493380Y-52371259D01*
X70373650Y-52476929D01*
X70369906Y-52480070D01*
X70302214Y-52534056D01*
X70245087Y-52579616D01*
X70241152Y-52582597D01*
X70111530Y-52675794D01*
X70107452Y-52678575D01*
X69973328Y-52765207D01*
X69969115Y-52767781D01*
X69918896Y-52796777D01*
X69835891Y-52844703D01*
X69830875Y-52847599D01*
X69826550Y-52849955D01*
X69773387Y-52877213D01*
X69684464Y-52922805D01*
X69680016Y-52924947D01*
X69674161Y-52927589D01*
X69547842Y-52984591D01*
X69534694Y-52990524D01*
X69530032Y-52992486D01*
X69401398Y-53042782D01*
X69375485Y-53052914D01*
X69370923Y-53054569D01*
X69225150Y-53103468D01*
X69220508Y-53104899D01*
X69111103Y-53135680D01*
X69067168Y-53148041D01*
X69062271Y-53149285D01*
X68900422Y-53186009D01*
X68895704Y-53186959D01*
X68770409Y-53208993D01*
X68744462Y-53213556D01*
X68739673Y-53214278D01*
X68698372Y-53219474D01*
X68587104Y-53233473D01*
X68582288Y-53233958D01*
X68416974Y-53246564D01*
X68411981Y-53246817D01*
X68250875Y-53250892D01*
X68248661Y-53250948D01*
X68246159Y-53250980D01*
X68187960Y-53250981D01*
X66542639Y-53250999D01*
X66484449Y-53232092D01*
X66448485Y-53182593D01*
X66443886Y-53158992D01*
X66443745Y-53156995D01*
X66443744Y-53156992D01*
X66443222Y-53149615D01*
X66431452Y-53119190D01*
X66412882Y-53071190D01*
X66394344Y-53023273D01*
X66310477Y-52916889D01*
X66302006Y-52911034D01*
X66282775Y-52897743D01*
X66199036Y-52839868D01*
X66069875Y-52799019D01*
X66063268Y-52798499D01*
X65964755Y-52798499D01*
X65928555Y-52803941D01*
X65871964Y-52812449D01*
X65871962Y-52812450D01*
X65864643Y-52813550D01*
X65857972Y-52816753D01*
X65857970Y-52816754D01*
X65782185Y-52853146D01*
X65742526Y-52872190D01*
X65643049Y-52964145D01*
X65627727Y-52990524D01*
X65583591Y-53066510D01*
X65538014Y-53107332D01*
X65477148Y-53113568D01*
X65424240Y-53082837D01*
X65405653Y-53052506D01*
X65394344Y-53023273D01*
X65310477Y-52916889D01*
X65302006Y-52911034D01*
X65282775Y-52897743D01*
X65199036Y-52839868D01*
X65069875Y-52799019D01*
X65063268Y-52798499D01*
X64964755Y-52798499D01*
X64928555Y-52803941D01*
X64871964Y-52812449D01*
X64871962Y-52812450D01*
X64864643Y-52813550D01*
X64857972Y-52816753D01*
X64857970Y-52816754D01*
X64782185Y-52853146D01*
X64742526Y-52872190D01*
X64643049Y-52964145D01*
X64627727Y-52990524D01*
X64583591Y-53066510D01*
X64538014Y-53107332D01*
X64477148Y-53113568D01*
X64424240Y-53082837D01*
X64405653Y-53052506D01*
X64394344Y-53023273D01*
X64310477Y-52916889D01*
X64302006Y-52911034D01*
X64282775Y-52897743D01*
X64199036Y-52839868D01*
X64069875Y-52799019D01*
X64063268Y-52798499D01*
X63964755Y-52798499D01*
X63928555Y-52803941D01*
X63871964Y-52812449D01*
X63871962Y-52812450D01*
X63864643Y-52813550D01*
X63857972Y-52816753D01*
X63857970Y-52816754D01*
X63782185Y-52853146D01*
X63742526Y-52872190D01*
X63643049Y-52964145D01*
X63627727Y-52990524D01*
X63583591Y-53066510D01*
X63538014Y-53107332D01*
X63477148Y-53113568D01*
X63424240Y-53082837D01*
X63405653Y-53052506D01*
X63394344Y-53023273D01*
X63310477Y-52916889D01*
X63302006Y-52911034D01*
X63282775Y-52897743D01*
X63199036Y-52839868D01*
X63069875Y-52799019D01*
X63063268Y-52798499D01*
X62964755Y-52798499D01*
X62928555Y-52803941D01*
X62871964Y-52812449D01*
X62871962Y-52812450D01*
X62864643Y-52813550D01*
X62857972Y-52816753D01*
X62857970Y-52816754D01*
X62782185Y-52853146D01*
X62742526Y-52872190D01*
X62643049Y-52964145D01*
X62608705Y-53023273D01*
X62591489Y-53052914D01*
X62575009Y-53081286D01*
X62573338Y-53088495D01*
X62553376Y-53174616D01*
X62521817Y-53227034D01*
X62465475Y-53250892D01*
X62456885Y-53251261D01*
X62277151Y-53251174D01*
X62218969Y-53232239D01*
X62183030Y-53182721D01*
X62183059Y-53121536D01*
X62211319Y-53081126D01*
X62210092Y-53079899D01*
X62325677Y-52964314D01*
X62332986Y-52954991D01*
X62414571Y-52820280D01*
X62419448Y-52809480D01*
X62466758Y-52658510D01*
X62468808Y-52648274D01*
X62474788Y-52583195D01*
X62474995Y-52578686D01*
X62474995Y-52453179D01*
X62470873Y-52440494D01*
X62466752Y-52437499D01*
X59840675Y-52437499D01*
X59827990Y-52441621D01*
X59824995Y-52445742D01*
X59824995Y-52578686D01*
X59825202Y-52583195D01*
X59831182Y-52648274D01*
X59833232Y-52658510D01*
X59880542Y-52809480D01*
X59885419Y-52820280D01*
X59967004Y-52954991D01*
X59974313Y-52964314D01*
X60089898Y-53079899D01*
X60088170Y-53081627D01*
X60116618Y-53123989D01*
X60114358Y-53185133D01*
X60076591Y-53233270D01*
X60021351Y-53250083D01*
X59925272Y-53250036D01*
X59890131Y-53250019D01*
X59884784Y-53249673D01*
X59876298Y-53246549D01*
X59865207Y-53247614D01*
X59865206Y-53247614D01*
X59857997Y-53248306D01*
X59845148Y-53249540D01*
X59835646Y-53249993D01*
X59827551Y-53249989D01*
X59822139Y-53251221D01*
X59819195Y-53251551D01*
X59816583Y-53251972D01*
X59813888Y-53252543D01*
X59808312Y-53253078D01*
X59800710Y-53255612D01*
X59791377Y-53258222D01*
X59761127Y-53265107D01*
X59753937Y-53270831D01*
X59748756Y-53272930D01*
X59532784Y-53344920D01*
X59501478Y-53350000D01*
X58648995Y-53350000D01*
X58590804Y-53331093D01*
X58554840Y-53281593D01*
X58549995Y-53251000D01*
X58549995Y-52938858D01*
X58568902Y-52880667D01*
X58618402Y-52844703D01*
X58673112Y-52842841D01*
X58692031Y-52847593D01*
X58775764Y-52868626D01*
X58775767Y-52868626D01*
X58781554Y-52870080D01*
X58867154Y-52870528D01*
X58945134Y-52870937D01*
X58945136Y-52870937D01*
X58951100Y-52870968D01*
X58956896Y-52869576D01*
X58956900Y-52869576D01*
X59068255Y-52842841D01*
X59115963Y-52831387D01*
X59215396Y-52780066D01*
X59261320Y-52756363D01*
X59261322Y-52756361D01*
X59266626Y-52753624D01*
X59394391Y-52642168D01*
X59402658Y-52630406D01*
X59488451Y-52508334D01*
X59488451Y-52508333D01*
X59491882Y-52503452D01*
X59544062Y-52369618D01*
X59551303Y-52351047D01*
X59551303Y-52351046D01*
X59553471Y-52345486D01*
X59565199Y-52256405D01*
X59570072Y-52219386D01*
X59570495Y-52216173D01*
X59570495Y-51971819D01*
X59824995Y-51971819D01*
X59829117Y-51984504D01*
X59833238Y-51987499D01*
X60909315Y-51987499D01*
X60922000Y-51983377D01*
X60924995Y-51979256D01*
X60924995Y-51971819D01*
X61374995Y-51971819D01*
X61379117Y-51984504D01*
X61383238Y-51987499D01*
X62474806Y-51987499D01*
X62526091Y-52001818D01*
X62629714Y-52064575D01*
X62640514Y-52069452D01*
X62791484Y-52116762D01*
X62801720Y-52118812D01*
X62866799Y-52124792D01*
X62871308Y-52124999D01*
X63159315Y-52124999D01*
X63172000Y-52120877D01*
X63174995Y-52116756D01*
X63174995Y-52109319D01*
X63624995Y-52109319D01*
X63629117Y-52122004D01*
X63633238Y-52124999D01*
X63928682Y-52124999D01*
X63933191Y-52124792D01*
X63998270Y-52118812D01*
X64008506Y-52116762D01*
X64159476Y-52069452D01*
X64170276Y-52064575D01*
X64304987Y-51982990D01*
X64314310Y-51975681D01*
X64425677Y-51864314D01*
X64432986Y-51854991D01*
X64514571Y-51720280D01*
X64519448Y-51709480D01*
X64566758Y-51558510D01*
X64568808Y-51548274D01*
X64574788Y-51483195D01*
X64574995Y-51478686D01*
X64574995Y-51415679D01*
X64570873Y-51402994D01*
X64566752Y-51399999D01*
X63640675Y-51399999D01*
X63627990Y-51404121D01*
X63624995Y-51408242D01*
X63624995Y-52109319D01*
X63174995Y-52109319D01*
X63174995Y-51415679D01*
X63170873Y-51402994D01*
X63166752Y-51399999D01*
X62274605Y-51399999D01*
X62216414Y-51381092D01*
X62180451Y-51331592D01*
X62178960Y-51327003D01*
X62176544Y-51324782D01*
X62070276Y-51260423D01*
X62059476Y-51255546D01*
X61908506Y-51208236D01*
X61898270Y-51206186D01*
X61833191Y-51200206D01*
X61828682Y-51199999D01*
X61390675Y-51199999D01*
X61377990Y-51204121D01*
X61374995Y-51208242D01*
X61374995Y-51971819D01*
X60924995Y-51971819D01*
X60924995Y-51215679D01*
X60920873Y-51202994D01*
X60916752Y-51199999D01*
X60471308Y-51199999D01*
X60466799Y-51200206D01*
X60401720Y-51206186D01*
X60391484Y-51208236D01*
X60240514Y-51255546D01*
X60229714Y-51260423D01*
X60095003Y-51342008D01*
X60085680Y-51349317D01*
X59974313Y-51460684D01*
X59967004Y-51470007D01*
X59885419Y-51604718D01*
X59880542Y-51615518D01*
X59833232Y-51766488D01*
X59831182Y-51776724D01*
X59825202Y-51841803D01*
X59824995Y-51846312D01*
X59824995Y-51971819D01*
X59570495Y-51971819D01*
X59570495Y-51456189D01*
X59589402Y-51397998D01*
X59599491Y-51386185D01*
X60051357Y-50934319D01*
X62224995Y-50934319D01*
X62229117Y-50947004D01*
X62233238Y-50949999D01*
X63159315Y-50949999D01*
X63172000Y-50945877D01*
X63174995Y-50941756D01*
X63174995Y-50934319D01*
X63624995Y-50934319D01*
X63629117Y-50947004D01*
X63633238Y-50949999D01*
X64559315Y-50949999D01*
X64572000Y-50945877D01*
X64574995Y-50941756D01*
X64574995Y-50871312D01*
X64574788Y-50866803D01*
X64568808Y-50801724D01*
X64566758Y-50791488D01*
X64519448Y-50640518D01*
X64514571Y-50629718D01*
X64432986Y-50495007D01*
X64425677Y-50485684D01*
X64314310Y-50374317D01*
X64304987Y-50367008D01*
X64170276Y-50285423D01*
X64159476Y-50280546D01*
X64008506Y-50233236D01*
X63998270Y-50231186D01*
X63933191Y-50225206D01*
X63928682Y-50224999D01*
X63640675Y-50224999D01*
X63627990Y-50229121D01*
X63624995Y-50233242D01*
X63624995Y-50934319D01*
X63174995Y-50934319D01*
X63174995Y-50240679D01*
X63170873Y-50227994D01*
X63166752Y-50224999D01*
X62871308Y-50224999D01*
X62866799Y-50225206D01*
X62801720Y-50231186D01*
X62791484Y-50233236D01*
X62640514Y-50280546D01*
X62629714Y-50285423D01*
X62495003Y-50367008D01*
X62485680Y-50374317D01*
X62374313Y-50485684D01*
X62367004Y-50495007D01*
X62285419Y-50629718D01*
X62280542Y-50640518D01*
X62233232Y-50791488D01*
X62231182Y-50801724D01*
X62225202Y-50866803D01*
X62224995Y-50871312D01*
X62224995Y-50934319D01*
X60051357Y-50934319D01*
X60906180Y-50079495D01*
X60960697Y-50051718D01*
X60976184Y-50050499D01*
X61828829Y-50050499D01*
X61831130Y-50050281D01*
X61831140Y-50050281D01*
X61854356Y-50048086D01*
X61854357Y-50048086D01*
X61860364Y-50047518D01*
X61988179Y-50002633D01*
X62002359Y-49992160D01*
X62091188Y-49926549D01*
X62097145Y-49922149D01*
X62140043Y-49864070D01*
X62173233Y-49819135D01*
X62173234Y-49819134D01*
X62177629Y-49813183D01*
X62220292Y-49691696D01*
X62257411Y-49643058D01*
X62313699Y-49625499D01*
X62412629Y-49625499D01*
X62470820Y-49644406D01*
X62506037Y-49691698D01*
X62517384Y-49724009D01*
X62522361Y-49738183D01*
X62526756Y-49744134D01*
X62526757Y-49744135D01*
X62592872Y-49833647D01*
X62602845Y-49847149D01*
X62608802Y-49851549D01*
X62704660Y-49922351D01*
X62711811Y-49927633D01*
X62839626Y-49972518D01*
X62845633Y-49973086D01*
X62845634Y-49973086D01*
X62868850Y-49975281D01*
X62868860Y-49975281D01*
X62871161Y-49975499D01*
X63928829Y-49975499D01*
X63931130Y-49975281D01*
X63931140Y-49975281D01*
X63954356Y-49973086D01*
X63954357Y-49973086D01*
X63960364Y-49972518D01*
X64088179Y-49927633D01*
X64095331Y-49922351D01*
X64191188Y-49851549D01*
X64197145Y-49847149D01*
X64207118Y-49833647D01*
X64273233Y-49744135D01*
X64273234Y-49744134D01*
X64277629Y-49738183D01*
X64282607Y-49724009D01*
X64293953Y-49691698D01*
X64331072Y-49643058D01*
X64387361Y-49625499D01*
X66061408Y-49625499D01*
X66119599Y-49644406D01*
X66155563Y-49693906D01*
X66160103Y-49732267D01*
X66144702Y-49927952D01*
X66144896Y-49931317D01*
X66144896Y-49931321D01*
X66160995Y-50210517D01*
X66161189Y-50213877D01*
X66161837Y-50217180D01*
X66198556Y-50404341D01*
X66216327Y-50494919D01*
X66217422Y-50498117D01*
X66304131Y-50751372D01*
X66309097Y-50765877D01*
X66437782Y-51021739D01*
X66439694Y-51024521D01*
X66539408Y-51169605D01*
X66600001Y-51257769D01*
X66602261Y-51260253D01*
X66602266Y-51260259D01*
X66782130Y-51457927D01*
X66792751Y-51469599D01*
X66795338Y-51471762D01*
X66795339Y-51471763D01*
X66828186Y-51499227D01*
X67012467Y-51653310D01*
X67015322Y-51655101D01*
X67015329Y-51655106D01*
X67151915Y-51740785D01*
X67255083Y-51805502D01*
X67258151Y-51806887D01*
X67258158Y-51806891D01*
X67428115Y-51883629D01*
X67516109Y-51923360D01*
X67519331Y-51924314D01*
X67519338Y-51924317D01*
X67704810Y-51979256D01*
X67790714Y-52004702D01*
X67794036Y-52005210D01*
X67794039Y-52005211D01*
X68070485Y-52047513D01*
X68070487Y-52047513D01*
X68073819Y-52048023D01*
X68077191Y-52048076D01*
X68112022Y-52048623D01*
X68360184Y-52052522D01*
X68363520Y-52052118D01*
X68363525Y-52052118D01*
X68641165Y-52018519D01*
X68641170Y-52018518D01*
X68644509Y-52018114D01*
X68887068Y-51954480D01*
X68918279Y-51946292D01*
X68918280Y-51946292D01*
X68921534Y-51945438D01*
X68974835Y-51923360D01*
X69183024Y-51837126D01*
X69183027Y-51837125D01*
X69186133Y-51835838D01*
X69189038Y-51834141D01*
X69189041Y-51834139D01*
X69430494Y-51693045D01*
X69433410Y-51691341D01*
X69658788Y-51514622D01*
X69858097Y-51308951D01*
X69860781Y-51305298D01*
X69933256Y-51206634D01*
X70027650Y-51078133D01*
X70035636Y-51063426D01*
X70138997Y-50873057D01*
X70164308Y-50826440D01*
X70234500Y-50640683D01*
X70264353Y-50561679D01*
X70264354Y-50561675D01*
X70265543Y-50558529D01*
X70301466Y-50401681D01*
X70328729Y-50282647D01*
X70328730Y-50282640D01*
X70329482Y-50279357D01*
X70330285Y-50270363D01*
X70354769Y-49996021D01*
X70354769Y-49996015D01*
X70354941Y-49994091D01*
X70355188Y-49970518D01*
X70355383Y-49951936D01*
X70355383Y-49951928D01*
X70355403Y-49949999D01*
X70335923Y-49664262D01*
X70301571Y-49498382D01*
X70278528Y-49387109D01*
X70278526Y-49387103D01*
X70277845Y-49383813D01*
X70275274Y-49376551D01*
X70241055Y-49279922D01*
X70182243Y-49113841D01*
X70177487Y-49104626D01*
X70052437Y-48862345D01*
X70052433Y-48862339D01*
X70050886Y-48859341D01*
X70048945Y-48856579D01*
X69888136Y-48627771D01*
X69888131Y-48627765D01*
X69886204Y-48625023D01*
X69691246Y-48415223D01*
X69686712Y-48411512D01*
X69472231Y-48235960D01*
X69472224Y-48235955D01*
X69469618Y-48233822D01*
X69225422Y-48084179D01*
X69216510Y-48080267D01*
X68966260Y-47970414D01*
X68966256Y-47970412D01*
X68963177Y-47969061D01*
X68877696Y-47944711D01*
X68690986Y-47891525D01*
X68690981Y-47891524D01*
X68687734Y-47890599D01*
X68404191Y-47850245D01*
X68400824Y-47850227D01*
X68400819Y-47850227D01*
X68272473Y-47849556D01*
X68117795Y-47848746D01*
X67833846Y-47886128D01*
X67830589Y-47887019D01*
X67830584Y-47887020D01*
X67560853Y-47960810D01*
X67560850Y-47960811D01*
X67557597Y-47961701D01*
X67294160Y-48074067D01*
X67048410Y-48221145D01*
X67045781Y-48223251D01*
X67045777Y-48223254D01*
X66954009Y-48296774D01*
X66824895Y-48400214D01*
X66822571Y-48402663D01*
X66644680Y-48590121D01*
X66627750Y-48607961D01*
X66625782Y-48610700D01*
X66625781Y-48610701D01*
X66615490Y-48625023D01*
X66460624Y-48840542D01*
X66450155Y-48860314D01*
X66444061Y-48871824D01*
X66400122Y-48914404D01*
X66356568Y-48924499D01*
X64387361Y-48924499D01*
X64329170Y-48905592D01*
X64293953Y-48858300D01*
X64280081Y-48818797D01*
X64280081Y-48818796D01*
X64277629Y-48811815D01*
X64266147Y-48796269D01*
X64201545Y-48708806D01*
X64197145Y-48702849D01*
X64127691Y-48651549D01*
X64094131Y-48626761D01*
X64094130Y-48626760D01*
X64088179Y-48622365D01*
X63960364Y-48577480D01*
X63954357Y-48576912D01*
X63954356Y-48576912D01*
X63931140Y-48574717D01*
X63931130Y-48574717D01*
X63928829Y-48574499D01*
X62871161Y-48574499D01*
X62868860Y-48574717D01*
X62868850Y-48574717D01*
X62845634Y-48576912D01*
X62845633Y-48576912D01*
X62839626Y-48577480D01*
X62711811Y-48622365D01*
X62705860Y-48626760D01*
X62705859Y-48626761D01*
X62672299Y-48651549D01*
X62602845Y-48702849D01*
X62598445Y-48708806D01*
X62533844Y-48796269D01*
X62522361Y-48811815D01*
X62519909Y-48818796D01*
X62519909Y-48818797D01*
X62506037Y-48858300D01*
X62468918Y-48906940D01*
X62412629Y-48924499D01*
X62304920Y-48924499D01*
X62246729Y-48905592D01*
X62211512Y-48858301D01*
X62207961Y-48848190D01*
X62177629Y-48761815D01*
X62171748Y-48753852D01*
X62101545Y-48658806D01*
X62097145Y-48652849D01*
X62026132Y-48600397D01*
X61990558Y-48550617D01*
X61991039Y-48489434D01*
X62027390Y-48440218D01*
X62054357Y-48426611D01*
X62071999Y-48420879D01*
X62074995Y-48416756D01*
X62074995Y-48409319D01*
X62524995Y-48409319D01*
X62529117Y-48422004D01*
X62533238Y-48424999D01*
X62563687Y-48424999D01*
X62567579Y-48424846D01*
X62597444Y-48422496D01*
X62607344Y-48420688D01*
X62754211Y-48378019D01*
X62765556Y-48373109D01*
X62896186Y-48295855D01*
X62905955Y-48288278D01*
X63013274Y-48180959D01*
X63020851Y-48171190D01*
X63098105Y-48040560D01*
X63103015Y-48029215D01*
X63145684Y-47882348D01*
X63147492Y-47872448D01*
X63149842Y-47842583D01*
X63149995Y-47838691D01*
X63149995Y-47740679D01*
X63145873Y-47727994D01*
X63141752Y-47724999D01*
X62540675Y-47724999D01*
X62527990Y-47729121D01*
X62524995Y-47733242D01*
X62524995Y-48409319D01*
X62074995Y-48409319D01*
X62074995Y-47740679D01*
X62070873Y-47727994D01*
X62066752Y-47724999D01*
X61465675Y-47724999D01*
X61452990Y-47729121D01*
X61449995Y-47733242D01*
X61449995Y-47838691D01*
X61450148Y-47842583D01*
X61452498Y-47872448D01*
X61454306Y-47882348D01*
X61496975Y-48029215D01*
X61501885Y-48040560D01*
X61579139Y-48171190D01*
X61586716Y-48180959D01*
X61694035Y-48288278D01*
X61703804Y-48295855D01*
X61778933Y-48340286D01*
X61819396Y-48386181D01*
X61825154Y-48447095D01*
X61794008Y-48499760D01*
X61737855Y-48524060D01*
X61728538Y-48524499D01*
X60471161Y-48524499D01*
X60468860Y-48524717D01*
X60468850Y-48524717D01*
X60445634Y-48526912D01*
X60445633Y-48526912D01*
X60439626Y-48527480D01*
X60311811Y-48572365D01*
X60305860Y-48576760D01*
X60305859Y-48576761D01*
X60234274Y-48629635D01*
X60202845Y-48652849D01*
X60198445Y-48658806D01*
X60128243Y-48753852D01*
X60122361Y-48761815D01*
X60077476Y-48889630D01*
X60076908Y-48895637D01*
X60076908Y-48895638D01*
X60075840Y-48906940D01*
X60074495Y-48921165D01*
X60074495Y-49653833D01*
X60074713Y-49656134D01*
X60074713Y-49656144D01*
X60076451Y-49674524D01*
X60077476Y-49685368D01*
X60087183Y-49713009D01*
X60116998Y-49797912D01*
X60118439Y-49859080D01*
X60093594Y-49900718D01*
X59460979Y-50533333D01*
X59406462Y-50561110D01*
X59346030Y-50551539D01*
X59325118Y-50537247D01*
X59297488Y-50512630D01*
X59272716Y-50490559D01*
X59251926Y-50479551D01*
X59173413Y-50437981D01*
X59122876Y-50411223D01*
X59040656Y-50390570D01*
X58964226Y-50371372D01*
X58964223Y-50371372D01*
X58958436Y-50369918D01*
X58872836Y-50369470D01*
X58794856Y-50369061D01*
X58794854Y-50369061D01*
X58788890Y-50369030D01*
X58783094Y-50370422D01*
X58783090Y-50370422D01*
X58676709Y-50395963D01*
X58624027Y-50408611D01*
X58577623Y-50432562D01*
X58478670Y-50483635D01*
X58478668Y-50483637D01*
X58473364Y-50486374D01*
X58392073Y-50557288D01*
X58350586Y-50593480D01*
X58345599Y-50597830D01*
X58342168Y-50602712D01*
X58342167Y-50602713D01*
X58272309Y-50702111D01*
X58248108Y-50736546D01*
X58233630Y-50773679D01*
X58205305Y-50846330D01*
X58186519Y-50894512D01*
X58185740Y-50900427D01*
X58185740Y-50900428D01*
X58173650Y-50992262D01*
X58169495Y-51023825D01*
X58169495Y-51260999D01*
X58150588Y-51319190D01*
X58101088Y-51355154D01*
X58070495Y-51359999D01*
X58042207Y-51359999D01*
X57984016Y-51341092D01*
X57948052Y-51291592D01*
X57949059Y-51227465D01*
X57951431Y-51220877D01*
X57958845Y-51200284D01*
X57959340Y-51193549D01*
X57968895Y-51063426D01*
X57968895Y-51063422D01*
X57969389Y-51056692D01*
X57967711Y-51048367D01*
X57942264Y-50922166D01*
X57940931Y-50915555D01*
X57933224Y-50900428D01*
X57907297Y-50849544D01*
X57875566Y-50787269D01*
X57871002Y-50782305D01*
X57870998Y-50782300D01*
X57792069Y-50696466D01*
X57766598Y-50640834D01*
X57778692Y-50580856D01*
X57813139Y-50545090D01*
X57822986Y-50539044D01*
X57842783Y-50517173D01*
X57914463Y-50437981D01*
X57919195Y-50432753D01*
X57981705Y-50303732D01*
X57984321Y-50288187D01*
X58004857Y-50166123D01*
X58004857Y-50166119D01*
X58005491Y-50162353D01*
X58005642Y-50149999D01*
X57985318Y-50008081D01*
X57958853Y-49949874D01*
X57928900Y-49883995D01*
X57928899Y-49883994D01*
X57925979Y-49877571D01*
X57832395Y-49768962D01*
X57712090Y-49690984D01*
X57574734Y-49649906D01*
X57513832Y-49649534D01*
X57455758Y-49630272D01*
X57420097Y-49580553D01*
X57420471Y-49519369D01*
X57444433Y-49480532D01*
X57595959Y-49329006D01*
X57650476Y-49301229D01*
X57665963Y-49300010D01*
X59096976Y-49300010D01*
X59101101Y-49300313D01*
X59105826Y-49301935D01*
X59155245Y-49300080D01*
X59158958Y-49300010D01*
X59178432Y-49300010D01*
X59182862Y-49299185D01*
X59188055Y-49298849D01*
X59204086Y-49298247D01*
X59208559Y-49298079D01*
X59217692Y-49297736D01*
X59226086Y-49294130D01*
X59226089Y-49294129D01*
X59228267Y-49293193D01*
X59249218Y-49286827D01*
X59260537Y-49284719D01*
X59283213Y-49270742D01*
X59296080Y-49264058D01*
X59314126Y-49256305D01*
X59314127Y-49256304D01*
X59320547Y-49253546D01*
X59325433Y-49249532D01*
X59329797Y-49245168D01*
X59347852Y-49230897D01*
X59355832Y-49225978D01*
X59373502Y-49202741D01*
X59382294Y-49192671D01*
X60370470Y-48204495D01*
X60424987Y-48176718D01*
X60440474Y-48175499D01*
X60811875Y-48175498D01*
X60881513Y-48175498D01*
X60885356Y-48174889D01*
X60885361Y-48174889D01*
X60922212Y-48169052D01*
X60975299Y-48160645D01*
X61066246Y-48114305D01*
X61081398Y-48106585D01*
X61081400Y-48106584D01*
X61088337Y-48103049D01*
X61178045Y-48013341D01*
X61182236Y-48005117D01*
X61232105Y-47907243D01*
X61232105Y-47907242D01*
X61235641Y-47900303D01*
X61237032Y-47891525D01*
X61249886Y-47810364D01*
X61249886Y-47810362D01*
X61250495Y-47806518D01*
X61250494Y-47193481D01*
X61235641Y-47099695D01*
X61199013Y-47027808D01*
X61181581Y-46993596D01*
X61181580Y-46993594D01*
X61178045Y-46986657D01*
X61088337Y-46896949D01*
X61081400Y-46893414D01*
X61081398Y-46893413D01*
X60982239Y-46842889D01*
X60982238Y-46842889D01*
X60975299Y-46839353D01*
X60975447Y-46839063D01*
X60929979Y-46806027D01*
X60911073Y-46747836D01*
X60929982Y-46689646D01*
X60979482Y-46653683D01*
X61010061Y-46648839D01*
X61517948Y-46648792D01*
X61576138Y-46667694D01*
G37*
G04 #@! TD.AperFunction*
G04 #@! TA.AperFunction,Conductor*
G36*
X58005474Y-51425222D02*
G01*
X58024995Y-51484249D01*
X58024995Y-52660999D01*
X58006088Y-52719190D01*
X57956588Y-52755154D01*
X57925995Y-52759999D01*
X57599495Y-52759999D01*
X57541304Y-52741092D01*
X57505340Y-52691592D01*
X57500495Y-52660999D01*
X57500495Y-52401039D01*
X57519402Y-52342848D01*
X57568902Y-52306885D01*
X57571999Y-52305879D01*
X57574995Y-52301756D01*
X57574995Y-51669240D01*
X57593902Y-51611049D01*
X57634677Y-51578382D01*
X57708590Y-51546397D01*
X57708591Y-51546396D01*
X57714778Y-51543719D01*
X57745146Y-51519128D01*
X57821428Y-51457356D01*
X57821429Y-51457355D01*
X57826670Y-51453111D01*
X57841911Y-51431665D01*
X57845297Y-51426901D01*
X57894418Y-51390420D01*
X57955600Y-51389779D01*
X58005474Y-51425222D01*
G37*
G04 #@! TD.AperFunction*
G04 #@! TA.AperFunction,Conductor*
G36*
X51246869Y-51417138D02*
G01*
X51254557Y-51425499D01*
X51321879Y-51498711D01*
X51444245Y-51574581D01*
X51453615Y-51577303D01*
X51455521Y-51578599D01*
X51456892Y-51579209D01*
X51456782Y-51579456D01*
X51504219Y-51611692D01*
X51524995Y-51672372D01*
X51524995Y-52660999D01*
X51506088Y-52719190D01*
X51456588Y-52755154D01*
X51425995Y-52759999D01*
X50862161Y-52759999D01*
X50803970Y-52741092D01*
X50768006Y-52691592D01*
X50768006Y-52630406D01*
X50781164Y-52604074D01*
X50848451Y-52508334D01*
X50848451Y-52508333D01*
X50851882Y-52503452D01*
X50902729Y-52373037D01*
X50941482Y-52325689D01*
X50994966Y-52309999D01*
X51059315Y-52309999D01*
X51072000Y-52305877D01*
X51074995Y-52301756D01*
X51074995Y-51484149D01*
X51093902Y-51425958D01*
X51143402Y-51389994D01*
X51204588Y-51389994D01*
X51246869Y-51417138D01*
G37*
G04 #@! TD.AperFunction*
G04 #@! TA.AperFunction,Conductor*
G36*
X43183686Y-47769406D02*
G01*
X43219650Y-47818906D01*
X43224495Y-47849499D01*
X43224495Y-48378833D01*
X43224713Y-48381134D01*
X43224713Y-48381144D01*
X43226627Y-48401387D01*
X43227476Y-48410368D01*
X43272361Y-48538183D01*
X43276756Y-48544134D01*
X43276757Y-48544135D01*
X43332729Y-48619914D01*
X43352845Y-48647149D01*
X43358802Y-48651549D01*
X43450256Y-48719098D01*
X43461811Y-48727633D01*
X43589626Y-48772518D01*
X43595633Y-48773086D01*
X43595634Y-48773086D01*
X43618850Y-48775281D01*
X43618860Y-48775281D01*
X43621161Y-48775499D01*
X44478829Y-48775499D01*
X44481130Y-48775281D01*
X44481140Y-48775281D01*
X44504356Y-48773086D01*
X44504357Y-48773086D01*
X44510364Y-48772518D01*
X44516055Y-48770519D01*
X44516057Y-48770519D01*
X44537799Y-48762884D01*
X44598967Y-48761445D01*
X44640603Y-48786289D01*
X44704809Y-48850495D01*
X44732586Y-48905012D01*
X44723015Y-48965444D01*
X44679750Y-49008709D01*
X44634805Y-49019499D01*
X44155247Y-49019499D01*
X44129000Y-49024720D01*
X44106329Y-49029229D01*
X44106327Y-49029230D01*
X44096764Y-49031132D01*
X44030443Y-49075447D01*
X43986128Y-49141768D01*
X43974495Y-49200251D01*
X43974495Y-49604520D01*
X43955588Y-49662711D01*
X43945499Y-49674524D01*
X43300455Y-50319568D01*
X43245938Y-50347345D01*
X43234166Y-50348494D01*
X43214548Y-50349231D01*
X43209262Y-50349429D01*
X43205551Y-50349499D01*
X43186078Y-50349499D01*
X43181648Y-50350324D01*
X43176455Y-50350660D01*
X43157324Y-50351378D01*
X43155952Y-50351430D01*
X43146817Y-50351773D01*
X43138420Y-50355381D01*
X43138419Y-50355381D01*
X43136238Y-50356318D01*
X43115289Y-50362682D01*
X43112962Y-50363115D01*
X43112957Y-50363117D01*
X43103973Y-50364790D01*
X43081298Y-50378767D01*
X43068430Y-50385451D01*
X43050384Y-50393204D01*
X43050383Y-50393205D01*
X43043963Y-50395963D01*
X43039077Y-50399977D01*
X43034713Y-50404341D01*
X43016658Y-50418612D01*
X43008678Y-50423531D01*
X42991008Y-50446768D01*
X42982216Y-50456838D01*
X42025595Y-51413459D01*
X41971078Y-51441236D01*
X41910646Y-51431665D01*
X41867381Y-51388400D01*
X41857810Y-51327968D01*
X41875804Y-51284846D01*
X41916659Y-51229229D01*
X42027650Y-51078133D01*
X42035636Y-51063426D01*
X42138997Y-50873057D01*
X42164308Y-50826440D01*
X42234500Y-50640683D01*
X42264353Y-50561679D01*
X42264354Y-50561675D01*
X42265543Y-50558529D01*
X42301466Y-50401681D01*
X42328729Y-50282647D01*
X42328730Y-50282640D01*
X42329482Y-50279357D01*
X42330285Y-50270363D01*
X42354769Y-49996021D01*
X42354769Y-49996015D01*
X42354941Y-49994091D01*
X42355188Y-49970518D01*
X42355383Y-49951936D01*
X42355383Y-49951928D01*
X42355403Y-49949999D01*
X42335923Y-49664262D01*
X42301571Y-49498382D01*
X42278528Y-49387109D01*
X42278526Y-49387103D01*
X42277845Y-49383813D01*
X42275274Y-49376551D01*
X42241055Y-49279922D01*
X42182243Y-49113841D01*
X42177487Y-49104626D01*
X42052437Y-48862345D01*
X42052433Y-48862339D01*
X42050886Y-48859341D01*
X42048945Y-48856579D01*
X41888136Y-48627771D01*
X41888131Y-48627765D01*
X41886204Y-48625023D01*
X41691246Y-48415223D01*
X41686712Y-48411512D01*
X41472231Y-48235960D01*
X41472224Y-48235955D01*
X41469618Y-48233822D01*
X41225422Y-48084179D01*
X41216510Y-48080267D01*
X40966260Y-47970414D01*
X40966256Y-47970412D01*
X40963177Y-47969061D01*
X40877696Y-47944711D01*
X40826911Y-47910585D01*
X40805884Y-47853127D01*
X40822647Y-47794282D01*
X40870796Y-47756529D01*
X40904818Y-47750499D01*
X43125495Y-47750499D01*
X43183686Y-47769406D01*
G37*
G04 #@! TD.AperFunction*
G04 #@! TA.AperFunction,Conductor*
G36*
X39650750Y-47769406D02*
G01*
X39686714Y-47818906D01*
X39686714Y-47880092D01*
X39650750Y-47929592D01*
X39618682Y-47944990D01*
X39560853Y-47960810D01*
X39560850Y-47960811D01*
X39557597Y-47961701D01*
X39294160Y-48074067D01*
X39048410Y-48221145D01*
X39045781Y-48223251D01*
X39045777Y-48223254D01*
X38954009Y-48296774D01*
X38824895Y-48400214D01*
X38822571Y-48402663D01*
X38644680Y-48590121D01*
X38627750Y-48607961D01*
X38625782Y-48610700D01*
X38625781Y-48610701D01*
X38615490Y-48625023D01*
X38460624Y-48840542D01*
X38326609Y-49093652D01*
X38325449Y-49096821D01*
X38325448Y-49096824D01*
X38305501Y-49151333D01*
X38228185Y-49362609D01*
X38209131Y-49449999D01*
X38170866Y-49625499D01*
X38167173Y-49642435D01*
X38144702Y-49927952D01*
X38144896Y-49931317D01*
X38144896Y-49931321D01*
X38146419Y-49957731D01*
X38130892Y-50016914D01*
X38083545Y-50055667D01*
X38022461Y-50059189D01*
X37977579Y-50033434D01*
X37500944Y-49556799D01*
X37473167Y-49502282D01*
X37473321Y-49470365D01*
X37474035Y-49466124D01*
X37474036Y-49466118D01*
X37474669Y-49462353D01*
X37474820Y-49449999D01*
X37454496Y-49308081D01*
X37417166Y-49225978D01*
X37398078Y-49183995D01*
X37398077Y-49183994D01*
X37395157Y-49177571D01*
X37301573Y-49068962D01*
X37181268Y-48990984D01*
X37043912Y-48949906D01*
X36960670Y-48949397D01*
X36907600Y-48949073D01*
X36907599Y-48949073D01*
X36900549Y-48949030D01*
X36893772Y-48950967D01*
X36893771Y-48950967D01*
X36864493Y-48959335D01*
X36816134Y-48973156D01*
X36754989Y-48970967D01*
X36706807Y-48933256D01*
X36689993Y-48874426D01*
X36710235Y-48818964D01*
X36710006Y-48818801D01*
X36710596Y-48817974D01*
X36710970Y-48816949D01*
X36712813Y-48814866D01*
X36714758Y-48812139D01*
X36720538Y-48806349D01*
X36771781Y-48701517D01*
X36772890Y-48693915D01*
X36772891Y-48693912D01*
X36781228Y-48636762D01*
X36781228Y-48636760D01*
X36781745Y-48633217D01*
X36781745Y-48266781D01*
X36779486Y-48251431D01*
X36772724Y-48205500D01*
X36772723Y-48205498D01*
X36771603Y-48197887D01*
X36758496Y-48171190D01*
X36731168Y-48115530D01*
X36722494Y-48054963D01*
X36750031Y-48001895D01*
X36972431Y-47779495D01*
X37026948Y-47751718D01*
X37042435Y-47750499D01*
X39592559Y-47750499D01*
X39650750Y-47769406D01*
G37*
G04 #@! TD.AperFunction*
G04 #@! TA.AperFunction,Conductor*
G36*
X49586442Y-46667906D02*
G01*
X49622406Y-46717406D01*
X49622406Y-46778592D01*
X49613686Y-46796042D01*
X49614360Y-46796403D01*
X49611540Y-46801663D01*
X49608108Y-46806546D01*
X49583437Y-46869823D01*
X49548690Y-46958945D01*
X49546519Y-46964512D01*
X49545740Y-46970427D01*
X49545740Y-46970428D01*
X49537642Y-47031940D01*
X49529495Y-47093825D01*
X49529495Y-47782515D01*
X49530337Y-47789475D01*
X49543552Y-47898672D01*
X49544719Y-47908319D01*
X49604650Y-48066922D01*
X49616351Y-48083947D01*
X49633728Y-48142609D01*
X49613305Y-48200285D01*
X49562881Y-48234942D01*
X49534762Y-48239019D01*
X47925705Y-48239019D01*
X47867514Y-48220112D01*
X47855701Y-48210023D01*
X47704491Y-48058813D01*
X47676714Y-48004296D01*
X47675495Y-47988809D01*
X47675495Y-47021165D01*
X47673721Y-47002393D01*
X47673082Y-46995638D01*
X47673082Y-46995637D01*
X47672514Y-46989630D01*
X47627629Y-46861815D01*
X47616748Y-46847083D01*
X47587007Y-46806817D01*
X47567643Y-46748776D01*
X47586093Y-46690439D01*
X47635309Y-46654088D01*
X47666640Y-46648999D01*
X49528251Y-46648999D01*
X49586442Y-46667906D01*
G37*
G04 #@! TD.AperFunction*
G04 #@! TD*
M02*
