G04 #@! TF.GenerationSoftware,KiCad,Pcbnew,6.0.0-rc1-1.20211210git84e0fee.fc34*
G04 #@! TF.CreationDate,2021-12-15T09:31:59+00:00*
G04 #@! TF.ProjectId,panel,70616e65-6c2e-46b6-9963-61645f706362,rev?*
G04 #@! TF.SameCoordinates,Original*
G04 #@! TF.FileFunction,Soldermask,Bot*
G04 #@! TF.FilePolarity,Negative*
%FSLAX46Y46*%
G04 Gerber Fmt 4.6, Leading zero omitted, Abs format (unit mm)*
G04 Created by KiCad (PCBNEW 6.0.0-rc1-1.20211210git84e0fee.fc34) date 2021-12-15 09:31:59*
%MOMM*%
%LPD*%
G01*
G04 APERTURE LIST*
%ADD10C,0.010000*%
%ADD11C,0.500000*%
%ADD12C,3.800000*%
%ADD13C,0.650000*%
%ADD14O,1.000000X2.100000*%
%ADD15O,1.000000X1.600000*%
G04 APERTURE END LIST*
D10*
G04 #@! TO.C,Ref\u002A\u002A*
X32834099Y-50536179D02*
X32838437Y-50595111D01*
X32838437Y-50595111D02*
X32842131Y-50688550D01*
X32842131Y-50688550D02*
X32845077Y-50812582D01*
X32845077Y-50812582D02*
X32847172Y-50963296D01*
X32847172Y-50963296D02*
X32848312Y-51136780D01*
X32848312Y-51136780D02*
X32848495Y-51245916D01*
X32848495Y-51245916D02*
X32848053Y-51416940D01*
X32848053Y-51416940D02*
X32846795Y-51573715D01*
X32846795Y-51573715D02*
X32844826Y-51711418D01*
X32844826Y-51711418D02*
X32842252Y-51825228D01*
X32842252Y-51825228D02*
X32839178Y-51910326D01*
X32839178Y-51910326D02*
X32835707Y-51961889D01*
X32835707Y-51961889D02*
X32832620Y-51975766D01*
X32832620Y-51975766D02*
X32809715Y-51965499D01*
X32809715Y-51965499D02*
X32757028Y-51937455D01*
X32757028Y-51937455D02*
X32681261Y-51895331D01*
X32681261Y-51895331D02*
X32589114Y-51842825D01*
X32589114Y-51842825D02*
X32535856Y-51812011D01*
X32535856Y-51812011D02*
X32254967Y-51648657D01*
X32254967Y-51648657D02*
X32260689Y-51238375D01*
X32260689Y-51238375D02*
X32266412Y-50828094D01*
X32266412Y-50828094D02*
X32538178Y-50671880D01*
X32538178Y-50671880D02*
X32635093Y-50616885D01*
X32635093Y-50616885D02*
X32719429Y-50570370D01*
X32719429Y-50570370D02*
X32784226Y-50536070D01*
X32784226Y-50536070D02*
X32822523Y-50517723D01*
X32822523Y-50517723D02*
X32829219Y-50515666D01*
X32829219Y-50515666D02*
X32834099Y-50536179D01*
X32834099Y-50536179D02*
X32834099Y-50536179D01*
G36*
X32834099Y-50536179D02*
G01*
X32838437Y-50595111D01*
X32842131Y-50688550D01*
X32845077Y-50812582D01*
X32847172Y-50963296D01*
X32848312Y-51136780D01*
X32848495Y-51245916D01*
X32848053Y-51416940D01*
X32846795Y-51573715D01*
X32844826Y-51711418D01*
X32842252Y-51825228D01*
X32839178Y-51910326D01*
X32835707Y-51961889D01*
X32832620Y-51975766D01*
X32809715Y-51965499D01*
X32757028Y-51937455D01*
X32681261Y-51895331D01*
X32589114Y-51842825D01*
X32535856Y-51812011D01*
X32254967Y-51648657D01*
X32260689Y-51238375D01*
X32266412Y-50828094D01*
X32538178Y-50671880D01*
X32635093Y-50616885D01*
X32719429Y-50570370D01*
X32784226Y-50536070D01*
X32822523Y-50517723D01*
X32829219Y-50515666D01*
X32834099Y-50536179D01*
G37*
X32834099Y-50536179D02*
X32838437Y-50595111D01*
X32842131Y-50688550D01*
X32845077Y-50812582D01*
X32847172Y-50963296D01*
X32848312Y-51136780D01*
X32848495Y-51245916D01*
X32848053Y-51416940D01*
X32846795Y-51573715D01*
X32844826Y-51711418D01*
X32842252Y-51825228D01*
X32839178Y-51910326D01*
X32835707Y-51961889D01*
X32832620Y-51975766D01*
X32809715Y-51965499D01*
X32757028Y-51937455D01*
X32681261Y-51895331D01*
X32589114Y-51842825D01*
X32535856Y-51812011D01*
X32254967Y-51648657D01*
X32260689Y-51238375D01*
X32266412Y-50828094D01*
X32538178Y-50671880D01*
X32635093Y-50616885D01*
X32719429Y-50570370D01*
X32784226Y-50536070D01*
X32822523Y-50517723D01*
X32829219Y-50515666D01*
X32834099Y-50536179D01*
X34450974Y-48672985D02*
X34453026Y-48728242D01*
X34453026Y-48728242D02*
X34453883Y-48811720D01*
X34453883Y-48811720D02*
X34453450Y-48916369D01*
X34453450Y-48916369D02*
X34452394Y-48994689D01*
X34452394Y-48994689D02*
X34446579Y-49336378D01*
X34446579Y-49336378D02*
X33654165Y-49785416D01*
X33654165Y-49785416D02*
X33652829Y-51648898D01*
X33652829Y-51648898D02*
X33369485Y-51812532D01*
X33369485Y-51812532D02*
X33271129Y-51868880D01*
X33271129Y-51868880D02*
X33185914Y-51916843D01*
X33185914Y-51916843D02*
X33120436Y-51952774D01*
X33120436Y-51952774D02*
X33081293Y-51973029D01*
X33081293Y-51973029D02*
X33073374Y-51976166D01*
X33073374Y-51976166D02*
X33070574Y-51955716D01*
X33070574Y-51955716D02*
X33067736Y-51897236D01*
X33067736Y-51897236D02*
X33064947Y-51805026D01*
X33064947Y-51805026D02*
X33062290Y-51683390D01*
X33062290Y-51683390D02*
X33059853Y-51536629D01*
X33059853Y-51536629D02*
X33057721Y-51369046D01*
X33057721Y-51369046D02*
X33055979Y-51184942D01*
X33055979Y-51184942D02*
X33055093Y-51057788D01*
X33055093Y-51057788D02*
X33049579Y-50139410D01*
X33049579Y-50139410D02*
X32615662Y-50390680D01*
X32615662Y-50390680D02*
X32491965Y-50461554D01*
X32491965Y-50461554D02*
X32379302Y-50524674D01*
X32379302Y-50524674D02*
X32283180Y-50577069D01*
X32283180Y-50577069D02*
X32209107Y-50615770D01*
X32209107Y-50615770D02*
X32162589Y-50637807D01*
X32162589Y-50637807D02*
X32149995Y-50641799D01*
X32149995Y-50641799D02*
X32123351Y-50631514D01*
X32123351Y-50631514D02*
X32065731Y-50602729D01*
X32065731Y-50602729D02*
X31982644Y-50558417D01*
X31982644Y-50558417D02*
X31879596Y-50501553D01*
X31879596Y-50501553D02*
X31762095Y-50435110D01*
X31762095Y-50435110D02*
X31684329Y-50390367D01*
X31684329Y-50390367D02*
X31250412Y-50139085D01*
X31250412Y-50139085D02*
X31244898Y-51057625D01*
X31244898Y-51057625D02*
X31243255Y-51288787D01*
X31243255Y-51288787D02*
X31241282Y-51480597D01*
X31241282Y-51480597D02*
X31238875Y-51636039D01*
X31238875Y-51636039D02*
X31235932Y-51758095D01*
X31235932Y-51758095D02*
X31232347Y-51849745D01*
X31232347Y-51849745D02*
X31228020Y-51913973D01*
X31228020Y-51913973D02*
X31222845Y-51953760D01*
X31222845Y-51953760D02*
X31216720Y-51972088D01*
X31216720Y-51972088D02*
X31213148Y-51974130D01*
X31213148Y-51974130D02*
X31186514Y-51963004D01*
X31186514Y-51963004D02*
X31130839Y-51933751D01*
X31130839Y-51933751D02*
X31053219Y-51890292D01*
X31053219Y-51890292D02*
X30960751Y-51836547D01*
X30960751Y-51836547D02*
X30917037Y-51810559D01*
X30917037Y-51810559D02*
X30647162Y-51649023D01*
X30647162Y-51649023D02*
X30646841Y-50717219D01*
X30646841Y-50717219D02*
X30646520Y-49785416D01*
X30646520Y-49785416D02*
X29844240Y-49340916D01*
X29844240Y-49340916D02*
X29843534Y-48996958D01*
X29843534Y-48996958D02*
X29843917Y-48881665D01*
X29843917Y-48881665D02*
X29845428Y-48782808D01*
X29845428Y-48782808D02*
X29847863Y-48707418D01*
X29847863Y-48707418D02*
X29851020Y-48662522D01*
X29851020Y-48662522D02*
X29853488Y-48652999D01*
X29853488Y-48652999D02*
X29873217Y-48663277D01*
X29873217Y-48663277D02*
X29926468Y-48692913D01*
X29926468Y-48692913D02*
X30010092Y-48740112D01*
X30010092Y-48740112D02*
X30120942Y-48803078D01*
X30120942Y-48803078D02*
X30255869Y-48880017D01*
X30255869Y-48880017D02*
X30411727Y-48969132D01*
X30411727Y-48969132D02*
X30585367Y-49068629D01*
X30585367Y-49068629D02*
X30773641Y-49176712D01*
X30773641Y-49176712D02*
X30973402Y-49291585D01*
X30973402Y-49291585D02*
X31007013Y-49310931D01*
X31007013Y-49310931D02*
X32149878Y-49968864D01*
X32149878Y-49968864D02*
X33293655Y-49310931D01*
X33293655Y-49310931D02*
X33495091Y-49195153D01*
X33495091Y-49195153D02*
X33685547Y-49085866D01*
X33685547Y-49085866D02*
X33861878Y-48984864D01*
X33861878Y-48984864D02*
X34020935Y-48893942D01*
X34020935Y-48893942D02*
X34159573Y-48814892D01*
X34159573Y-48814892D02*
X34274646Y-48749508D01*
X34274646Y-48749508D02*
X34363005Y-48699584D01*
X34363005Y-48699584D02*
X34421506Y-48666914D01*
X34421506Y-48666914D02*
X34447001Y-48653292D01*
X34447001Y-48653292D02*
X34447821Y-48652999D01*
X34447821Y-48652999D02*
X34450974Y-48672985D01*
X34450974Y-48672985D02*
X34450974Y-48672985D01*
G36*
X34450974Y-48672985D02*
G01*
X34453026Y-48728242D01*
X34453883Y-48811720D01*
X34453450Y-48916369D01*
X34452394Y-48994689D01*
X34446579Y-49336378D01*
X33654165Y-49785416D01*
X33652829Y-51648898D01*
X33369485Y-51812532D01*
X33271129Y-51868880D01*
X33185914Y-51916843D01*
X33120436Y-51952774D01*
X33081293Y-51973029D01*
X33073374Y-51976166D01*
X33070574Y-51955716D01*
X33067736Y-51897236D01*
X33064947Y-51805026D01*
X33062290Y-51683390D01*
X33059853Y-51536629D01*
X33057721Y-51369046D01*
X33055979Y-51184942D01*
X33055093Y-51057788D01*
X33049579Y-50139410D01*
X32615662Y-50390680D01*
X32491965Y-50461554D01*
X32379302Y-50524674D01*
X32283180Y-50577069D01*
X32209107Y-50615770D01*
X32162589Y-50637807D01*
X32149995Y-50641799D01*
X32123351Y-50631514D01*
X32065731Y-50602729D01*
X31982644Y-50558417D01*
X31879596Y-50501553D01*
X31762095Y-50435110D01*
X31684329Y-50390367D01*
X31250412Y-50139085D01*
X31244898Y-51057625D01*
X31243255Y-51288787D01*
X31241282Y-51480597D01*
X31238875Y-51636039D01*
X31235932Y-51758095D01*
X31232347Y-51849745D01*
X31228020Y-51913973D01*
X31222845Y-51953760D01*
X31216720Y-51972088D01*
X31213148Y-51974130D01*
X31186514Y-51963004D01*
X31130839Y-51933751D01*
X31053219Y-51890292D01*
X30960751Y-51836547D01*
X30917037Y-51810559D01*
X30647162Y-51649023D01*
X30646841Y-50717219D01*
X30646520Y-49785416D01*
X29844240Y-49340916D01*
X29843534Y-48996958D01*
X29843917Y-48881665D01*
X29845428Y-48782808D01*
X29847863Y-48707418D01*
X29851020Y-48662522D01*
X29853488Y-48652999D01*
X29873217Y-48663277D01*
X29926468Y-48692913D01*
X30010092Y-48740112D01*
X30120942Y-48803078D01*
X30255869Y-48880017D01*
X30411727Y-48969132D01*
X30585367Y-49068629D01*
X30773641Y-49176712D01*
X30973402Y-49291585D01*
X31007013Y-49310931D01*
X32149878Y-49968864D01*
X33293655Y-49310931D01*
X33495091Y-49195153D01*
X33685547Y-49085866D01*
X33861878Y-48984864D01*
X34020935Y-48893942D01*
X34159573Y-48814892D01*
X34274646Y-48749508D01*
X34363005Y-48699584D01*
X34421506Y-48666914D01*
X34447001Y-48653292D01*
X34447821Y-48652999D01*
X34450974Y-48672985D01*
G37*
X34450974Y-48672985D02*
X34453026Y-48728242D01*
X34453883Y-48811720D01*
X34453450Y-48916369D01*
X34452394Y-48994689D01*
X34446579Y-49336378D01*
X33654165Y-49785416D01*
X33652829Y-51648898D01*
X33369485Y-51812532D01*
X33271129Y-51868880D01*
X33185914Y-51916843D01*
X33120436Y-51952774D01*
X33081293Y-51973029D01*
X33073374Y-51976166D01*
X33070574Y-51955716D01*
X33067736Y-51897236D01*
X33064947Y-51805026D01*
X33062290Y-51683390D01*
X33059853Y-51536629D01*
X33057721Y-51369046D01*
X33055979Y-51184942D01*
X33055093Y-51057788D01*
X33049579Y-50139410D01*
X32615662Y-50390680D01*
X32491965Y-50461554D01*
X32379302Y-50524674D01*
X32283180Y-50577069D01*
X32209107Y-50615770D01*
X32162589Y-50637807D01*
X32149995Y-50641799D01*
X32123351Y-50631514D01*
X32065731Y-50602729D01*
X31982644Y-50558417D01*
X31879596Y-50501553D01*
X31762095Y-50435110D01*
X31684329Y-50390367D01*
X31250412Y-50139085D01*
X31244898Y-51057625D01*
X31243255Y-51288787D01*
X31241282Y-51480597D01*
X31238875Y-51636039D01*
X31235932Y-51758095D01*
X31232347Y-51849745D01*
X31228020Y-51913973D01*
X31222845Y-51953760D01*
X31216720Y-51972088D01*
X31213148Y-51974130D01*
X31186514Y-51963004D01*
X31130839Y-51933751D01*
X31053219Y-51890292D01*
X30960751Y-51836547D01*
X30917037Y-51810559D01*
X30647162Y-51649023D01*
X30646841Y-50717219D01*
X30646520Y-49785416D01*
X29844240Y-49340916D01*
X29843534Y-48996958D01*
X29843917Y-48881665D01*
X29845428Y-48782808D01*
X29847863Y-48707418D01*
X29851020Y-48662522D01*
X29853488Y-48652999D01*
X29873217Y-48663277D01*
X29926468Y-48692913D01*
X30010092Y-48740112D01*
X30120942Y-48803078D01*
X30255869Y-48880017D01*
X30411727Y-48969132D01*
X30585367Y-49068629D01*
X30773641Y-49176712D01*
X30973402Y-49291585D01*
X31007013Y-49310931D01*
X32149878Y-49968864D01*
X33293655Y-49310931D01*
X33495091Y-49195153D01*
X33685547Y-49085866D01*
X33861878Y-48984864D01*
X34020935Y-48893942D01*
X34159573Y-48814892D01*
X34274646Y-48749508D01*
X34363005Y-48699584D01*
X34421506Y-48666914D01*
X34447001Y-48653292D01*
X34447821Y-48652999D01*
X34450974Y-48672985D01*
X31489010Y-50525616D02*
X31541633Y-50553047D01*
X31541633Y-50553047D02*
X31617509Y-50594330D01*
X31617509Y-50594330D02*
X31709918Y-50645835D01*
X31709918Y-50645835D02*
X31762694Y-50675692D01*
X31762694Y-50675692D02*
X32044162Y-50835719D01*
X32044162Y-50835719D02*
X32043372Y-51648083D01*
X32043372Y-51648083D02*
X31759045Y-51812124D01*
X31759045Y-51812124D02*
X31660604Y-51868509D01*
X31660604Y-51868509D02*
X31575414Y-51916528D01*
X31575414Y-51916528D02*
X31510029Y-51952546D01*
X31510029Y-51952546D02*
X31471004Y-51972932D01*
X31471004Y-51972932D02*
X31463107Y-51976166D01*
X31463107Y-51976166D02*
X31460387Y-51955803D01*
X31460387Y-51955803D02*
X31457893Y-51897932D01*
X31457893Y-51897932D02*
X31455703Y-51807378D01*
X31455703Y-51807378D02*
X31453892Y-51688963D01*
X31453892Y-51688963D02*
X31452538Y-51547514D01*
X31452538Y-51547514D02*
X31451717Y-51387855D01*
X31451717Y-51387855D02*
X31451495Y-51245916D01*
X31451495Y-51245916D02*
X31451910Y-51074870D01*
X31451910Y-51074870D02*
X31453088Y-50918056D01*
X31453088Y-50918056D02*
X31454931Y-50780298D01*
X31454931Y-50780298D02*
X31457342Y-50666421D01*
X31457342Y-50666421D02*
X31460221Y-50581250D01*
X31460221Y-50581250D02*
X31463472Y-50529608D01*
X31463472Y-50529608D02*
X31466361Y-50515666D01*
X31466361Y-50515666D02*
X31489010Y-50525616D01*
X31489010Y-50525616D02*
X31489010Y-50525616D01*
G36*
X31489010Y-50525616D02*
G01*
X31541633Y-50553047D01*
X31617509Y-50594330D01*
X31709918Y-50645835D01*
X31762694Y-50675692D01*
X32044162Y-50835719D01*
X32043372Y-51648083D01*
X31759045Y-51812124D01*
X31660604Y-51868509D01*
X31575414Y-51916528D01*
X31510029Y-51952546D01*
X31471004Y-51972932D01*
X31463107Y-51976166D01*
X31460387Y-51955803D01*
X31457893Y-51897932D01*
X31455703Y-51807378D01*
X31453892Y-51688963D01*
X31452538Y-51547514D01*
X31451717Y-51387855D01*
X31451495Y-51245916D01*
X31451910Y-51074870D01*
X31453088Y-50918056D01*
X31454931Y-50780298D01*
X31457342Y-50666421D01*
X31460221Y-50581250D01*
X31463472Y-50529608D01*
X31466361Y-50515666D01*
X31489010Y-50525616D01*
G37*
X31489010Y-50525616D02*
X31541633Y-50553047D01*
X31617509Y-50594330D01*
X31709918Y-50645835D01*
X31762694Y-50675692D01*
X32044162Y-50835719D01*
X32043372Y-51648083D01*
X31759045Y-51812124D01*
X31660604Y-51868509D01*
X31575414Y-51916528D01*
X31510029Y-51952546D01*
X31471004Y-51972932D01*
X31463107Y-51976166D01*
X31460387Y-51955803D01*
X31457893Y-51897932D01*
X31455703Y-51807378D01*
X31453892Y-51688963D01*
X31452538Y-51547514D01*
X31451717Y-51387855D01*
X31451495Y-51245916D01*
X31451910Y-51074870D01*
X31453088Y-50918056D01*
X31454931Y-50780298D01*
X31457342Y-50666421D01*
X31460221Y-50581250D01*
X31463472Y-50529608D01*
X31466361Y-50515666D01*
X31489010Y-50525616D01*
X33798509Y-48133921D02*
X33853989Y-48161149D01*
X33853989Y-48161149D02*
X33928405Y-48200956D01*
X33928405Y-48200956D02*
X34013891Y-48248784D01*
X34013891Y-48248784D02*
X34102581Y-48300073D01*
X34102581Y-48300073D02*
X34186612Y-48350265D01*
X34186612Y-48350265D02*
X34258117Y-48394800D01*
X34258117Y-48394800D02*
X34309231Y-48429119D01*
X34309231Y-48429119D02*
X34332090Y-48448664D01*
X34332090Y-48448664D02*
X34332595Y-48450040D01*
X34332595Y-48450040D02*
X34315125Y-48463966D01*
X34315125Y-48463966D02*
X34264713Y-48496483D01*
X34264713Y-48496483D02*
X34185262Y-48545337D01*
X34185262Y-48545337D02*
X34080674Y-48608273D01*
X34080674Y-48608273D02*
X33954853Y-48683038D01*
X33954853Y-48683038D02*
X33811702Y-48767377D01*
X33811702Y-48767377D02*
X33655124Y-48859037D01*
X33655124Y-48859037D02*
X33489023Y-48955763D01*
X33489023Y-48955763D02*
X33317301Y-49055301D01*
X33317301Y-49055301D02*
X33143861Y-49155396D01*
X33143861Y-49155396D02*
X32972607Y-49253796D01*
X32972607Y-49253796D02*
X32807442Y-49348245D01*
X32807442Y-49348245D02*
X32652268Y-49436490D01*
X32652268Y-49436490D02*
X32510990Y-49516276D01*
X32510990Y-49516276D02*
X32387509Y-49585349D01*
X32387509Y-49585349D02*
X32285730Y-49641455D01*
X32285730Y-49641455D02*
X32209555Y-49682341D01*
X32209555Y-49682341D02*
X32162887Y-49705751D01*
X32162887Y-49705751D02*
X32149995Y-49710538D01*
X32149995Y-49710538D02*
X32126319Y-49700208D01*
X32126319Y-49700208D02*
X32069356Y-49670512D01*
X32069356Y-49670512D02*
X31982444Y-49623318D01*
X31982444Y-49623318D02*
X31868920Y-49560490D01*
X31868920Y-49560490D02*
X31732122Y-49483898D01*
X31732122Y-49483898D02*
X31575385Y-49395408D01*
X31575385Y-49395408D02*
X31402047Y-49296887D01*
X31402047Y-49296887D02*
X31215445Y-49190201D01*
X31215445Y-49190201D02*
X31049329Y-49094742D01*
X31049329Y-49094742D02*
X30854401Y-48982365D01*
X30854401Y-48982365D02*
X30670343Y-48876052D01*
X30670343Y-48876052D02*
X30500445Y-48777717D01*
X30500445Y-48777717D02*
X30347997Y-48689275D01*
X30347997Y-48689275D02*
X30216290Y-48612639D01*
X30216290Y-48612639D02*
X30108615Y-48549724D01*
X30108615Y-48549724D02*
X30028262Y-48502444D01*
X30028262Y-48502444D02*
X29978522Y-48472714D01*
X29978522Y-48472714D02*
X29962767Y-48462668D01*
X29962767Y-48462668D02*
X29974826Y-48448341D01*
X29974826Y-48448341D02*
X30016694Y-48418125D01*
X30016694Y-48418125D02*
X30080998Y-48376366D01*
X30080998Y-48376366D02*
X30160367Y-48327412D01*
X30160367Y-48327412D02*
X30247425Y-48275611D01*
X30247425Y-48275611D02*
X30334802Y-48225312D01*
X30334802Y-48225312D02*
X30415123Y-48180861D01*
X30415123Y-48180861D02*
X30481017Y-48146607D01*
X30481017Y-48146607D02*
X30525109Y-48126898D01*
X30525109Y-48126898D02*
X30537357Y-48123833D01*
X30537357Y-48123833D02*
X30559585Y-48134062D01*
X30559585Y-48134062D02*
X30614611Y-48163314D01*
X30614611Y-48163314D02*
X30698581Y-48209428D01*
X30698581Y-48209428D02*
X30807638Y-48270249D01*
X30807638Y-48270249D02*
X30937927Y-48343617D01*
X30937927Y-48343617D02*
X31085592Y-48427376D01*
X31085592Y-48427376D02*
X31246776Y-48519366D01*
X31246776Y-48519366D02*
X31354222Y-48580974D01*
X31354222Y-48580974D02*
X32150068Y-49038116D01*
X32150068Y-49038116D02*
X32946256Y-48580974D01*
X32946256Y-48580974D02*
X33114313Y-48484834D01*
X33114313Y-48484834D02*
X33271541Y-48395567D01*
X33271541Y-48395567D02*
X33414047Y-48315333D01*
X33414047Y-48315333D02*
X33537938Y-48246293D01*
X33537938Y-48246293D02*
X33639320Y-48190609D01*
X33639320Y-48190609D02*
X33714300Y-48150441D01*
X33714300Y-48150441D02*
X33758984Y-48127952D01*
X33758984Y-48127952D02*
X33769829Y-48123833D01*
X33769829Y-48123833D02*
X33798509Y-48133921D01*
X33798509Y-48133921D02*
X33798509Y-48133921D01*
G36*
X33798509Y-48133921D02*
G01*
X33853989Y-48161149D01*
X33928405Y-48200956D01*
X34013891Y-48248784D01*
X34102581Y-48300073D01*
X34186612Y-48350265D01*
X34258117Y-48394800D01*
X34309231Y-48429119D01*
X34332090Y-48448664D01*
X34332595Y-48450040D01*
X34315125Y-48463966D01*
X34264713Y-48496483D01*
X34185262Y-48545337D01*
X34080674Y-48608273D01*
X33954853Y-48683038D01*
X33811702Y-48767377D01*
X33655124Y-48859037D01*
X33489023Y-48955763D01*
X33317301Y-49055301D01*
X33143861Y-49155396D01*
X32972607Y-49253796D01*
X32807442Y-49348245D01*
X32652268Y-49436490D01*
X32510990Y-49516276D01*
X32387509Y-49585349D01*
X32285730Y-49641455D01*
X32209555Y-49682341D01*
X32162887Y-49705751D01*
X32149995Y-49710538D01*
X32126319Y-49700208D01*
X32069356Y-49670512D01*
X31982444Y-49623318D01*
X31868920Y-49560490D01*
X31732122Y-49483898D01*
X31575385Y-49395408D01*
X31402047Y-49296887D01*
X31215445Y-49190201D01*
X31049329Y-49094742D01*
X30854401Y-48982365D01*
X30670343Y-48876052D01*
X30500445Y-48777717D01*
X30347997Y-48689275D01*
X30216290Y-48612639D01*
X30108615Y-48549724D01*
X30028262Y-48502444D01*
X29978522Y-48472714D01*
X29962767Y-48462668D01*
X29974826Y-48448341D01*
X30016694Y-48418125D01*
X30080998Y-48376366D01*
X30160367Y-48327412D01*
X30247425Y-48275611D01*
X30334802Y-48225312D01*
X30415123Y-48180861D01*
X30481017Y-48146607D01*
X30525109Y-48126898D01*
X30537357Y-48123833D01*
X30559585Y-48134062D01*
X30614611Y-48163314D01*
X30698581Y-48209428D01*
X30807638Y-48270249D01*
X30937927Y-48343617D01*
X31085592Y-48427376D01*
X31246776Y-48519366D01*
X31354222Y-48580974D01*
X32150068Y-49038116D01*
X32946256Y-48580974D01*
X33114313Y-48484834D01*
X33271541Y-48395567D01*
X33414047Y-48315333D01*
X33537938Y-48246293D01*
X33639320Y-48190609D01*
X33714300Y-48150441D01*
X33758984Y-48127952D01*
X33769829Y-48123833D01*
X33798509Y-48133921D01*
G37*
X33798509Y-48133921D02*
X33853989Y-48161149D01*
X33928405Y-48200956D01*
X34013891Y-48248784D01*
X34102581Y-48300073D01*
X34186612Y-48350265D01*
X34258117Y-48394800D01*
X34309231Y-48429119D01*
X34332090Y-48448664D01*
X34332595Y-48450040D01*
X34315125Y-48463966D01*
X34264713Y-48496483D01*
X34185262Y-48545337D01*
X34080674Y-48608273D01*
X33954853Y-48683038D01*
X33811702Y-48767377D01*
X33655124Y-48859037D01*
X33489023Y-48955763D01*
X33317301Y-49055301D01*
X33143861Y-49155396D01*
X32972607Y-49253796D01*
X32807442Y-49348245D01*
X32652268Y-49436490D01*
X32510990Y-49516276D01*
X32387509Y-49585349D01*
X32285730Y-49641455D01*
X32209555Y-49682341D01*
X32162887Y-49705751D01*
X32149995Y-49710538D01*
X32126319Y-49700208D01*
X32069356Y-49670512D01*
X31982444Y-49623318D01*
X31868920Y-49560490D01*
X31732122Y-49483898D01*
X31575385Y-49395408D01*
X31402047Y-49296887D01*
X31215445Y-49190201D01*
X31049329Y-49094742D01*
X30854401Y-48982365D01*
X30670343Y-48876052D01*
X30500445Y-48777717D01*
X30347997Y-48689275D01*
X30216290Y-48612639D01*
X30108615Y-48549724D01*
X30028262Y-48502444D01*
X29978522Y-48472714D01*
X29962767Y-48462668D01*
X29974826Y-48448341D01*
X30016694Y-48418125D01*
X30080998Y-48376366D01*
X30160367Y-48327412D01*
X30247425Y-48275611D01*
X30334802Y-48225312D01*
X30415123Y-48180861D01*
X30481017Y-48146607D01*
X30525109Y-48126898D01*
X30537357Y-48123833D01*
X30559585Y-48134062D01*
X30614611Y-48163314D01*
X30698581Y-48209428D01*
X30807638Y-48270249D01*
X30937927Y-48343617D01*
X31085592Y-48427376D01*
X31246776Y-48519366D01*
X31354222Y-48580974D01*
X32150068Y-49038116D01*
X32946256Y-48580974D01*
X33114313Y-48484834D01*
X33271541Y-48395567D01*
X33414047Y-48315333D01*
X33537938Y-48246293D01*
X33639320Y-48190609D01*
X33714300Y-48150441D01*
X33758984Y-48127952D01*
X33769829Y-48123833D01*
X33798509Y-48133921D01*
G04 #@! TD*
D11*
G04 #@! TO.C,REF\u002A\u002A*
X35001387Y-53249000D03*
G04 #@! TD*
G04 #@! TO.C,REF\u002A\u002A*
X35001387Y-46650999D03*
G04 #@! TD*
D12*
G04 #@! TO.C,H1*
X40249995Y-49949999D03*
G04 #@! TD*
G04 #@! TO.C,H2*
X68249995Y-49949999D03*
G04 #@! TD*
D11*
G04 #@! TO.C,REF\u002A\u002A*
X37001387Y-53249000D03*
G04 #@! TD*
G04 #@! TO.C,REF\u002A\u002A*
X62998605Y-53248999D03*
G04 #@! TD*
G04 #@! TO.C,REF\u002A\u002A*
X34001387Y-46650999D03*
G04 #@! TD*
G04 #@! TO.C,REF\u002A\u002A*
X63998605Y-53248999D03*
G04 #@! TD*
G04 #@! TO.C,REF\u002A\u002A*
X64998605Y-53248999D03*
G04 #@! TD*
G04 #@! TO.C,REF\u002A\u002A*
X63998605Y-46650999D03*
G04 #@! TD*
G04 #@! TO.C,REF\u002A\u002A*
X37001387Y-46650999D03*
G04 #@! TD*
G04 #@! TO.C,REF\u002A\u002A*
X65998605Y-46650999D03*
G04 #@! TD*
G04 #@! TO.C,REF\u002A\u002A*
X36001387Y-53249000D03*
G04 #@! TD*
G04 #@! TO.C,REF\u002A\u002A*
X64998605Y-46650999D03*
G04 #@! TD*
G04 #@! TO.C,REF\u002A\u002A*
X36001387Y-46650999D03*
G04 #@! TD*
G04 #@! TO.C,REF\u002A\u002A*
X34001387Y-53249000D03*
G04 #@! TD*
D13*
G04 #@! TO.C,J2*
X57439995Y-51089999D03*
X51659995Y-51089999D03*
D14*
X58869995Y-51619999D03*
D15*
X50229995Y-47439999D03*
D14*
X50229995Y-51619999D03*
D15*
X58869995Y-47439999D03*
G04 #@! TD*
D11*
G04 #@! TO.C,REF\u002A\u002A*
X65998605Y-53248999D03*
G04 #@! TD*
G04 #@! TO.C,REF\u002A\u002A*
X62998605Y-46650999D03*
G04 #@! TD*
M02*
