G04 #@! TF.GenerationSoftware,KiCad,Pcbnew,6.0.0-rc1-1.20211210git84e0fee.fc34*
G04 #@! TF.CreationDate,2021-12-15T09:31:59+00:00*
G04 #@! TF.ProjectId,panel,70616e65-6c2e-46b6-9963-61645f706362,rev?*
G04 #@! TF.SameCoordinates,Original*
G04 #@! TF.FileFunction,Soldermask,Top*
G04 #@! TF.FilePolarity,Negative*
%FSLAX46Y46*%
G04 Gerber Fmt 4.6, Leading zero omitted, Abs format (unit mm)*
G04 Created by KiCad (PCBNEW 6.0.0-rc1-1.20211210git84e0fee.fc34) date 2021-12-15 09:31:59*
%MOMM*%
%LPD*%
G01*
G04 APERTURE LIST*
G04 Aperture macros list*
%AMRoundRect*
0 Rectangle with rounded corners*
0 $1 Rounding radius*
0 $2 $3 $4 $5 $6 $7 $8 $9 X,Y pos of 4 corners*
0 Add a 4 corners polygon primitive as box body*
4,1,4,$2,$3,$4,$5,$6,$7,$8,$9,$2,$3,0*
0 Add four circle primitives for the rounded corners*
1,1,$1+$1,$2,$3*
1,1,$1+$1,$4,$5*
1,1,$1+$1,$6,$7*
1,1,$1+$1,$8,$9*
0 Add four rect primitives between the rounded corners*
20,1,$1+$1,$2,$3,$4,$5,0*
20,1,$1+$1,$4,$5,$6,$7,0*
20,1,$1+$1,$6,$7,$8,$9,0*
20,1,$1+$1,$8,$9,$2,$3,0*%
G04 Aperture macros list end*
%ADD10C,0.500000*%
%ADD11C,3.800000*%
%ADD12R,0.650000X1.060000*%
%ADD13RoundRect,0.250000X-0.375000X-0.625000X0.375000X-0.625000X0.375000X0.625000X-0.375000X0.625000X0*%
%ADD14RoundRect,0.250000X-0.475000X0.250000X-0.475000X-0.250000X0.475000X-0.250000X0.475000X0.250000X0*%
%ADD15RoundRect,0.250000X-0.625000X0.312500X-0.625000X-0.312500X0.625000X-0.312500X0.625000X0.312500X0*%
%ADD16RoundRect,0.200000X0.275000X-0.200000X0.275000X0.200000X-0.275000X0.200000X-0.275000X-0.200000X0*%
%ADD17RoundRect,0.200000X0.200000X0.275000X-0.200000X0.275000X-0.200000X-0.275000X0.200000X-0.275000X0*%
%ADD18C,0.650000*%
%ADD19R,0.600000X1.450000*%
%ADD20R,0.300000X1.450000*%
%ADD21O,1.000000X2.100000*%
%ADD22O,1.000000X1.600000*%
%ADD23RoundRect,0.150000X-0.625000X0.150000X-0.625000X-0.150000X0.625000X-0.150000X0.625000X0.150000X0*%
%ADD24RoundRect,0.250000X-0.650000X0.350000X-0.650000X-0.350000X0.650000X-0.350000X0.650000X0.350000X0*%
G04 APERTURE END LIST*
D10*
G04 #@! TO.C,REF\u002A\u002A*
X35001387Y-53249000D03*
G04 #@! TD*
G04 #@! TO.C,REF\u002A\u002A*
X35001387Y-46650999D03*
G04 #@! TD*
D11*
G04 #@! TO.C,H1*
X40249995Y-49949999D03*
G04 #@! TD*
G04 #@! TO.C,H2*
X68249995Y-49949999D03*
G04 #@! TD*
D10*
G04 #@! TO.C,REF\u002A\u002A*
X37001387Y-53249000D03*
G04 #@! TD*
D12*
G04 #@! TO.C,U1*
X44499995Y-51949999D03*
X45449995Y-51949999D03*
X46399995Y-51949999D03*
X46399995Y-49749999D03*
X45449995Y-49749999D03*
X44499995Y-49749999D03*
G04 #@! TD*
D13*
G04 #@! TO.C,F1*
X44049995Y-47699999D03*
X46849995Y-47699999D03*
G04 #@! TD*
D10*
G04 #@! TO.C,REF\u002A\u002A*
X62998605Y-53248999D03*
G04 #@! TD*
G04 #@! TO.C,REF\u002A\u002A*
X34001387Y-46650999D03*
G04 #@! TD*
D14*
G04 #@! TO.C,C1*
X63399995Y-49274999D03*
X63399995Y-51174999D03*
G04 #@! TD*
D10*
G04 #@! TO.C,REF\u002A\u002A*
X63998605Y-53248999D03*
G04 #@! TD*
G04 #@! TO.C,REF\u002A\u002A*
X64998605Y-53248999D03*
G04 #@! TD*
G04 #@! TO.C,REF\u002A\u002A*
X63998605Y-46650999D03*
G04 #@! TD*
D15*
G04 #@! TO.C,R3*
X61149995Y-49287499D03*
X61149995Y-52212499D03*
G04 #@! TD*
D10*
G04 #@! TO.C,REF\u002A\u002A*
X37001387Y-46650999D03*
G04 #@! TD*
D16*
G04 #@! TO.C,R2*
X48149995Y-52474999D03*
X48149995Y-50824999D03*
G04 #@! TD*
D10*
G04 #@! TO.C,REF\u002A\u002A*
X65998605Y-46650999D03*
G04 #@! TD*
G04 #@! TO.C,REF\u002A\u002A*
X36001387Y-53249000D03*
G04 #@! TD*
G04 #@! TO.C,REF\u002A\u002A*
X64998605Y-46650999D03*
G04 #@! TD*
G04 #@! TO.C,REF\u002A\u002A*
X36001387Y-46650999D03*
G04 #@! TD*
G04 #@! TO.C,REF\u002A\u002A*
X34001387Y-53249000D03*
G04 #@! TD*
D17*
G04 #@! TO.C,R1*
X62299995Y-47499999D03*
X60649995Y-47499999D03*
G04 #@! TD*
D18*
G04 #@! TO.C,J2*
X57439995Y-51089999D03*
X51659995Y-51089999D03*
D19*
X57799995Y-52534999D03*
X56999995Y-52534999D03*
D20*
X55799995Y-52534999D03*
X54799995Y-52534999D03*
X54299995Y-52534999D03*
X53299995Y-52534999D03*
D19*
X52099995Y-52534999D03*
X51299995Y-52534999D03*
X51299995Y-52534999D03*
X52099995Y-52534999D03*
D20*
X52799995Y-52534999D03*
X53799995Y-52534999D03*
X55299995Y-52534999D03*
X56299995Y-52534999D03*
D19*
X56999995Y-52534999D03*
X57799995Y-52534999D03*
D21*
X58869995Y-51619999D03*
D22*
X50229995Y-47439999D03*
D21*
X50229995Y-51619999D03*
D22*
X58869995Y-47439999D03*
G04 #@! TD*
D10*
G04 #@! TO.C,REF\u002A\u002A*
X65998605Y-53248999D03*
G04 #@! TD*
D23*
G04 #@! TO.C,J1*
X35806245Y-48449999D03*
X35806245Y-49449999D03*
X35806245Y-50449999D03*
X35806245Y-51449999D03*
D24*
X31931245Y-47149999D03*
X31931245Y-52749999D03*
G04 #@! TD*
D10*
G04 #@! TO.C,REF\u002A\u002A*
X62998605Y-46650999D03*
G04 #@! TD*
M02*
