G04 #@! TF.GenerationSoftware,KiCad,Pcbnew,6.0.0-rc1-1.20211210git84e0fee.fc34*
G04 #@! TF.CreationDate,2021-12-15T09:31:59+00:00*
G04 #@! TF.ProjectId,panel,70616e65-6c2e-46b6-9963-61645f706362,rev?*
G04 #@! TF.SameCoordinates,Original*
G04 #@! TF.FileFunction,Legend,Top*
G04 #@! TF.FilePolarity,Positive*
%FSLAX46Y46*%
G04 Gerber Fmt 4.6, Leading zero omitted, Abs format (unit mm)*
G04 Created by KiCad (PCBNEW 6.0.0-rc1-1.20211210git84e0fee.fc34) date 2021-12-15 09:31:59*
%MOMM*%
%LPD*%
G01*
G04 APERTURE LIST*
%ADD10C,0.150000*%
%ADD11C,0.120000*%
G04 APERTURE END LIST*
D10*
G04 #@! TO.C,U1*
X42686899Y-51534522D02*
X43334518Y-51534522D01*
X43410709Y-51496427D01*
X43448804Y-51458332D01*
X43486899Y-51382141D01*
X43486899Y-51229760D01*
X43448804Y-51153570D01*
X43410709Y-51115475D01*
X43334518Y-51077379D01*
X42686899Y-51077379D01*
X43486899Y-50277379D02*
X43486899Y-50734522D01*
X43486899Y-50505951D02*
X42686899Y-50505951D01*
X42801185Y-50582141D01*
X42877375Y-50658332D01*
X42915471Y-50734522D01*
G04 #@! TO.C,F1*
X42008328Y-47392856D02*
X41741661Y-47392856D01*
X41741661Y-47811903D02*
X41741661Y-47011903D01*
X42122614Y-47011903D01*
X42846423Y-47811903D02*
X42389280Y-47811903D01*
X42617852Y-47811903D02*
X42617852Y-47011903D01*
X42541661Y-47126189D01*
X42465471Y-47202379D01*
X42389280Y-47240475D01*
G04 #@! TO.C,C1*
X65066661Y-49435713D02*
X65028566Y-49473808D01*
X64914280Y-49511903D01*
X64838090Y-49511903D01*
X64723804Y-49473808D01*
X64647614Y-49397618D01*
X64609518Y-49321427D01*
X64571423Y-49169046D01*
X64571423Y-49054760D01*
X64609518Y-48902379D01*
X64647614Y-48826189D01*
X64723804Y-48749999D01*
X64838090Y-48711903D01*
X64914280Y-48711903D01*
X65028566Y-48749999D01*
X65066661Y-48788094D01*
X65828566Y-49511903D02*
X65371423Y-49511903D01*
X65599995Y-49511903D02*
X65599995Y-48711903D01*
X65523804Y-48826189D01*
X65447614Y-48902379D01*
X65371423Y-48940475D01*
G04 #@! TO.C,R3*
X62966661Y-52911903D02*
X62699995Y-52530951D01*
X62509518Y-52911903D02*
X62509518Y-52111903D01*
X62814280Y-52111903D01*
X62890471Y-52149999D01*
X62928566Y-52188094D01*
X62966661Y-52264284D01*
X62966661Y-52378570D01*
X62928566Y-52454760D01*
X62890471Y-52492856D01*
X62814280Y-52530951D01*
X62509518Y-52530951D01*
X63233328Y-52111903D02*
X63728566Y-52111903D01*
X63461899Y-52416665D01*
X63576185Y-52416665D01*
X63652375Y-52454760D01*
X63690471Y-52492856D01*
X63728566Y-52569046D01*
X63728566Y-52759522D01*
X63690471Y-52835713D01*
X63652375Y-52873808D01*
X63576185Y-52911903D01*
X63347614Y-52911903D01*
X63271423Y-52873808D01*
X63233328Y-52835713D01*
G04 #@! TO.C,R2*
X48016661Y-49861903D02*
X47749995Y-49480951D01*
X47559518Y-49861903D02*
X47559518Y-49061903D01*
X47864280Y-49061903D01*
X47940471Y-49099999D01*
X47978566Y-49138094D01*
X48016661Y-49214284D01*
X48016661Y-49328570D01*
X47978566Y-49404760D01*
X47940471Y-49442856D01*
X47864280Y-49480951D01*
X47559518Y-49480951D01*
X48321423Y-49138094D02*
X48359518Y-49099999D01*
X48435709Y-49061903D01*
X48626185Y-49061903D01*
X48702375Y-49099999D01*
X48740471Y-49138094D01*
X48778566Y-49214284D01*
X48778566Y-49290475D01*
X48740471Y-49404760D01*
X48283328Y-49861903D01*
X48778566Y-49861903D01*
G04 #@! TO.C,R1*
X63541661Y-47886903D02*
X63274995Y-47505951D01*
X63084518Y-47886903D02*
X63084518Y-47086903D01*
X63389280Y-47086903D01*
X63465471Y-47124999D01*
X63503566Y-47163094D01*
X63541661Y-47239284D01*
X63541661Y-47353570D01*
X63503566Y-47429760D01*
X63465471Y-47467856D01*
X63389280Y-47505951D01*
X63084518Y-47505951D01*
X64303566Y-47886903D02*
X63846423Y-47886903D01*
X64074995Y-47886903D02*
X64074995Y-47086903D01*
X63998804Y-47201189D01*
X63922614Y-47277379D01*
X63846423Y-47315475D01*
G04 #@! TO.C,J2*
X48408328Y-47361903D02*
X48408328Y-47933332D01*
X48370233Y-48047618D01*
X48294042Y-48123808D01*
X48179756Y-48161903D01*
X48103566Y-48161903D01*
X48751185Y-47438094D02*
X48789280Y-47399999D01*
X48865471Y-47361903D01*
X49055947Y-47361903D01*
X49132137Y-47399999D01*
X49170233Y-47438094D01*
X49208328Y-47514284D01*
X49208328Y-47590475D01*
X49170233Y-47704760D01*
X48713090Y-48161903D01*
X49208328Y-48161903D01*
G04 #@! TO.C,J1*
X36168149Y-53416665D02*
X36739578Y-53416665D01*
X36853864Y-53454760D01*
X36930054Y-53530951D01*
X36968149Y-53645237D01*
X36968149Y-53721427D01*
X36968149Y-52616665D02*
X36968149Y-53073808D01*
X36968149Y-52845237D02*
X36168149Y-52845237D01*
X36282435Y-52921427D01*
X36358625Y-52997618D01*
X36396721Y-53073808D01*
D11*
G04 #@! TO.C,U1*
X43839995Y-49949999D02*
X43839995Y-52399999D01*
X47059995Y-51749999D02*
X47059995Y-49949999D01*
G04 #@! TO.C,F1*
X44847931Y-46789999D02*
X46052059Y-46789999D01*
X44847931Y-48609999D02*
X46052059Y-48609999D01*
G04 #@! TO.C,C1*
X62664995Y-49963747D02*
X62664995Y-50486251D01*
X64134995Y-49963747D02*
X64134995Y-50486251D01*
G04 #@! TO.C,R3*
X62059995Y-50022935D02*
X62059995Y-51477063D01*
X60239995Y-50022935D02*
X60239995Y-51477063D01*
G04 #@! TO.C,R2*
X47627495Y-51887257D02*
X47627495Y-51412741D01*
X48672495Y-51887257D02*
X48672495Y-51412741D01*
G04 #@! TO.C,R1*
X61712253Y-48022499D02*
X61237737Y-48022499D01*
X61712253Y-46977499D02*
X61237737Y-46977499D01*
G04 #@! TO.C,J2*
X59249995Y-46489999D02*
X59249995Y-44589999D01*
X59249995Y-44589999D02*
X49849995Y-44589999D01*
X59249995Y-50389999D02*
X59249995Y-48389999D01*
X49849995Y-50389999D02*
X49849995Y-48389999D01*
X49849995Y-46489999D02*
X49849995Y-44589999D01*
G04 #@! TO.C,J1*
X35591245Y-47889999D02*
X36581245Y-47889999D01*
X35591245Y-46839999D02*
X35591245Y-47889999D01*
X33091245Y-46839999D02*
X35591245Y-46839999D01*
X31121245Y-48009999D02*
X31121245Y-51889999D01*
X35591245Y-53059999D02*
X35591245Y-52009999D01*
X33091245Y-53059999D02*
X35591245Y-53059999D01*
G04 #@! TD*
M02*
