M48
; DRILL file {KiCad 6.0.0-rc1-1.20211210git84e0fee.fc34} date Wed Dec 15 09:31:59 2021
; FORMAT={-:-/ absolute / metric / decimal}
; #@! TF.CreationDate,2021-12-15T09:31:59+00:00
; #@! TF.GenerationSoftware,Kicad,Pcbnew,6.0.0-rc1-1.20211210git84e0fee.fc34
; #@! TF.FileFunction,MixedPlating,1,2
FMAT,2
METRIC
; #@! TA.AperFunction,Plated,PTH,ViaDrill
T1C0.300
; #@! TA.AperFunction,Plated,PTH,ComponentDrill
T2C0.600
; #@! TA.AperFunction,Plated,PTH,ComponentDrill
T3C2.200
; #@! TA.AperFunction,NonPlated,NPTH,ComponentDrill
T4C0.500
; #@! TA.AperFunction,NonPlated,NPTH,ComponentDrill
T5C0.650
%
G90
G05
T1
X35.95Y-52.65
X36.969Y-49.45
X36.969Y-50.45
X37.8Y-48.4
X42.9Y-49.1
X43.05Y-52.55
X47.3Y-52.85
X47.95Y-47.025
X49.542Y-53.05
X52.25Y-48.15
X52.45Y-50.7
X53.819Y-50.301
X54.85Y-49.999
X54.85Y-51.05
X55.65Y-48.85
X57.5Y-50.15
X57.65Y-48.45
X65.825Y-50.85
X67.15Y-47.4
T3
X40.25Y-49.95
X68.25Y-49.95
T4
X34.001Y-46.651
X34.001Y-53.249
X35.001Y-46.651
X35.001Y-53.249
X36.001Y-46.651
X36.001Y-53.249
X37.001Y-46.651
X37.001Y-53.249
X62.999Y-46.651
X62.999Y-53.249
X63.999Y-46.651
X63.999Y-53.249
X64.999Y-46.651
X64.999Y-53.249
X65.999Y-46.651
X65.999Y-53.249
T5
X51.66Y-51.09
X57.44Y-51.09
T2
X50.23Y-47.74G85X50.23Y-47.14
G05
X50.23Y-52.17G85X50.23Y-51.07
G05
X58.87Y-47.74G85X58.87Y-47.14
G05
X58.87Y-52.17G85X58.87Y-51.07
G05
T0
M30
