G04 #@! TF.GenerationSoftware,KiCad,Pcbnew,6.0.0-rc1-1.20211210git84e0fee.fc34*
G04 #@! TF.CreationDate,2021-12-15T09:31:59+00:00*
G04 #@! TF.ProjectId,panel,70616e65-6c2e-46b6-9963-61645f706362,rev?*
G04 #@! TF.SameCoordinates,Original*
G04 #@! TF.FileFunction,Legend,Bot*
G04 #@! TF.FilePolarity,Positive*
%FSLAX46Y46*%
G04 Gerber Fmt 4.6, Leading zero omitted, Abs format (unit mm)*
G04 Created by KiCad (PCBNEW 6.0.0-rc1-1.20211210git84e0fee.fc34) date 2021-12-15 09:31:59*
%MOMM*%
%LPD*%
G01*
G04 APERTURE LIST*
%ADD10C,0.200000*%
G04 APERTURE END LIST*
D10*
X48035709Y-48767903D02*
X47578566Y-48767903D01*
X47807137Y-49567903D02*
X47807137Y-48767903D01*
X46969042Y-49567903D02*
X46969042Y-49148856D01*
X47007137Y-49072665D01*
X47083328Y-49034570D01*
X47235709Y-49034570D01*
X47311899Y-49072665D01*
X46969042Y-49529808D02*
X47045233Y-49567903D01*
X47235709Y-49567903D01*
X47311899Y-49529808D01*
X47349995Y-49453618D01*
X47349995Y-49377427D01*
X47311899Y-49301237D01*
X47235709Y-49263141D01*
X47045233Y-49263141D01*
X46969042Y-49225046D01*
X46588090Y-49034570D02*
X46588090Y-49834570D01*
X46588090Y-49072665D02*
X46511899Y-49034570D01*
X46359518Y-49034570D01*
X46283328Y-49072665D01*
X46245233Y-49110760D01*
X46207137Y-49186951D01*
X46207137Y-49415522D01*
X46245233Y-49491713D01*
X46283328Y-49529808D01*
X46359518Y-49567903D01*
X46511899Y-49567903D01*
X46588090Y-49529808D01*
X45978566Y-48767903D02*
X45521423Y-48767903D01*
X45749995Y-49567903D02*
X45749995Y-48767903D01*
X44911899Y-49567903D02*
X44911899Y-49148856D01*
X44949995Y-49072665D01*
X45026185Y-49034570D01*
X45178566Y-49034570D01*
X45254756Y-49072665D01*
X44911899Y-49529808D02*
X44988090Y-49567903D01*
X45178566Y-49567903D01*
X45254756Y-49529808D01*
X45292852Y-49453618D01*
X45292852Y-49377427D01*
X45254756Y-49301237D01*
X45178566Y-49263141D01*
X44988090Y-49263141D01*
X44911899Y-49225046D01*
X44530947Y-49034570D02*
X44530947Y-49834570D01*
X44530947Y-49072665D02*
X44454756Y-49034570D01*
X44302375Y-49034570D01*
X44226185Y-49072665D01*
X44188090Y-49110760D01*
X44149995Y-49186951D01*
X44149995Y-49415522D01*
X44188090Y-49491713D01*
X44226185Y-49529808D01*
X44302375Y-49567903D01*
X44454756Y-49567903D01*
X44530947Y-49529808D01*
X46359518Y-50855903D02*
X46359518Y-50055903D01*
X46169042Y-50055903D01*
X46054756Y-50093999D01*
X45978566Y-50170189D01*
X45940471Y-50246379D01*
X45902375Y-50398760D01*
X45902375Y-50513046D01*
X45940471Y-50665427D01*
X45978566Y-50741618D01*
X46054756Y-50817808D01*
X46169042Y-50855903D01*
X46359518Y-50855903D01*
X45292852Y-50436856D02*
X45178566Y-50474951D01*
X45140471Y-50513046D01*
X45102375Y-50589237D01*
X45102375Y-50703522D01*
X45140471Y-50779713D01*
X45178566Y-50817808D01*
X45254756Y-50855903D01*
X45559518Y-50855903D01*
X45559518Y-50055903D01*
X45292852Y-50055903D01*
X45216661Y-50093999D01*
X45178566Y-50132094D01*
X45140471Y-50208284D01*
X45140471Y-50284475D01*
X45178566Y-50360665D01*
X45216661Y-50398760D01*
X45292852Y-50436856D01*
X45559518Y-50436856D01*
M02*
