%TF.GenerationSoftware,KiCad,Pcbnew,5.99.0-unknown-43523df843~131~ubuntu21.10.1*%
%TF.CreationDate,2021-08-03T15:32:11+01:00*%
%TF.ProjectId,dboard_panelized,64626f61-7264-45f7-9061-6e656c697a65,rev?*%
%TF.SameCoordinates,Original*%
%TF.FileFunction,Copper,L2,Bot*%
%TF.FilePolarity,Positive*%
%FSLAX46Y46*%
G04 Gerber Fmt 4.6, Leading zero omitted, Abs format (unit mm)*
G04 Created by KiCad (PCBNEW 5.99.0-unknown-43523df843~131~ubuntu21.10.1) date 2021-08-03 15:32:11*
%MOMM*%
%LPD*%
G01*
G04 APERTURE LIST*
%TA.AperFunction,ComponentPad*%
%ADD10C,3.800000*%
%TD*%
%TA.AperFunction,ComponentPad*%
%ADD11O,1.000000X1.600000*%
%TD*%
%TA.AperFunction,ComponentPad*%
%ADD12O,1.000000X2.100000*%
%TD*%
%TA.AperFunction,ViaPad*%
%ADD13C,0.800000*%
%TD*%
%TA.AperFunction,Conductor*%
%ADD14C,0.300000*%
%TD*%
%TA.AperFunction,Conductor*%
%ADD15C,0.200000*%
%TD*%
G04 APERTURE END LIST*
D10*
%TO.P,H2,1,1*%
%TO.N,SHIELD*%
X61300000Y-29500000D03*
%TD*%
%TO.P,H2,1,1*%
%TO.N,SHIELD*%
X24800000Y-39100000D03*
%TD*%
%TO.P,H1,1*%
%TO.N,N/C*%
X24800000Y-29500000D03*
%TD*%
D11*
%TO.P,J2,S1,SHIELD*%
%TO.N,SHIELD*%
X43280000Y-27040000D03*
D12*
X43280000Y-31220000D03*
D11*
X51920000Y-27040000D03*
D12*
X51920000Y-31220000D03*
%TD*%
D10*
%TO.P,H1,1*%
%TO.N,N/C*%
X61300001Y-39100000D03*
%TD*%
D12*
%TO.P,J2,S1,SHIELD*%
%TO.N,SHIELD*%
X34180002Y-37380000D03*
D11*
X34180002Y-41560000D03*
X42820002Y-41560000D03*
D12*
X42820002Y-37380000D03*
%TD*%
D13*
%TO.N,GND*%
X35600001Y-41000000D03*
X40800003Y-41116823D03*
X58400001Y-41400000D03*
X27700001Y-36500000D03*
X50500000Y-27600000D03*
X55400001Y-37200000D03*
X51700002Y-40050000D03*
X45300000Y-27483176D03*
X54300000Y-27200000D03*
X27700000Y-27200000D03*
X58400000Y-32100000D03*
X30700000Y-31400000D03*
X34400000Y-28550000D03*
X31800000Y-41400001D03*
%TO.N,VBUS*%
X45500000Y-30250000D03*
X41250000Y-27250000D03*
X35500003Y-38899999D03*
X50600000Y-29700000D03*
X44850001Y-41350000D03*
X40600000Y-38349998D03*
%TO.N,+5V*%
X28900000Y-27950000D03*
X50000000Y-36599999D03*
X36100000Y-32000000D03*
X57200001Y-40649999D03*
%TO.N,D-*%
X30900000Y-29500000D03*
X55200001Y-39100000D03*
X48732195Y-29382196D03*
X37367806Y-39217804D03*
X38750000Y-38198530D03*
X47350000Y-30401470D03*
%TO.N,D+*%
X48732195Y-28382196D03*
X31900000Y-29500000D03*
X37367806Y-40217804D03*
X54200001Y-39100000D03*
%TD*%
D14*
%TO.N,SHIELD*%
X51920000Y-31220000D02*
X51920000Y-27040000D01*
X34180000Y-37380001D02*
X34180003Y-41560000D01*
%TO.N,VBUS*%
X35500003Y-38899999D02*
X35600000Y-39000001D01*
X49009969Y-27600000D02*
X48100000Y-27600000D01*
X40600000Y-38349998D02*
X39699018Y-37449020D01*
X49149019Y-31150981D02*
X50600000Y-29700000D01*
X39699018Y-37449020D02*
X36950983Y-37449020D01*
X37090032Y-41000000D02*
X38000002Y-41000001D01*
X50600000Y-29700000D02*
X50600000Y-29190031D01*
X42232676Y-28232676D02*
X41250000Y-27250000D01*
X50600000Y-29190031D02*
X49009969Y-27600000D01*
X47467324Y-28232676D02*
X42232676Y-28232676D01*
X35500003Y-38899999D02*
X35500001Y-39409969D01*
X48100000Y-27600000D02*
X47467324Y-28232676D01*
X35500001Y-39409969D02*
X37090032Y-41000000D01*
X38000002Y-41000001D02*
X38632677Y-40367324D01*
X45500000Y-30250000D02*
X46400981Y-31150981D01*
X38632677Y-40367324D02*
X43867325Y-40367325D01*
X50600000Y-29700000D02*
X50500000Y-29600000D01*
X36950983Y-37449020D02*
X35500003Y-38899999D01*
X43867325Y-40367325D02*
X44850001Y-41350000D01*
X46400981Y-31150981D02*
X49149019Y-31150981D01*
%TO.N,+5V*%
X36100000Y-32000000D02*
X35699500Y-32400500D01*
X57075001Y-37200000D02*
X57075001Y-40524999D01*
X56074500Y-36199498D02*
X57075001Y-37200000D01*
X29025000Y-28075000D02*
X28900000Y-27950000D01*
X57075001Y-40524999D02*
X57200001Y-40649999D01*
X30025500Y-32400500D02*
X29025000Y-31400000D01*
X50000000Y-36599999D02*
X50400501Y-36199500D01*
X50400501Y-36199500D02*
X56074500Y-36199498D01*
X29025000Y-31400000D02*
X29025000Y-28075000D01*
X35699500Y-32400500D02*
X30025500Y-32400500D01*
D15*
%TO.N,D-*%
X44767157Y-37650000D02*
X42899351Y-39517805D01*
X37667807Y-39517804D02*
X37367806Y-39217804D01*
X38767805Y-39517803D02*
X37667807Y-39517804D01*
X47401470Y-30350000D02*
X47350000Y-30401470D01*
X31200000Y-29800000D02*
X31200000Y-30482844D01*
X54900001Y-38800000D02*
X54900000Y-38117155D01*
X43200648Y-29082196D02*
X47332196Y-29082196D01*
X31667156Y-30950000D02*
X41332844Y-30950000D01*
X30900000Y-29500000D02*
X31200000Y-29800000D01*
X42899351Y-39517805D02*
X38767805Y-39517803D01*
X47332196Y-29082196D02*
X48432195Y-29082196D01*
X48432195Y-29082196D02*
X48732195Y-29382196D01*
X54432843Y-37649999D02*
X44767157Y-37650000D01*
X55200001Y-39100000D02*
X54900001Y-38800000D01*
X41332844Y-30950000D02*
X43200648Y-29082196D01*
X38698531Y-38250000D02*
X38750000Y-38198530D01*
X54900000Y-38117155D02*
X54432843Y-37649999D01*
X31200000Y-30482844D02*
X31667156Y-30950000D01*
%TO.N,D+*%
X31900000Y-29500000D02*
X31600000Y-29800000D01*
X54200001Y-39100000D02*
X54500001Y-38800002D01*
X37667807Y-39917803D02*
X37367806Y-40217804D01*
X43065041Y-39917804D02*
X37667807Y-39917803D01*
X44932845Y-38049999D02*
X43065041Y-39917804D01*
X54500001Y-38800002D02*
X54500002Y-38282843D01*
X41167156Y-30550000D02*
X43034960Y-28682196D01*
X31600000Y-29800000D02*
X31600000Y-30317156D01*
X54267157Y-38049999D02*
X44932845Y-38049999D01*
X31832844Y-30550000D02*
X41167156Y-30550000D01*
X48432195Y-28682196D02*
X48732195Y-28382196D01*
X43034960Y-28682196D02*
X48432195Y-28682196D01*
X54500002Y-38282843D02*
X54267157Y-38049999D01*
X31600000Y-30317156D02*
X31832844Y-30550000D01*
%TD*%
%TA.AperFunction,Conductor*%
%TO.N,GND*%
G36*
X57584910Y-26059633D02*
G01*
X57638895Y-26103373D01*
X57707378Y-26192622D01*
X57715127Y-26198568D01*
X57806380Y-26268589D01*
X57822374Y-26280862D01*
X57956290Y-26336331D01*
X58099999Y-26355251D01*
X58243708Y-26336331D01*
X58377624Y-26280862D01*
X58409295Y-26256560D01*
X58480549Y-26227045D01*
X58557017Y-26237111D01*
X58590700Y-26256557D01*
X58622374Y-26280862D01*
X58756290Y-26336331D01*
X58899999Y-26355251D01*
X59043708Y-26336331D01*
X59177624Y-26280862D01*
X59209295Y-26256560D01*
X59280549Y-26227045D01*
X59357017Y-26237111D01*
X59390700Y-26256557D01*
X59422374Y-26280862D01*
X59556290Y-26336331D01*
X59699999Y-26355251D01*
X59843708Y-26336331D01*
X59977624Y-26280862D01*
X59993619Y-26268589D01*
X60084871Y-26198568D01*
X60092620Y-26192622D01*
X60161332Y-26103076D01*
X60222520Y-26056124D01*
X60298988Y-26046057D01*
X60363330Y-26070575D01*
X60397584Y-26093870D01*
X60614561Y-26198001D01*
X60619888Y-26199635D01*
X60619895Y-26199638D01*
X60800841Y-26255150D01*
X60844646Y-26268589D01*
X60850168Y-26269412D01*
X60850174Y-26269413D01*
X60952109Y-26284599D01*
X61082689Y-26304053D01*
X61196046Y-26303839D01*
X61289930Y-26303662D01*
X61289931Y-26303662D01*
X61294486Y-26303653D01*
X61300004Y-26304626D01*
X61305641Y-26303632D01*
X61322048Y-26303601D01*
X61323369Y-26303731D01*
X61327883Y-26302572D01*
X61337167Y-26302013D01*
X61637923Y-26318320D01*
X61653946Y-26320062D01*
X61979942Y-26373507D01*
X61995690Y-26376973D01*
X62257007Y-26449527D01*
X62313986Y-26465347D01*
X62329275Y-26470498D01*
X62636148Y-26592769D01*
X62650781Y-26599539D01*
X62759205Y-26657022D01*
X62942634Y-26754270D01*
X62956458Y-26762587D01*
X63098138Y-26858648D01*
X63229882Y-26947973D01*
X63242715Y-26957729D01*
X63370355Y-27066147D01*
X63494489Y-27171588D01*
X63506201Y-27182683D01*
X63733364Y-27422496D01*
X63743809Y-27434792D01*
X63943721Y-27697771D01*
X63952775Y-27711125D01*
X64123077Y-27994171D01*
X64130634Y-28008425D01*
X64269338Y-28308229D01*
X64275309Y-28323216D01*
X64380784Y-28636254D01*
X64380784Y-28636255D01*
X64385099Y-28651795D01*
X64454335Y-28966335D01*
X64456110Y-28974400D01*
X64458720Y-28990313D01*
X64493455Y-29309699D01*
X64494437Y-29318729D01*
X64495310Y-29334839D01*
X64495310Y-29665162D01*
X64494437Y-29681272D01*
X64458931Y-30007752D01*
X64458721Y-30009679D01*
X64456111Y-30025595D01*
X64385099Y-30348201D01*
X64385099Y-30348202D01*
X64380784Y-30363743D01*
X64366429Y-30406347D01*
X64275308Y-30676785D01*
X64269337Y-30691772D01*
X64130635Y-30991572D01*
X64123078Y-31005827D01*
X63952770Y-31288881D01*
X63943716Y-31302234D01*
X63743810Y-31565204D01*
X63733366Y-31577500D01*
X63506191Y-31817327D01*
X63494477Y-31828422D01*
X63242722Y-32042264D01*
X63229879Y-32052028D01*
X62956455Y-32237413D01*
X62942631Y-32245730D01*
X62650790Y-32400454D01*
X62636148Y-32407229D01*
X62329266Y-32529502D01*
X62313977Y-32534653D01*
X61995689Y-32623025D01*
X61979933Y-32626493D01*
X61915460Y-32637063D01*
X61653942Y-32679937D01*
X61637919Y-32681679D01*
X61337160Y-32697986D01*
X61327868Y-32697425D01*
X61323364Y-32696269D01*
X61322053Y-32696398D01*
X61305643Y-32696367D01*
X61300000Y-32695372D01*
X61294476Y-32696346D01*
X61289909Y-32696337D01*
X61289908Y-32696337D01*
X61199191Y-32696166D01*
X61082684Y-32695947D01*
X61077162Y-32696770D01*
X61077158Y-32696770D01*
X60850171Y-32730588D01*
X60850168Y-32730589D01*
X60844642Y-32731412D01*
X60742034Y-32762891D01*
X60619890Y-32800363D01*
X60619883Y-32800366D01*
X60614556Y-32802000D01*
X60397580Y-32906131D01*
X60392973Y-32909264D01*
X60392968Y-32909267D01*
X60363330Y-32929424D01*
X60290500Y-32954813D01*
X60214733Y-32940386D01*
X60161329Y-32896923D01*
X60098566Y-32815129D01*
X60092620Y-32807380D01*
X60009294Y-32743441D01*
X59985372Y-32725085D01*
X59985369Y-32725083D01*
X59977624Y-32719140D01*
X59843708Y-32663671D01*
X59699999Y-32644751D01*
X59556290Y-32663671D01*
X59422374Y-32719140D01*
X59390703Y-32743442D01*
X59319449Y-32772957D01*
X59242981Y-32762891D01*
X59209298Y-32743445D01*
X59177624Y-32719140D01*
X59043708Y-32663671D01*
X58899999Y-32644751D01*
X58756290Y-32663671D01*
X58622374Y-32719140D01*
X58590703Y-32743442D01*
X58519449Y-32772957D01*
X58442981Y-32762891D01*
X58409298Y-32743445D01*
X58377624Y-32719140D01*
X58243708Y-32663671D01*
X58099999Y-32644751D01*
X57956290Y-32663671D01*
X57822374Y-32719140D01*
X57814629Y-32725083D01*
X57814626Y-32725085D01*
X57790704Y-32743441D01*
X57707378Y-32807380D01*
X57701432Y-32815129D01*
X57637353Y-32898638D01*
X57576164Y-32945590D01*
X57499695Y-32955657D01*
X57435354Y-32931140D01*
X57419307Y-32920227D01*
X57398580Y-32906131D01*
X57181604Y-32802000D01*
X57176277Y-32800366D01*
X57176270Y-32800363D01*
X57054126Y-32762891D01*
X56951518Y-32731412D01*
X56945992Y-32730589D01*
X56945989Y-32730588D01*
X56719002Y-32696770D01*
X56718998Y-32696770D01*
X56713476Y-32695947D01*
X56474107Y-32696398D01*
X56472796Y-32696269D01*
X56460159Y-32699513D01*
X56459510Y-32699563D01*
X56448108Y-32700000D01*
X52913662Y-32700000D01*
X52905044Y-32699751D01*
X52872067Y-32697840D01*
X52872064Y-32697840D01*
X52861564Y-32697232D01*
X52855419Y-32698633D01*
X52834754Y-32705522D01*
X52814922Y-32710647D01*
X52803656Y-32712745D01*
X52803651Y-32712747D01*
X52790130Y-32715265D01*
X52778420Y-32722483D01*
X52765586Y-32727435D01*
X52765524Y-32727274D01*
X52755633Y-32731894D01*
X52574254Y-32792354D01*
X52527136Y-32800000D01*
X52278545Y-32800000D01*
X52204045Y-32780038D01*
X52149507Y-32725500D01*
X52129545Y-32651000D01*
X52149507Y-32576500D01*
X52204045Y-32521962D01*
X52230524Y-32509950D01*
X52262993Y-32498897D01*
X52415955Y-32404794D01*
X52421904Y-32398968D01*
X52421907Y-32398966D01*
X52538318Y-32284968D01*
X52538319Y-32284966D01*
X52544268Y-32279141D01*
X52548779Y-32272142D01*
X52548781Y-32272139D01*
X52637040Y-32135187D01*
X52641554Y-32128183D01*
X52645234Y-32118073D01*
X52700129Y-31967250D01*
X52700129Y-31967249D01*
X52702978Y-31959422D01*
X52717989Y-31840598D01*
X52719913Y-31825366D01*
X52719913Y-31825361D01*
X52720500Y-31820717D01*
X52720500Y-30624845D01*
X52705546Y-30491528D01*
X52655635Y-30348201D01*
X52649225Y-30329795D01*
X52649225Y-30329794D01*
X52646485Y-30321927D01*
X52640100Y-30311708D01*
X52555730Y-30176689D01*
X52551316Y-30169625D01*
X52466262Y-30083975D01*
X52430636Y-30048100D01*
X52424770Y-30042193D01*
X52424192Y-30041826D01*
X52380584Y-29982243D01*
X52370500Y-29928361D01*
X52370500Y-29500000D01*
X59094778Y-29500000D01*
X59095097Y-29504867D01*
X59112041Y-29763377D01*
X59113644Y-29787839D01*
X59114595Y-29792618D01*
X59114595Y-29792621D01*
X59168750Y-30064874D01*
X59169919Y-30070753D01*
X59262641Y-30343902D01*
X59390222Y-30602611D01*
X59550480Y-30842454D01*
X59740673Y-31059327D01*
X59957546Y-31249520D01*
X60197389Y-31409778D01*
X60456098Y-31537359D01*
X60729247Y-31630081D01*
X60734020Y-31631030D01*
X60734026Y-31631032D01*
X61007379Y-31685405D01*
X61007382Y-31685405D01*
X61012161Y-31686356D01*
X61017022Y-31686675D01*
X61017025Y-31686675D01*
X61295133Y-31704903D01*
X61300000Y-31705222D01*
X61304867Y-31704903D01*
X61582975Y-31686675D01*
X61582978Y-31686675D01*
X61587839Y-31686356D01*
X61592618Y-31685405D01*
X61592621Y-31685405D01*
X61865974Y-31631032D01*
X61865980Y-31631030D01*
X61870753Y-31630081D01*
X62143902Y-31537359D01*
X62402611Y-31409778D01*
X62642454Y-31249520D01*
X62859327Y-31059327D01*
X63049520Y-30842454D01*
X63209778Y-30602611D01*
X63337359Y-30343902D01*
X63430081Y-30070753D01*
X63431251Y-30064874D01*
X63485405Y-29792621D01*
X63485405Y-29792618D01*
X63486356Y-29787839D01*
X63487960Y-29763377D01*
X63504903Y-29504867D01*
X63505222Y-29500000D01*
X63487745Y-29233349D01*
X63486675Y-29217025D01*
X63486675Y-29217022D01*
X63486356Y-29212161D01*
X63485405Y-29207379D01*
X63431032Y-28934026D01*
X63431030Y-28934020D01*
X63430081Y-28929247D01*
X63337359Y-28656098D01*
X63209778Y-28397389D01*
X63049520Y-28157546D01*
X62859327Y-27940673D01*
X62642454Y-27750480D01*
X62402611Y-27590222D01*
X62143902Y-27462641D01*
X61870753Y-27369919D01*
X61865980Y-27368970D01*
X61865974Y-27368968D01*
X61592621Y-27314595D01*
X61592618Y-27314595D01*
X61587839Y-27313644D01*
X61582978Y-27313325D01*
X61582975Y-27313325D01*
X61304867Y-27295097D01*
X61300000Y-27294778D01*
X61295133Y-27295097D01*
X61017025Y-27313325D01*
X61017022Y-27313325D01*
X61012161Y-27313644D01*
X61007382Y-27314595D01*
X61007379Y-27314595D01*
X60734026Y-27368968D01*
X60734020Y-27368970D01*
X60729247Y-27369919D01*
X60456098Y-27462641D01*
X60197389Y-27590222D01*
X59957546Y-27750480D01*
X59740673Y-27940673D01*
X59550480Y-28157546D01*
X59390222Y-28397389D01*
X59262641Y-28656098D01*
X59169919Y-28929247D01*
X59168970Y-28934020D01*
X59168968Y-28934026D01*
X59114595Y-29207379D01*
X59113644Y-29212161D01*
X59113325Y-29217022D01*
X59113325Y-29217025D01*
X59112255Y-29233349D01*
X59094778Y-29500000D01*
X52370500Y-29500000D01*
X52370500Y-28081802D01*
X52390462Y-28007302D01*
X52417418Y-27976288D01*
X52415955Y-27974794D01*
X52538318Y-27854968D01*
X52538319Y-27854966D01*
X52544268Y-27849141D01*
X52548779Y-27842142D01*
X52548781Y-27842139D01*
X52633213Y-27711125D01*
X52641554Y-27698183D01*
X52645234Y-27688073D01*
X52700129Y-27537250D01*
X52700129Y-27537249D01*
X52702978Y-27529422D01*
X52709553Y-27477372D01*
X52719913Y-27395366D01*
X52719913Y-27395361D01*
X52720500Y-27390717D01*
X52720500Y-26694845D01*
X52705546Y-26561528D01*
X52683607Y-26498527D01*
X52677958Y-26421607D01*
X52711527Y-26352167D01*
X52775318Y-26308815D01*
X52824319Y-26300527D01*
X56457879Y-26300527D01*
X56468526Y-26300908D01*
X56472772Y-26301212D01*
X56485401Y-26304381D01*
X56486709Y-26304246D01*
X56501289Y-26304196D01*
X56501290Y-26304196D01*
X56633096Y-26303739D01*
X56725681Y-26303419D01*
X56856654Y-26283224D01*
X56957642Y-26267652D01*
X56957646Y-26267651D01*
X56963146Y-26266803D01*
X56968458Y-26265145D01*
X56968463Y-26265144D01*
X57187186Y-26196881D01*
X57187194Y-26196878D01*
X57192506Y-26195220D01*
X57408644Y-26090267D01*
X57413241Y-26087111D01*
X57413245Y-26087109D01*
X57436363Y-26071240D01*
X57509082Y-26045535D01*
X57584910Y-26059633D01*
G37*
%TD.AperFunction*%
%TA.AperFunction,Conductor*%
G36*
X25885264Y-26059614D02*
G01*
X25938668Y-26103077D01*
X26007379Y-26192622D01*
X26015128Y-26198568D01*
X26106381Y-26268589D01*
X26122375Y-26280862D01*
X26256291Y-26336331D01*
X26400000Y-26355251D01*
X26543709Y-26336331D01*
X26677625Y-26280862D01*
X26709296Y-26256560D01*
X26780550Y-26227045D01*
X26857018Y-26237111D01*
X26890701Y-26256557D01*
X26922375Y-26280862D01*
X27056291Y-26336331D01*
X27200000Y-26355251D01*
X27343709Y-26336331D01*
X27477625Y-26280862D01*
X27509296Y-26256560D01*
X27580550Y-26227045D01*
X27657018Y-26237111D01*
X27690701Y-26256557D01*
X27722375Y-26280862D01*
X27856291Y-26336331D01*
X28000000Y-26355251D01*
X28143709Y-26336331D01*
X28277625Y-26280862D01*
X28293620Y-26268589D01*
X28384872Y-26198568D01*
X28392621Y-26192622D01*
X28429427Y-26144656D01*
X28461103Y-26103376D01*
X28522293Y-26056423D01*
X28598762Y-26046357D01*
X28663637Y-26071240D01*
X28686755Y-26087109D01*
X28686759Y-26087111D01*
X28691356Y-26090267D01*
X28907494Y-26195220D01*
X28912806Y-26196878D01*
X28912814Y-26196881D01*
X29131537Y-26265144D01*
X29131542Y-26265145D01*
X29136854Y-26266803D01*
X29142354Y-26267651D01*
X29142358Y-26267652D01*
X29243346Y-26283224D01*
X29374319Y-26303419D01*
X29561155Y-26304066D01*
X29598247Y-26304194D01*
X29613291Y-26304246D01*
X29614599Y-26304381D01*
X29627228Y-26301212D01*
X29631474Y-26300908D01*
X29642121Y-26300527D01*
X40953658Y-26300527D01*
X41028158Y-26320489D01*
X41082696Y-26375027D01*
X41102658Y-26449527D01*
X41082696Y-26524027D01*
X41028158Y-26578565D01*
X41009695Y-26587252D01*
X41004032Y-26588612D01*
X40996055Y-26592729D01*
X40996053Y-26592730D01*
X40861353Y-26662254D01*
X40853369Y-26666375D01*
X40846602Y-26672279D01*
X40846598Y-26672281D01*
X40743077Y-26762588D01*
X40725604Y-26777831D01*
X40628113Y-26916547D01*
X40566524Y-27074513D01*
X40544394Y-27242611D01*
X40545380Y-27251542D01*
X40545380Y-27251543D01*
X40546841Y-27264778D01*
X40562999Y-27411135D01*
X40566087Y-27419572D01*
X40566087Y-27419574D01*
X40569304Y-27428364D01*
X40621266Y-27570356D01*
X40626275Y-27577811D01*
X40626276Y-27577812D01*
X40707162Y-27698183D01*
X40715830Y-27711083D01*
X40722472Y-27717126D01*
X40722473Y-27717128D01*
X40803216Y-27790598D01*
X40841233Y-27825191D01*
X40849128Y-27829478D01*
X40849130Y-27829479D01*
X40982344Y-27901808D01*
X40982347Y-27901809D01*
X40990235Y-27906092D01*
X41072234Y-27927604D01*
X41145549Y-27946838D01*
X41145551Y-27946838D01*
X41154233Y-27949116D01*
X41254187Y-27950686D01*
X41328364Y-27971816D01*
X41357206Y-27994309D01*
X41888967Y-28526070D01*
X41900620Y-28539183D01*
X41920804Y-28564786D01*
X41929967Y-28571119D01*
X41968758Y-28597929D01*
X41972566Y-28600650D01*
X41997559Y-28619110D01*
X42019493Y-28635311D01*
X42026310Y-28637705D01*
X42032245Y-28641807D01*
X42042863Y-28645165D01*
X42042865Y-28645166D01*
X42087815Y-28659382D01*
X42092212Y-28660848D01*
X42147307Y-28680196D01*
X42153432Y-28680437D01*
X42158184Y-28681637D01*
X42159576Y-28682077D01*
X42160539Y-28682382D01*
X42225549Y-28723884D01*
X42261099Y-28792330D01*
X42257663Y-28869382D01*
X42220960Y-28929803D01*
X41044904Y-30105859D01*
X40978109Y-30144423D01*
X40939545Y-30149500D01*
X32586472Y-30149500D01*
X32511972Y-30129538D01*
X32457434Y-30075000D01*
X32437472Y-30000500D01*
X32457434Y-29926000D01*
X32465471Y-29913553D01*
X32513121Y-29847240D01*
X32513123Y-29847237D01*
X32518361Y-29839947D01*
X32538137Y-29790754D01*
X32578251Y-29690969D01*
X32578252Y-29690964D01*
X32581601Y-29682634D01*
X32605490Y-29514778D01*
X32605645Y-29500000D01*
X32585276Y-29331680D01*
X32525345Y-29173077D01*
X32429312Y-29033349D01*
X32422604Y-29027372D01*
X32309428Y-28926535D01*
X32309424Y-28926532D01*
X32302721Y-28920560D01*
X32294781Y-28916356D01*
X32294780Y-28916355D01*
X32160823Y-28845429D01*
X32152881Y-28841224D01*
X32144168Y-28839035D01*
X32144167Y-28839035D01*
X32059603Y-28817794D01*
X31988441Y-28799919D01*
X31884002Y-28799372D01*
X31827873Y-28799078D01*
X31818895Y-28799031D01*
X31810164Y-28801127D01*
X31810165Y-28801127D01*
X31662765Y-28836515D01*
X31662762Y-28836516D01*
X31654032Y-28838612D01*
X31646053Y-28842730D01*
X31646051Y-28842731D01*
X31640824Y-28845429D01*
X31503369Y-28916375D01*
X31496593Y-28922286D01*
X31489174Y-28927328D01*
X31488093Y-28925738D01*
X31429199Y-28954594D01*
X31352249Y-28949353D01*
X31315470Y-28930735D01*
X31309427Y-28926535D01*
X31302721Y-28920560D01*
X31152881Y-28841224D01*
X31144168Y-28839035D01*
X31144167Y-28839035D01*
X31059603Y-28817794D01*
X30988441Y-28799919D01*
X30884002Y-28799372D01*
X30827873Y-28799078D01*
X30818895Y-28799031D01*
X30810164Y-28801127D01*
X30810165Y-28801127D01*
X30662765Y-28836515D01*
X30662762Y-28836516D01*
X30654032Y-28838612D01*
X30646053Y-28842730D01*
X30646051Y-28842731D01*
X30511355Y-28912253D01*
X30503369Y-28916375D01*
X30496602Y-28922279D01*
X30496598Y-28922281D01*
X30382373Y-29021926D01*
X30375604Y-29027831D01*
X30370439Y-29035180D01*
X30361523Y-29047866D01*
X30278113Y-29166547D01*
X30216524Y-29324513D01*
X30194394Y-29492611D01*
X30212999Y-29661135D01*
X30216087Y-29669572D01*
X30216087Y-29669574D01*
X30228371Y-29703142D01*
X30271266Y-29820356D01*
X30276275Y-29827811D01*
X30276276Y-29827812D01*
X30358669Y-29950426D01*
X30365830Y-29961083D01*
X30372472Y-29967126D01*
X30372473Y-29967128D01*
X30483349Y-30068017D01*
X30491233Y-30075191D01*
X30499128Y-30079478D01*
X30499130Y-30079479D01*
X30632344Y-30151808D01*
X30632347Y-30151809D01*
X30640235Y-30156092D01*
X30648919Y-30158370D01*
X30648921Y-30158371D01*
X30688309Y-30168704D01*
X30755305Y-30206917D01*
X30794219Y-30273509D01*
X30799500Y-30312827D01*
X30799500Y-30546277D01*
X30805740Y-30565480D01*
X30811197Y-30588213D01*
X30814354Y-30608148D01*
X30823441Y-30625981D01*
X30823518Y-30626133D01*
X30832467Y-30647739D01*
X30838704Y-30666934D01*
X30845594Y-30676417D01*
X30845597Y-30676423D01*
X30850570Y-30683267D01*
X30862785Y-30703200D01*
X30866625Y-30710736D01*
X30866627Y-30710739D01*
X30871950Y-30721186D01*
X30894513Y-30743749D01*
X30894516Y-30743753D01*
X31339106Y-31188342D01*
X31428814Y-31278050D01*
X31439259Y-31283372D01*
X31446803Y-31287216D01*
X31466739Y-31299433D01*
X31483066Y-31311296D01*
X31494220Y-31314920D01*
X31494222Y-31314921D01*
X31502264Y-31317534D01*
X31523862Y-31326480D01*
X31531402Y-31330322D01*
X31531405Y-31330323D01*
X31541852Y-31335646D01*
X31561804Y-31338806D01*
X31584520Y-31344260D01*
X31603723Y-31350499D01*
X31635633Y-31350499D01*
X31635637Y-31350500D01*
X35413397Y-31350500D01*
X35487897Y-31370462D01*
X35542435Y-31425000D01*
X35562397Y-31499500D01*
X35542435Y-31574000D01*
X35535302Y-31585175D01*
X35478113Y-31666547D01*
X35416524Y-31824513D01*
X35415351Y-31833424D01*
X35414163Y-31838051D01*
X35376302Y-31905247D01*
X35309916Y-31944510D01*
X35269843Y-31950000D01*
X30273821Y-31950000D01*
X30199321Y-31930038D01*
X30168462Y-31906359D01*
X29519141Y-31257038D01*
X29480577Y-31190243D01*
X29475500Y-31151679D01*
X29475500Y-28397576D01*
X29495462Y-28323076D01*
X29503500Y-28310628D01*
X29513116Y-28297247D01*
X29513118Y-28297243D01*
X29518361Y-28289947D01*
X29529628Y-28261920D01*
X29578251Y-28140969D01*
X29578252Y-28140964D01*
X29581601Y-28132634D01*
X29605490Y-27964778D01*
X29605645Y-27950000D01*
X29585276Y-27781680D01*
X29525345Y-27623077D01*
X29429312Y-27483349D01*
X29422567Y-27477339D01*
X29309428Y-27376535D01*
X29309424Y-27376532D01*
X29302721Y-27370560D01*
X29294783Y-27366357D01*
X29294780Y-27366355D01*
X29160823Y-27295429D01*
X29152881Y-27291224D01*
X29144168Y-27289035D01*
X29144167Y-27289035D01*
X29027579Y-27259750D01*
X28988441Y-27249919D01*
X28884002Y-27249372D01*
X28827873Y-27249078D01*
X28818895Y-27249031D01*
X28810164Y-27251127D01*
X28810165Y-27251127D01*
X28662765Y-27286515D01*
X28662762Y-27286516D01*
X28654032Y-27288612D01*
X28646053Y-27292730D01*
X28646051Y-27292731D01*
X28511613Y-27362120D01*
X28503369Y-27366375D01*
X28496602Y-27372279D01*
X28496598Y-27372281D01*
X28393017Y-27462641D01*
X28375604Y-27477831D01*
X28278113Y-27616547D01*
X28216524Y-27774513D01*
X28194394Y-27942611D01*
X28212999Y-28111135D01*
X28216087Y-28119572D01*
X28216087Y-28119574D01*
X28229983Y-28157546D01*
X28271266Y-28270356D01*
X28276275Y-28277811D01*
X28276276Y-28277812D01*
X28356754Y-28397576D01*
X28365830Y-28411083D01*
X28491233Y-28525191D01*
X28499129Y-28529478D01*
X28506449Y-28534680D01*
X28505272Y-28536336D01*
X28552545Y-28581197D01*
X28574500Y-28659047D01*
X28574500Y-31364428D01*
X28573467Y-31381941D01*
X28569636Y-31414310D01*
X28571637Y-31425266D01*
X28571637Y-31425269D01*
X28580111Y-31471668D01*
X28580879Y-31476284D01*
X28587386Y-31519560D01*
X28589551Y-31533962D01*
X28592679Y-31540475D01*
X28593975Y-31547573D01*
X28620578Y-31598785D01*
X28620843Y-31599296D01*
X28622926Y-31603465D01*
X28648191Y-31656079D01*
X28653094Y-31661383D01*
X28656421Y-31667788D01*
X28660725Y-31672828D01*
X28697657Y-31709760D01*
X28701711Y-31713977D01*
X28740146Y-31755556D01*
X28746754Y-31759394D01*
X28751902Y-31764005D01*
X29435647Y-32447750D01*
X29474211Y-32514545D01*
X29474211Y-32591673D01*
X29435647Y-32658468D01*
X29368852Y-32697032D01*
X29352245Y-32700482D01*
X29150171Y-32730588D01*
X29150168Y-32730589D01*
X29144642Y-32731412D01*
X29042035Y-32762891D01*
X28919891Y-32800363D01*
X28919884Y-32800366D01*
X28914557Y-32802000D01*
X28697580Y-32906131D01*
X28663328Y-32929425D01*
X28590501Y-32954813D01*
X28514734Y-32940386D01*
X28461330Y-32896923D01*
X28398567Y-32815129D01*
X28392621Y-32807380D01*
X28309295Y-32743441D01*
X28285373Y-32725085D01*
X28285370Y-32725083D01*
X28277625Y-32719140D01*
X28143709Y-32663671D01*
X28000000Y-32644751D01*
X27856291Y-32663671D01*
X27722375Y-32719140D01*
X27690704Y-32743442D01*
X27619450Y-32772957D01*
X27542982Y-32762891D01*
X27509299Y-32743445D01*
X27477625Y-32719140D01*
X27343709Y-32663671D01*
X27200000Y-32644751D01*
X27056291Y-32663671D01*
X26922375Y-32719140D01*
X26890704Y-32743442D01*
X26819450Y-32772957D01*
X26742982Y-32762891D01*
X26709299Y-32743445D01*
X26677625Y-32719140D01*
X26543709Y-32663671D01*
X26400000Y-32644751D01*
X26256291Y-32663671D01*
X26122375Y-32719140D01*
X26114630Y-32725083D01*
X26114627Y-32725085D01*
X26090705Y-32743441D01*
X26007379Y-32807380D01*
X26001433Y-32815129D01*
X25938670Y-32896923D01*
X25877481Y-32943875D01*
X25801012Y-32953942D01*
X25736672Y-32929425D01*
X25702420Y-32906131D01*
X25485443Y-32802000D01*
X25480116Y-32800366D01*
X25480109Y-32800363D01*
X25357965Y-32762891D01*
X25255358Y-32731412D01*
X25249832Y-32730589D01*
X25249829Y-32730588D01*
X25022842Y-32696770D01*
X25022838Y-32696770D01*
X25017316Y-32695947D01*
X24904489Y-32696160D01*
X24810076Y-32696337D01*
X24810074Y-32696337D01*
X24805524Y-32696346D01*
X24800000Y-32695372D01*
X24794357Y-32696367D01*
X24777947Y-32696398D01*
X24776636Y-32696269D01*
X24772129Y-32697426D01*
X24762836Y-32697985D01*
X24462088Y-32681678D01*
X24446050Y-32679934D01*
X24258457Y-32649181D01*
X24120064Y-32626492D01*
X24104321Y-32623027D01*
X23844902Y-32551000D01*
X23786015Y-32534650D01*
X23770726Y-32529498D01*
X23463860Y-32407231D01*
X23449218Y-32400457D01*
X23157370Y-32245729D01*
X23143546Y-32237412D01*
X22870123Y-32052027D01*
X22857280Y-32042263D01*
X22756129Y-31956345D01*
X22605516Y-31828414D01*
X22593807Y-31817322D01*
X22592690Y-31816142D01*
X22491919Y-31709760D01*
X22366640Y-31577504D01*
X22356195Y-31565208D01*
X22156286Y-31302233D01*
X22147232Y-31288880D01*
X22011049Y-31062542D01*
X21976924Y-31005826D01*
X21969367Y-30991571D01*
X21830665Y-30691771D01*
X21824694Y-30676784D01*
X21736909Y-30416248D01*
X21719218Y-30363742D01*
X21714904Y-30348206D01*
X21643892Y-30025591D01*
X21641282Y-30009679D01*
X21641073Y-30007752D01*
X21605566Y-29681272D01*
X21604693Y-29665162D01*
X21604693Y-29500000D01*
X22594778Y-29500000D01*
X22595097Y-29504867D01*
X22612041Y-29763377D01*
X22613644Y-29787839D01*
X22614595Y-29792618D01*
X22614595Y-29792621D01*
X22668750Y-30064874D01*
X22669919Y-30070753D01*
X22762641Y-30343902D01*
X22890222Y-30602611D01*
X23050480Y-30842454D01*
X23240673Y-31059327D01*
X23457546Y-31249520D01*
X23697389Y-31409778D01*
X23956098Y-31537359D01*
X24229247Y-31630081D01*
X24234020Y-31631030D01*
X24234026Y-31631032D01*
X24507379Y-31685405D01*
X24507382Y-31685405D01*
X24512161Y-31686356D01*
X24517022Y-31686675D01*
X24517025Y-31686675D01*
X24795133Y-31704903D01*
X24800000Y-31705222D01*
X24804867Y-31704903D01*
X25082975Y-31686675D01*
X25082978Y-31686675D01*
X25087839Y-31686356D01*
X25092618Y-31685405D01*
X25092621Y-31685405D01*
X25365974Y-31631032D01*
X25365980Y-31631030D01*
X25370753Y-31630081D01*
X25643902Y-31537359D01*
X25902611Y-31409778D01*
X26142454Y-31249520D01*
X26359327Y-31059327D01*
X26549520Y-30842454D01*
X26709778Y-30602611D01*
X26837359Y-30343902D01*
X26930081Y-30070753D01*
X26931251Y-30064874D01*
X26985405Y-29792621D01*
X26985405Y-29792618D01*
X26986356Y-29787839D01*
X26987960Y-29763377D01*
X27004903Y-29504867D01*
X27005222Y-29500000D01*
X26987745Y-29233349D01*
X26986675Y-29217025D01*
X26986675Y-29217022D01*
X26986356Y-29212161D01*
X26985405Y-29207379D01*
X26931032Y-28934026D01*
X26931030Y-28934020D01*
X26930081Y-28929247D01*
X26837359Y-28656098D01*
X26709778Y-28397389D01*
X26549520Y-28157546D01*
X26359327Y-27940673D01*
X26142454Y-27750480D01*
X25902611Y-27590222D01*
X25643902Y-27462641D01*
X25370753Y-27369919D01*
X25365980Y-27368970D01*
X25365974Y-27368968D01*
X25092621Y-27314595D01*
X25092618Y-27314595D01*
X25087839Y-27313644D01*
X25082978Y-27313325D01*
X25082975Y-27313325D01*
X24804867Y-27295097D01*
X24800000Y-27294778D01*
X24795133Y-27295097D01*
X24517025Y-27313325D01*
X24517022Y-27313325D01*
X24512161Y-27313644D01*
X24507382Y-27314595D01*
X24507379Y-27314595D01*
X24234026Y-27368968D01*
X24234020Y-27368970D01*
X24229247Y-27369919D01*
X23956098Y-27462641D01*
X23697389Y-27590222D01*
X23457546Y-27750480D01*
X23240673Y-27940673D01*
X23050480Y-28157546D01*
X22890222Y-28397389D01*
X22762641Y-28656098D01*
X22669919Y-28929247D01*
X22668970Y-28934020D01*
X22668968Y-28934026D01*
X22614595Y-29207379D01*
X22613644Y-29212161D01*
X22613325Y-29217022D01*
X22613325Y-29217025D01*
X22612255Y-29233349D01*
X22594778Y-29500000D01*
X21604693Y-29500000D01*
X21604693Y-29334838D01*
X21605566Y-29318728D01*
X21614047Y-29240749D01*
X21641283Y-28990313D01*
X21643893Y-28974400D01*
X21645669Y-28966335D01*
X21714904Y-28651794D01*
X21719219Y-28636254D01*
X21719259Y-28636137D01*
X21799702Y-28397389D01*
X21824694Y-28323216D01*
X21830665Y-28308229D01*
X21969367Y-28008429D01*
X21976924Y-27994174D01*
X22009115Y-27940673D01*
X22147232Y-27711120D01*
X22156286Y-27697767D01*
X22356195Y-27434792D01*
X22366640Y-27422496D01*
X22543558Y-27235725D01*
X22593810Y-27182675D01*
X22605520Y-27171583D01*
X22608591Y-27168975D01*
X22857285Y-26957733D01*
X22870123Y-26947973D01*
X23143546Y-26762588D01*
X23157370Y-26754271D01*
X23449218Y-26599543D01*
X23463860Y-26592769D01*
X23770726Y-26470502D01*
X23786015Y-26465350D01*
X23943562Y-26421607D01*
X24104321Y-26376973D01*
X24120064Y-26373508D01*
X24258457Y-26350819D01*
X24446050Y-26320066D01*
X24462088Y-26318322D01*
X24762836Y-26302015D01*
X24772129Y-26302574D01*
X24776636Y-26303731D01*
X24777947Y-26303602D01*
X24794357Y-26303633D01*
X24800000Y-26304628D01*
X24805524Y-26303654D01*
X24810091Y-26303663D01*
X24810092Y-26303663D01*
X24900809Y-26303834D01*
X25017316Y-26304053D01*
X25022838Y-26303230D01*
X25022842Y-26303230D01*
X25249829Y-26269412D01*
X25249832Y-26269411D01*
X25255358Y-26268588D01*
X25390770Y-26227045D01*
X25480110Y-26199637D01*
X25480117Y-26199634D01*
X25485444Y-26198000D01*
X25702420Y-26093869D01*
X25707025Y-26090737D01*
X25707041Y-26090728D01*
X25736668Y-26070578D01*
X25809497Y-26045188D01*
X25885264Y-26059614D01*
G37*
%TD.AperFunction*%
%TA.AperFunction,Conductor*%
G36*
X51089739Y-26320489D02*
G01*
X51144277Y-26375027D01*
X51164239Y-26449527D01*
X51155253Y-26500487D01*
X51139872Y-26542747D01*
X51137022Y-26550578D01*
X51135978Y-26558842D01*
X51131315Y-26595758D01*
X51119500Y-26689283D01*
X51119500Y-27385155D01*
X51134454Y-27518472D01*
X51193515Y-27688073D01*
X51197929Y-27695137D01*
X51197930Y-27695139D01*
X51242301Y-27766147D01*
X51288684Y-27840375D01*
X51415230Y-27967807D01*
X51415808Y-27968174D01*
X51459416Y-28027757D01*
X51469500Y-28081639D01*
X51469500Y-29248466D01*
X51449538Y-29322966D01*
X51395000Y-29377504D01*
X51320500Y-29397466D01*
X51246000Y-29377504D01*
X51197705Y-29332861D01*
X51193509Y-29326755D01*
X51129312Y-29233349D01*
X51091921Y-29200035D01*
X51049578Y-29135574D01*
X51043698Y-29110939D01*
X51037106Y-29067088D01*
X51037105Y-29067085D01*
X51035449Y-29056069D01*
X51032321Y-29049556D01*
X51031025Y-29042458D01*
X51004146Y-28990712D01*
X51002069Y-28986556D01*
X50981629Y-28943990D01*
X50976809Y-28933952D01*
X50971907Y-28928649D01*
X50968579Y-28922242D01*
X50964275Y-28917203D01*
X50927343Y-28880271D01*
X50923288Y-28876053D01*
X50892415Y-28842654D01*
X50892413Y-28842653D01*
X50884854Y-28834475D01*
X50878246Y-28830637D01*
X50873098Y-28826026D01*
X49353678Y-27306606D01*
X49342025Y-27293493D01*
X49328736Y-27276636D01*
X49328735Y-27276636D01*
X49321841Y-27267890D01*
X49312679Y-27261558D01*
X49312677Y-27261556D01*
X49273879Y-27234741D01*
X49270071Y-27232020D01*
X49232112Y-27203983D01*
X49232111Y-27203982D01*
X49223153Y-27197366D01*
X49216337Y-27194973D01*
X49210400Y-27190869D01*
X49154801Y-27173285D01*
X49150389Y-27171813D01*
X49095338Y-27152481D01*
X49088124Y-27152198D01*
X49081239Y-27150020D01*
X49074632Y-27149500D01*
X49022398Y-27149500D01*
X49016548Y-27149385D01*
X48971102Y-27147599D01*
X48971100Y-27147599D01*
X48959975Y-27147162D01*
X48952590Y-27149120D01*
X48945687Y-27149500D01*
X48135572Y-27149500D01*
X48118059Y-27148467D01*
X48117856Y-27148443D01*
X48085690Y-27144636D01*
X48074734Y-27146637D01*
X48074731Y-27146637D01*
X48028332Y-27155111D01*
X48023716Y-27155879D01*
X47977057Y-27162894D01*
X47977055Y-27162895D01*
X47966038Y-27164551D01*
X47959525Y-27167679D01*
X47952427Y-27168975D01*
X47900687Y-27195852D01*
X47896535Y-27197926D01*
X47843921Y-27223191D01*
X47838617Y-27228094D01*
X47832212Y-27231421D01*
X47827172Y-27235725D01*
X47790240Y-27272657D01*
X47786022Y-27276712D01*
X47752623Y-27307585D01*
X47752622Y-27307587D01*
X47744444Y-27315146D01*
X47740606Y-27321754D01*
X47735995Y-27326902D01*
X47324362Y-27738535D01*
X47257567Y-27777099D01*
X47219003Y-27782176D01*
X44183777Y-27782176D01*
X44109277Y-27762214D01*
X44054739Y-27707676D01*
X44034777Y-27633176D01*
X44043763Y-27582215D01*
X44060129Y-27537250D01*
X44060129Y-27537249D01*
X44062978Y-27529422D01*
X44069553Y-27477372D01*
X44079913Y-27395366D01*
X44079913Y-27395361D01*
X44080500Y-27390717D01*
X44080500Y-26694845D01*
X44065546Y-26561528D01*
X44043607Y-26498527D01*
X44037958Y-26421607D01*
X44071527Y-26352167D01*
X44135318Y-26308815D01*
X44184319Y-26300527D01*
X51015239Y-26300527D01*
X51089739Y-26320489D01*
G37*
%TD.AperFunction*%
%TD*%
%TA.AperFunction,Conductor*%
%TO.N,GND*%
G36*
X57583948Y-35657899D02*
G01*
X57637351Y-35701361D01*
X57707378Y-35792622D01*
X57720183Y-35802448D01*
X57812861Y-35873562D01*
X57822374Y-35880862D01*
X57956290Y-35936331D01*
X58099999Y-35955251D01*
X58243708Y-35936331D01*
X58377624Y-35880862D01*
X58409295Y-35856560D01*
X58480549Y-35827045D01*
X58557017Y-35837111D01*
X58590700Y-35856557D01*
X58622374Y-35880862D01*
X58756290Y-35936331D01*
X58899999Y-35955251D01*
X59043708Y-35936331D01*
X59177624Y-35880862D01*
X59209295Y-35856560D01*
X59280549Y-35827045D01*
X59357017Y-35837111D01*
X59390700Y-35856557D01*
X59422374Y-35880862D01*
X59556290Y-35936331D01*
X59699999Y-35955251D01*
X59843708Y-35936331D01*
X59977624Y-35880862D01*
X59987138Y-35873562D01*
X60079815Y-35802448D01*
X60092620Y-35792622D01*
X60161331Y-35703076D01*
X60222519Y-35656125D01*
X60298987Y-35646058D01*
X60363328Y-35670575D01*
X60397580Y-35693869D01*
X60614556Y-35798000D01*
X60619883Y-35799634D01*
X60619890Y-35799637D01*
X60709230Y-35827045D01*
X60844642Y-35868588D01*
X60850168Y-35869411D01*
X60850171Y-35869412D01*
X61077158Y-35903230D01*
X61077162Y-35903230D01*
X61082684Y-35904053D01*
X61195512Y-35903840D01*
X61289925Y-35903663D01*
X61289927Y-35903663D01*
X61294477Y-35903654D01*
X61300001Y-35904628D01*
X61305644Y-35903633D01*
X61322053Y-35903602D01*
X61323364Y-35903731D01*
X61327871Y-35902574D01*
X61337165Y-35902015D01*
X61637913Y-35918322D01*
X61653951Y-35920066D01*
X61830446Y-35949000D01*
X61979937Y-35973508D01*
X61995680Y-35976973D01*
X62234307Y-36043227D01*
X62313986Y-36065350D01*
X62329275Y-36070502D01*
X62636141Y-36192769D01*
X62650783Y-36199543D01*
X62942631Y-36354271D01*
X62956455Y-36362588D01*
X63229878Y-36547973D01*
X63242721Y-36557737D01*
X63492115Y-36769573D01*
X63494481Y-36771583D01*
X63506191Y-36782675D01*
X63556702Y-36835999D01*
X63733361Y-37022496D01*
X63743806Y-37034792D01*
X63943715Y-37297767D01*
X63952769Y-37311120D01*
X63961698Y-37325960D01*
X64090887Y-37540673D01*
X64123077Y-37594174D01*
X64130634Y-37608429D01*
X64269336Y-37908229D01*
X64275307Y-37923216D01*
X64294913Y-37981404D01*
X64380782Y-38236253D01*
X64380782Y-38236254D01*
X64385097Y-38251794D01*
X64456108Y-38574399D01*
X64456108Y-38574400D01*
X64458718Y-38590313D01*
X64487841Y-38858099D01*
X64494435Y-38918728D01*
X64495308Y-38934838D01*
X64495308Y-39265162D01*
X64494435Y-39281271D01*
X64460508Y-39593232D01*
X64458719Y-39609679D01*
X64456109Y-39625591D01*
X64387059Y-39939293D01*
X64385098Y-39948201D01*
X64380783Y-39963742D01*
X64329111Y-40117100D01*
X64275307Y-40276784D01*
X64269336Y-40291771D01*
X64130634Y-40591571D01*
X64123077Y-40605826D01*
X64090541Y-40659902D01*
X63952769Y-40888880D01*
X63943715Y-40902233D01*
X63743806Y-41165208D01*
X63733361Y-41177504D01*
X63607956Y-41309893D01*
X63555511Y-41365259D01*
X63506194Y-41417322D01*
X63494485Y-41428414D01*
X63465730Y-41452838D01*
X63242721Y-41642263D01*
X63229878Y-41652027D01*
X62956455Y-41837412D01*
X62942631Y-41845729D01*
X62650783Y-42000457D01*
X62636141Y-42007231D01*
X62329275Y-42129498D01*
X62313986Y-42134650D01*
X61995680Y-42223027D01*
X61979937Y-42226492D01*
X61849764Y-42247833D01*
X61653951Y-42279934D01*
X61637914Y-42281678D01*
X61501123Y-42289096D01*
X61337163Y-42297986D01*
X61327871Y-42297425D01*
X61323364Y-42296268D01*
X61322053Y-42296397D01*
X61305638Y-42296366D01*
X61300001Y-42295372D01*
X61294482Y-42296345D01*
X61289904Y-42296336D01*
X61289903Y-42296336D01*
X61201873Y-42296171D01*
X61082684Y-42295946D01*
X61077162Y-42296769D01*
X61077158Y-42296769D01*
X60850171Y-42330587D01*
X60850168Y-42330588D01*
X60844642Y-42331411D01*
X60742034Y-42362890D01*
X60619890Y-42400362D01*
X60619883Y-42400365D01*
X60614556Y-42401999D01*
X60397580Y-42506130D01*
X60363328Y-42529424D01*
X60290501Y-42554812D01*
X60214734Y-42540385D01*
X60161330Y-42496922D01*
X60098566Y-42415127D01*
X60092620Y-42407378D01*
X60047759Y-42372955D01*
X59985372Y-42325083D01*
X59985369Y-42325081D01*
X59977624Y-42319138D01*
X59843708Y-42263669D01*
X59699999Y-42244749D01*
X59556290Y-42263669D01*
X59422374Y-42319138D01*
X59390703Y-42343440D01*
X59319449Y-42372955D01*
X59242981Y-42362889D01*
X59209298Y-42343443D01*
X59177624Y-42319138D01*
X59043708Y-42263669D01*
X58899999Y-42244749D01*
X58756290Y-42263669D01*
X58622374Y-42319138D01*
X58590703Y-42343440D01*
X58519449Y-42372955D01*
X58442981Y-42362889D01*
X58409298Y-42343443D01*
X58377624Y-42319138D01*
X58243708Y-42263669D01*
X58099999Y-42244749D01*
X57956290Y-42263669D01*
X57822374Y-42319138D01*
X57814629Y-42325081D01*
X57814626Y-42325083D01*
X57752239Y-42372955D01*
X57707378Y-42407378D01*
X57701432Y-42415127D01*
X57638895Y-42496626D01*
X57577705Y-42543578D01*
X57501237Y-42553645D01*
X57436362Y-42528763D01*
X57413241Y-42512892D01*
X57413238Y-42512890D01*
X57408643Y-42509736D01*
X57192506Y-42404783D01*
X57187196Y-42403126D01*
X57187189Y-42403123D01*
X56968463Y-42334859D01*
X56968458Y-42334858D01*
X56963146Y-42333200D01*
X56957646Y-42332352D01*
X56957642Y-42332351D01*
X56847721Y-42315402D01*
X56725681Y-42296584D01*
X56538946Y-42295938D01*
X56501754Y-42295809D01*
X56486710Y-42295757D01*
X56485402Y-42295622D01*
X56472772Y-42298791D01*
X56468570Y-42299092D01*
X56457922Y-42299473D01*
X45146444Y-42299473D01*
X45071944Y-42279511D01*
X45017406Y-42224973D01*
X44997444Y-42150473D01*
X45017406Y-42075973D01*
X45071944Y-42021435D01*
X45087228Y-42014341D01*
X45089030Y-42013928D01*
X45102346Y-42007231D01*
X45232472Y-41941784D01*
X45240499Y-41937747D01*
X45348239Y-41845728D01*
X45362595Y-41833467D01*
X45362597Y-41833465D01*
X45369424Y-41827634D01*
X45396290Y-41790246D01*
X45463125Y-41697236D01*
X45463127Y-41697232D01*
X45468362Y-41689947D01*
X45487531Y-41642263D01*
X45528252Y-41540969D01*
X45528253Y-41540964D01*
X45531602Y-41532634D01*
X45555491Y-41364778D01*
X45555646Y-41350000D01*
X45535277Y-41181680D01*
X45475346Y-41023077D01*
X45379313Y-40883349D01*
X45372605Y-40877372D01*
X45259429Y-40776535D01*
X45259425Y-40776532D01*
X45252722Y-40770560D01*
X45244784Y-40766357D01*
X45244781Y-40766355D01*
X45110824Y-40695429D01*
X45102882Y-40691224D01*
X45094169Y-40689035D01*
X45094168Y-40689035D01*
X44997593Y-40664777D01*
X44938442Y-40649919D01*
X44847485Y-40649443D01*
X44773092Y-40629091D01*
X44742907Y-40605804D01*
X44211029Y-40073926D01*
X44199376Y-40060812D01*
X44179197Y-40035215D01*
X44170033Y-40028881D01*
X44131210Y-40002048D01*
X44127436Y-39999352D01*
X44080508Y-39964691D01*
X44073694Y-39962298D01*
X44067756Y-39958194D01*
X44012134Y-39940603D01*
X44007723Y-39939131D01*
X43981426Y-39929896D01*
X43963202Y-39923496D01*
X43963201Y-39923496D01*
X43952694Y-39919806D01*
X43946570Y-39919566D01*
X43941836Y-39918370D01*
X43939467Y-39917621D01*
X43874456Y-39876124D01*
X43838902Y-39807680D01*
X43842333Y-39730628D01*
X43879039Y-39670198D01*
X45055096Y-38494140D01*
X45121891Y-38455576D01*
X45160455Y-38450499D01*
X53513399Y-38450499D01*
X53587899Y-38470461D01*
X53642437Y-38524999D01*
X53662399Y-38599499D01*
X53642437Y-38673999D01*
X53635303Y-38685175D01*
X53578114Y-38766547D01*
X53516525Y-38924513D01*
X53494395Y-39092611D01*
X53513000Y-39261135D01*
X53516088Y-39269572D01*
X53516088Y-39269574D01*
X53523918Y-39290969D01*
X53571267Y-39420356D01*
X53576276Y-39427811D01*
X53576277Y-39427812D01*
X53660031Y-39552451D01*
X53665831Y-39561083D01*
X53672473Y-39567126D01*
X53672474Y-39567128D01*
X53781185Y-39666047D01*
X53791234Y-39675191D01*
X53799129Y-39679478D01*
X53799131Y-39679479D01*
X53932345Y-39751808D01*
X53932348Y-39751809D01*
X53940236Y-39756092D01*
X54022235Y-39777604D01*
X54095550Y-39796838D01*
X54095552Y-39796838D01*
X54104234Y-39799116D01*
X54113210Y-39799257D01*
X54264782Y-39801638D01*
X54273761Y-39801779D01*
X54439030Y-39763928D01*
X54590499Y-39687747D01*
X54597329Y-39681914D01*
X54597333Y-39681911D01*
X54602177Y-39677774D01*
X54671792Y-39644569D01*
X54748682Y-39650620D01*
X54784917Y-39669443D01*
X54791234Y-39675191D01*
X54799127Y-39679476D01*
X54799129Y-39679478D01*
X54932345Y-39751808D01*
X54932348Y-39751809D01*
X54940236Y-39756092D01*
X55022235Y-39777604D01*
X55095550Y-39796838D01*
X55095552Y-39796838D01*
X55104234Y-39799116D01*
X55113210Y-39799257D01*
X55264782Y-39801638D01*
X55273761Y-39801779D01*
X55439030Y-39763928D01*
X55590499Y-39687747D01*
X55641054Y-39644569D01*
X55712595Y-39583467D01*
X55712597Y-39583465D01*
X55719424Y-39577634D01*
X55742428Y-39545621D01*
X55813125Y-39447236D01*
X55813127Y-39447232D01*
X55818362Y-39439947D01*
X55837387Y-39392621D01*
X55878252Y-39290969D01*
X55878253Y-39290964D01*
X55881602Y-39282634D01*
X55905491Y-39114778D01*
X55905646Y-39100000D01*
X55885277Y-38931680D01*
X55825346Y-38773077D01*
X55729313Y-38633349D01*
X55691321Y-38599499D01*
X55609429Y-38526535D01*
X55609425Y-38526532D01*
X55602722Y-38520560D01*
X55594784Y-38516357D01*
X55594781Y-38516355D01*
X55460824Y-38445429D01*
X55452882Y-38441224D01*
X55413202Y-38431257D01*
X55345809Y-38393747D01*
X55306201Y-38327567D01*
X55300500Y-38286746D01*
X55300500Y-38053721D01*
X55294260Y-38034518D01*
X55288803Y-38011784D01*
X55287480Y-38003432D01*
X55285646Y-37991850D01*
X55276481Y-37973863D01*
X55267534Y-37952264D01*
X55261296Y-37933065D01*
X55249431Y-37916735D01*
X55237212Y-37896795D01*
X55233373Y-37889260D01*
X55233373Y-37889259D01*
X55228050Y-37878813D01*
X54693751Y-37344514D01*
X54693744Y-37344508D01*
X54671185Y-37321949D01*
X54656773Y-37314606D01*
X54653194Y-37312782D01*
X54633260Y-37300566D01*
X54626422Y-37295598D01*
X54616932Y-37288703D01*
X54597728Y-37282463D01*
X54576134Y-37273518D01*
X54568598Y-37269678D01*
X54568597Y-37269678D01*
X54558147Y-37264353D01*
X54546563Y-37262518D01*
X54546562Y-37262518D01*
X54540011Y-37261481D01*
X54538212Y-37261196D01*
X54515479Y-37255739D01*
X54496276Y-37249499D01*
X50686472Y-37249499D01*
X50611972Y-37229537D01*
X50557434Y-37174999D01*
X50537472Y-37100499D01*
X50557434Y-37025999D01*
X50565471Y-37013552D01*
X50613121Y-36947239D01*
X50613123Y-36947236D01*
X50618361Y-36939946D01*
X50656753Y-36844444D01*
X50678251Y-36790968D01*
X50678252Y-36790963D01*
X50681601Y-36782633D01*
X50682866Y-36773745D01*
X50685193Y-36765060D01*
X50687515Y-36765682D01*
X50712530Y-36707050D01*
X50774213Y-36660747D01*
X50829774Y-36650000D01*
X54211813Y-36649999D01*
X55826179Y-36649998D01*
X55900679Y-36669960D01*
X55931538Y-36693639D01*
X56580860Y-37342962D01*
X56619424Y-37409757D01*
X56624501Y-37448321D01*
X56624501Y-40203422D01*
X56604539Y-40277922D01*
X56597407Y-40289095D01*
X56578114Y-40316546D01*
X56516525Y-40474512D01*
X56494395Y-40642610D01*
X56495381Y-40651541D01*
X56495381Y-40651542D01*
X56496304Y-40659902D01*
X56513000Y-40811134D01*
X56516088Y-40819571D01*
X56516088Y-40819573D01*
X56523918Y-40840968D01*
X56571267Y-40970355D01*
X56576276Y-40977810D01*
X56576277Y-40977811D01*
X56651540Y-41089814D01*
X56665831Y-41111082D01*
X56672473Y-41117125D01*
X56672474Y-41117127D01*
X56775323Y-41210712D01*
X56791234Y-41225190D01*
X56799129Y-41229477D01*
X56799131Y-41229478D01*
X56932345Y-41301807D01*
X56932348Y-41301808D01*
X56940236Y-41306091D01*
X56977744Y-41315931D01*
X57095550Y-41346837D01*
X57095552Y-41346837D01*
X57104234Y-41349115D01*
X57113210Y-41349256D01*
X57264782Y-41351637D01*
X57273761Y-41351778D01*
X57439030Y-41313927D01*
X57590499Y-41237746D01*
X57612448Y-41219000D01*
X57712595Y-41133466D01*
X57712597Y-41133464D01*
X57719424Y-41127633D01*
X57766047Y-41062750D01*
X57813125Y-40997235D01*
X57813127Y-40997231D01*
X57818362Y-40989946D01*
X57849726Y-40911927D01*
X57878252Y-40840968D01*
X57878253Y-40840963D01*
X57881602Y-40832633D01*
X57905491Y-40664777D01*
X57905646Y-40649999D01*
X57885277Y-40481679D01*
X57825346Y-40323076D01*
X57729313Y-40183348D01*
X57602722Y-40070559D01*
X57594784Y-40066356D01*
X57589466Y-40062660D01*
X57539683Y-40003751D01*
X57525501Y-39940308D01*
X57525501Y-39100000D01*
X59094779Y-39100000D01*
X59095098Y-39104867D01*
X59113062Y-39378939D01*
X59113645Y-39387839D01*
X59114596Y-39392618D01*
X59114596Y-39392621D01*
X59167720Y-39659691D01*
X59169920Y-39670753D01*
X59262642Y-39943902D01*
X59390223Y-40202611D01*
X59550481Y-40442454D01*
X59740674Y-40659327D01*
X59957547Y-40849520D01*
X60197390Y-41009778D01*
X60456099Y-41137359D01*
X60729248Y-41230081D01*
X60734021Y-41231030D01*
X60734027Y-41231032D01*
X61007380Y-41285405D01*
X61007383Y-41285405D01*
X61012162Y-41286356D01*
X61017023Y-41286675D01*
X61017026Y-41286675D01*
X61295134Y-41304903D01*
X61300001Y-41305222D01*
X61304868Y-41304903D01*
X61582976Y-41286675D01*
X61582979Y-41286675D01*
X61587840Y-41286356D01*
X61592619Y-41285405D01*
X61592622Y-41285405D01*
X61865975Y-41231032D01*
X61865981Y-41231030D01*
X61870754Y-41230081D01*
X62143903Y-41137359D01*
X62402612Y-41009778D01*
X62642455Y-40849520D01*
X62859328Y-40659327D01*
X63049521Y-40442454D01*
X63209779Y-40202611D01*
X63337360Y-39943902D01*
X63430082Y-39670753D01*
X63432283Y-39659691D01*
X63485406Y-39392621D01*
X63485406Y-39392618D01*
X63486357Y-39387839D01*
X63486941Y-39378939D01*
X63504904Y-39104867D01*
X63505223Y-39100000D01*
X63492114Y-38899999D01*
X63486676Y-38817025D01*
X63486676Y-38817022D01*
X63486357Y-38812161D01*
X63481603Y-38788261D01*
X63431033Y-38534026D01*
X63431031Y-38534020D01*
X63430082Y-38529247D01*
X63337360Y-38256098D01*
X63209779Y-37997389D01*
X63049521Y-37757546D01*
X62859328Y-37540673D01*
X62642455Y-37350480D01*
X62402612Y-37190222D01*
X62143903Y-37062641D01*
X61870754Y-36969919D01*
X61865981Y-36968970D01*
X61865975Y-36968968D01*
X61592622Y-36914595D01*
X61592619Y-36914595D01*
X61587840Y-36913644D01*
X61582979Y-36913325D01*
X61582976Y-36913325D01*
X61304868Y-36895097D01*
X61300001Y-36894778D01*
X61295134Y-36895097D01*
X61017026Y-36913325D01*
X61017023Y-36913325D01*
X61012162Y-36913644D01*
X61007383Y-36914595D01*
X61007380Y-36914595D01*
X60734027Y-36968968D01*
X60734021Y-36968970D01*
X60729248Y-36969919D01*
X60456099Y-37062641D01*
X60197390Y-37190222D01*
X59957547Y-37350480D01*
X59740674Y-37540673D01*
X59550481Y-37757546D01*
X59390223Y-37997389D01*
X59262642Y-38256098D01*
X59169920Y-38529247D01*
X59168971Y-38534020D01*
X59168969Y-38534026D01*
X59118399Y-38788261D01*
X59113645Y-38812161D01*
X59113326Y-38817022D01*
X59113326Y-38817025D01*
X59107888Y-38899999D01*
X59094779Y-39100000D01*
X57525501Y-39100000D01*
X57525501Y-37235572D01*
X57526534Y-37218059D01*
X57526558Y-37217856D01*
X57530365Y-37185690D01*
X57528364Y-37174734D01*
X57528364Y-37174729D01*
X57519890Y-37128328D01*
X57519122Y-37123715D01*
X57514909Y-37095695D01*
X57510450Y-37066038D01*
X57507324Y-37059528D01*
X57506027Y-37052427D01*
X57479138Y-37000662D01*
X57477055Y-36996493D01*
X57463838Y-36968968D01*
X57451810Y-36943921D01*
X57446909Y-36938620D01*
X57443581Y-36932212D01*
X57439277Y-36927172D01*
X57402332Y-36890227D01*
X57398277Y-36886009D01*
X57367416Y-36852623D01*
X57367414Y-36852622D01*
X57359855Y-36844444D01*
X57353249Y-36840607D01*
X57348104Y-36835999D01*
X56663857Y-36151752D01*
X56625293Y-36084957D01*
X56625293Y-36007829D01*
X56663857Y-35941034D01*
X56730652Y-35902470D01*
X56747259Y-35899020D01*
X56945989Y-35869412D01*
X56945992Y-35869411D01*
X56951518Y-35868588D01*
X57086930Y-35827045D01*
X57176270Y-35799637D01*
X57176277Y-35799634D01*
X57181604Y-35798000D01*
X57398580Y-35693869D01*
X57435352Y-35668861D01*
X57508181Y-35643472D01*
X57583948Y-35657899D01*
G37*
%TD.AperFunction*%
%TA.AperFunction,Conductor*%
G36*
X25885266Y-35659616D02*
G01*
X25938669Y-35703078D01*
X26007379Y-35792622D01*
X26020184Y-35802448D01*
X26112862Y-35873562D01*
X26122375Y-35880862D01*
X26256291Y-35936331D01*
X26400000Y-35955251D01*
X26543709Y-35936331D01*
X26677625Y-35880862D01*
X26709296Y-35856560D01*
X26780550Y-35827045D01*
X26857018Y-35837111D01*
X26890701Y-35856557D01*
X26922375Y-35880862D01*
X27056291Y-35936331D01*
X27200000Y-35955251D01*
X27343709Y-35936331D01*
X27477625Y-35880862D01*
X27509296Y-35856560D01*
X27580550Y-35827045D01*
X27657018Y-35837111D01*
X27690701Y-35856557D01*
X27722375Y-35880862D01*
X27856291Y-35936331D01*
X28000000Y-35955251D01*
X28143709Y-35936331D01*
X28277625Y-35880862D01*
X28287139Y-35873562D01*
X28379816Y-35802448D01*
X28392621Y-35792622D01*
X28461331Y-35703078D01*
X28522521Y-35656126D01*
X28598989Y-35646059D01*
X28663331Y-35670576D01*
X28697579Y-35693868D01*
X28702611Y-35696283D01*
X28909526Y-35795587D01*
X28909532Y-35795589D01*
X28914555Y-35798000D01*
X29144641Y-35868588D01*
X29150167Y-35869411D01*
X29150170Y-35869412D01*
X29377157Y-35903230D01*
X29377161Y-35903230D01*
X29382683Y-35904053D01*
X29622052Y-35903602D01*
X29623363Y-35903731D01*
X29636000Y-35900487D01*
X29636649Y-35900437D01*
X29648051Y-35900000D01*
X33186338Y-35900000D01*
X33194956Y-35900249D01*
X33227933Y-35902160D01*
X33227936Y-35902160D01*
X33238436Y-35902768D01*
X33244581Y-35901367D01*
X33248019Y-35900221D01*
X33248030Y-35900218D01*
X33265251Y-35894478D01*
X33285082Y-35889352D01*
X33296347Y-35887254D01*
X33296348Y-35887254D01*
X33309871Y-35884735D01*
X33321582Y-35877516D01*
X33334417Y-35872563D01*
X33334480Y-35872725D01*
X33344373Y-35868103D01*
X33437351Y-35837111D01*
X33525746Y-35807647D01*
X33572862Y-35800001D01*
X33821454Y-35800001D01*
X33895954Y-35819963D01*
X33950492Y-35874501D01*
X33970454Y-35949001D01*
X33950492Y-36023501D01*
X33895954Y-36078039D01*
X33869474Y-36090051D01*
X33837009Y-36101103D01*
X33684047Y-36195206D01*
X33678098Y-36201032D01*
X33678095Y-36201034D01*
X33561684Y-36315032D01*
X33555734Y-36320859D01*
X33551223Y-36327858D01*
X33551221Y-36327861D01*
X33528841Y-36362588D01*
X33458448Y-36471817D01*
X33455598Y-36479646D01*
X33455598Y-36479647D01*
X33451905Y-36489795D01*
X33397024Y-36640578D01*
X33395980Y-36648842D01*
X33380475Y-36771583D01*
X33379502Y-36779283D01*
X33379502Y-37975155D01*
X33394456Y-38108472D01*
X33423244Y-38191141D01*
X33447470Y-38260707D01*
X33453517Y-38278073D01*
X33457931Y-38285137D01*
X33457932Y-38285139D01*
X33523144Y-38389499D01*
X33548686Y-38430375D01*
X33554554Y-38436284D01*
X33628883Y-38511133D01*
X33675232Y-38557807D01*
X33675809Y-38558173D01*
X33719417Y-38617754D01*
X33729501Y-38671638D01*
X33729502Y-40518198D01*
X33709540Y-40592698D01*
X33682584Y-40623712D01*
X33684047Y-40625206D01*
X33648617Y-40659902D01*
X33555734Y-40750859D01*
X33551223Y-40757858D01*
X33551221Y-40757861D01*
X33539187Y-40776535D01*
X33458448Y-40901817D01*
X33455598Y-40909646D01*
X33455598Y-40909647D01*
X33411255Y-41031480D01*
X33397024Y-41070578D01*
X33395980Y-41078842D01*
X33383517Y-41177504D01*
X33379502Y-41209283D01*
X33379502Y-41905155D01*
X33394456Y-42038472D01*
X33407515Y-42075973D01*
X33416395Y-42101472D01*
X33422044Y-42178393D01*
X33388475Y-42247833D01*
X33324684Y-42291185D01*
X33275683Y-42299473D01*
X29642120Y-42299473D01*
X29631473Y-42299092D01*
X29627227Y-42298788D01*
X29614598Y-42295619D01*
X29613290Y-42295754D01*
X29598710Y-42295804D01*
X29598709Y-42295804D01*
X29466903Y-42296261D01*
X29374318Y-42296581D01*
X29252265Y-42315401D01*
X29142357Y-42332348D01*
X29142353Y-42332349D01*
X29136853Y-42333197D01*
X29131541Y-42334855D01*
X29131536Y-42334856D01*
X28912813Y-42403119D01*
X28912805Y-42403122D01*
X28907493Y-42404780D01*
X28691355Y-42509733D01*
X28672940Y-42522374D01*
X28663636Y-42528761D01*
X28590918Y-42554466D01*
X28515089Y-42540368D01*
X28461103Y-42496628D01*
X28392620Y-42407379D01*
X28295945Y-42333197D01*
X28285372Y-42325084D01*
X28285369Y-42325082D01*
X28277624Y-42319139D01*
X28143708Y-42263670D01*
X27999999Y-42244750D01*
X27856290Y-42263670D01*
X27722374Y-42319139D01*
X27690703Y-42343441D01*
X27619449Y-42372956D01*
X27542981Y-42362890D01*
X27509298Y-42343444D01*
X27477624Y-42319139D01*
X27343708Y-42263670D01*
X27199999Y-42244750D01*
X27056290Y-42263670D01*
X26922374Y-42319139D01*
X26890703Y-42343441D01*
X26819449Y-42372956D01*
X26742981Y-42362890D01*
X26709298Y-42343444D01*
X26677624Y-42319139D01*
X26543708Y-42263670D01*
X26399999Y-42244750D01*
X26256290Y-42263670D01*
X26122374Y-42319139D01*
X26114629Y-42325082D01*
X26114626Y-42325084D01*
X26104053Y-42333197D01*
X26007378Y-42407379D01*
X26001433Y-42415127D01*
X26001432Y-42415128D01*
X25938668Y-42496923D01*
X25877478Y-42543875D01*
X25801010Y-42553942D01*
X25736668Y-42529425D01*
X25707712Y-42509733D01*
X25702413Y-42506129D01*
X25683229Y-42496922D01*
X25490466Y-42404412D01*
X25485436Y-42401998D01*
X25255351Y-42331411D01*
X25249829Y-42330588D01*
X25249823Y-42330587D01*
X25136329Y-42313679D01*
X25017308Y-42295947D01*
X24902984Y-42296163D01*
X24810069Y-42296338D01*
X24810068Y-42296338D01*
X24805509Y-42296347D01*
X24799997Y-42295375D01*
X24794366Y-42296368D01*
X24777949Y-42296399D01*
X24776628Y-42296269D01*
X24772108Y-42297429D01*
X24762832Y-42297988D01*
X24664723Y-42292669D01*
X24462078Y-42281681D01*
X24446055Y-42279939D01*
X24239184Y-42246024D01*
X24120065Y-42226495D01*
X24104309Y-42223027D01*
X23786020Y-42134654D01*
X23770731Y-42129503D01*
X23463849Y-42007230D01*
X23449208Y-42000455D01*
X23157360Y-41845728D01*
X23143535Y-41837410D01*
X23118364Y-41820343D01*
X22908147Y-41677812D01*
X22870125Y-41652032D01*
X22857282Y-41642269D01*
X22631649Y-41450615D01*
X22605520Y-41428421D01*
X22593807Y-41417327D01*
X22585630Y-41408694D01*
X22475487Y-41292417D01*
X22366632Y-41177500D01*
X22356188Y-41165204D01*
X22156283Y-40902233D01*
X22147229Y-40888880D01*
X22009457Y-40659902D01*
X21976921Y-40605826D01*
X21969364Y-40591571D01*
X21830662Y-40291771D01*
X21824691Y-40276784D01*
X21732122Y-40002048D01*
X21719215Y-39963741D01*
X21714900Y-39948200D01*
X21713074Y-39939905D01*
X21643889Y-39625591D01*
X21641279Y-39609679D01*
X21639491Y-39593232D01*
X21605563Y-39281271D01*
X21604690Y-39265161D01*
X21604690Y-39100000D01*
X22594778Y-39100000D01*
X22595097Y-39104867D01*
X22613061Y-39378939D01*
X22613644Y-39387839D01*
X22614595Y-39392618D01*
X22614595Y-39392621D01*
X22667719Y-39659691D01*
X22669919Y-39670753D01*
X22762641Y-39943902D01*
X22890222Y-40202611D01*
X23050480Y-40442454D01*
X23240673Y-40659327D01*
X23457546Y-40849520D01*
X23697389Y-41009778D01*
X23956098Y-41137359D01*
X24229247Y-41230081D01*
X24234020Y-41231030D01*
X24234026Y-41231032D01*
X24507379Y-41285405D01*
X24507382Y-41285405D01*
X24512161Y-41286356D01*
X24517022Y-41286675D01*
X24517025Y-41286675D01*
X24795133Y-41304903D01*
X24800000Y-41305222D01*
X24804867Y-41304903D01*
X25082975Y-41286675D01*
X25082978Y-41286675D01*
X25087839Y-41286356D01*
X25092618Y-41285405D01*
X25092621Y-41285405D01*
X25365974Y-41231032D01*
X25365980Y-41231030D01*
X25370753Y-41230081D01*
X25643902Y-41137359D01*
X25902611Y-41009778D01*
X26142454Y-40849520D01*
X26359327Y-40659327D01*
X26549520Y-40442454D01*
X26709778Y-40202611D01*
X26837359Y-39943902D01*
X26930081Y-39670753D01*
X26932282Y-39659691D01*
X26985405Y-39392621D01*
X26985405Y-39392618D01*
X26986356Y-39387839D01*
X26986940Y-39378939D01*
X27004903Y-39104867D01*
X27005222Y-39100000D01*
X26992113Y-38899999D01*
X26986675Y-38817025D01*
X26986675Y-38817022D01*
X26986356Y-38812161D01*
X26981602Y-38788261D01*
X26931032Y-38534026D01*
X26931030Y-38534020D01*
X26930081Y-38529247D01*
X26837359Y-38256098D01*
X26709778Y-37997389D01*
X26549520Y-37757546D01*
X26359327Y-37540673D01*
X26142454Y-37350480D01*
X25902611Y-37190222D01*
X25643902Y-37062641D01*
X25370753Y-36969919D01*
X25365980Y-36968970D01*
X25365974Y-36968968D01*
X25092621Y-36914595D01*
X25092618Y-36914595D01*
X25087839Y-36913644D01*
X25082978Y-36913325D01*
X25082975Y-36913325D01*
X24804867Y-36895097D01*
X24800000Y-36894778D01*
X24795133Y-36895097D01*
X24517025Y-36913325D01*
X24517022Y-36913325D01*
X24512161Y-36913644D01*
X24507382Y-36914595D01*
X24507379Y-36914595D01*
X24234026Y-36968968D01*
X24234020Y-36968970D01*
X24229247Y-36969919D01*
X23956098Y-37062641D01*
X23697389Y-37190222D01*
X23457546Y-37350480D01*
X23240673Y-37540673D01*
X23050480Y-37757546D01*
X22890222Y-37997389D01*
X22762641Y-38256098D01*
X22669919Y-38529247D01*
X22668970Y-38534020D01*
X22668968Y-38534026D01*
X22618398Y-38788261D01*
X22613644Y-38812161D01*
X22613325Y-38817022D01*
X22613325Y-38817025D01*
X22607887Y-38899999D01*
X22594778Y-39100000D01*
X21604690Y-39100000D01*
X21604690Y-38934838D01*
X21605563Y-38918728D01*
X21608403Y-38892610D01*
X21641280Y-38590314D01*
X21643890Y-38574399D01*
X21645468Y-38567233D01*
X21714902Y-38251794D01*
X21719217Y-38236253D01*
X21725322Y-38218134D01*
X21824693Y-37923212D01*
X21830662Y-37908230D01*
X21969369Y-37608423D01*
X21976925Y-37594169D01*
X22147231Y-37311119D01*
X22156285Y-37297766D01*
X22356194Y-37034790D01*
X22366639Y-37022494D01*
X22593802Y-36782682D01*
X22605514Y-36771587D01*
X22736004Y-36660747D01*
X22857289Y-36557727D01*
X22870121Y-36547971D01*
X23001945Y-36458593D01*
X23143545Y-36362586D01*
X23157369Y-36354269D01*
X23449218Y-36199541D01*
X23463860Y-36192767D01*
X23751807Y-36078038D01*
X23770729Y-36070499D01*
X23786018Y-36065347D01*
X23844895Y-36049000D01*
X24104314Y-35976973D01*
X24120062Y-35973507D01*
X24446059Y-35920062D01*
X24462082Y-35918320D01*
X24762838Y-35902013D01*
X24772129Y-35902574D01*
X24776637Y-35903731D01*
X24777948Y-35903602D01*
X24794364Y-35903633D01*
X24800001Y-35904627D01*
X24805520Y-35903654D01*
X24810098Y-35903663D01*
X24810099Y-35903663D01*
X24898128Y-35903828D01*
X25017317Y-35904053D01*
X25022839Y-35903230D01*
X25022843Y-35903230D01*
X25249830Y-35869412D01*
X25249833Y-35869411D01*
X25255359Y-35868588D01*
X25485445Y-35798000D01*
X25490468Y-35795589D01*
X25490474Y-35795587D01*
X25697389Y-35696283D01*
X25702421Y-35693868D01*
X25736669Y-35670576D01*
X25809500Y-35645188D01*
X25885266Y-35659616D01*
G37*
%TD.AperFunction*%
%TA.AperFunction,Conductor*%
G36*
X34854001Y-39221900D02*
G01*
X34903173Y-39267834D01*
X34959017Y-39350938D01*
X34965833Y-39361082D01*
X34972477Y-39367128D01*
X34972480Y-39367131D01*
X35009162Y-39400509D01*
X35050830Y-39465413D01*
X35056228Y-39488564D01*
X35064551Y-39543929D01*
X35067680Y-39550445D01*
X35068976Y-39557542D01*
X35074107Y-39567419D01*
X35074108Y-39567423D01*
X35095839Y-39609256D01*
X35097932Y-39613445D01*
X35118367Y-39656003D01*
X35118370Y-39656008D01*
X35123191Y-39666047D01*
X35128095Y-39671352D01*
X35131422Y-39677757D01*
X35135726Y-39682797D01*
X35172657Y-39719728D01*
X35176711Y-39723945D01*
X35215146Y-39765524D01*
X35221754Y-39769362D01*
X35226902Y-39773973D01*
X36746323Y-41293394D01*
X36757976Y-41306507D01*
X36763826Y-41313927D01*
X36778160Y-41332110D01*
X36787322Y-41338442D01*
X36787324Y-41338444D01*
X36826122Y-41365259D01*
X36829930Y-41367980D01*
X36848412Y-41381631D01*
X36876848Y-41402634D01*
X36883664Y-41405027D01*
X36889601Y-41409131D01*
X36900222Y-41412490D01*
X36945197Y-41426714D01*
X36949612Y-41428187D01*
X37004663Y-41447519D01*
X37011877Y-41447802D01*
X37018762Y-41449980D01*
X37025369Y-41450500D01*
X37077604Y-41450500D01*
X37083455Y-41450615D01*
X37128897Y-41452401D01*
X37128899Y-41452401D01*
X37140026Y-41452838D01*
X37147411Y-41450880D01*
X37154311Y-41450500D01*
X37465104Y-41450500D01*
X37964431Y-41450501D01*
X37981944Y-41451534D01*
X37992962Y-41452838D01*
X38014313Y-41455365D01*
X38071675Y-41444888D01*
X38076264Y-41444125D01*
X38093157Y-41441585D01*
X38133964Y-41435450D01*
X38140477Y-41432323D01*
X38147576Y-41431026D01*
X38187018Y-41410538D01*
X38199312Y-41404152D01*
X38203497Y-41402061D01*
X38246041Y-41381631D01*
X38256081Y-41376810D01*
X38261384Y-41371908D01*
X38267791Y-41368580D01*
X38272831Y-41364276D01*
X38309773Y-41327334D01*
X38313991Y-41323279D01*
X38328472Y-41309893D01*
X38355558Y-41284855D01*
X38359396Y-41278247D01*
X38364005Y-41273102D01*
X38465471Y-41171636D01*
X38775640Y-40861465D01*
X38842435Y-40822901D01*
X38880999Y-40817824D01*
X39509469Y-40817824D01*
X41916225Y-40817825D01*
X41990725Y-40837787D01*
X42045263Y-40892325D01*
X42065225Y-40966825D01*
X42056240Y-41017784D01*
X42037024Y-41070578D01*
X42035980Y-41078842D01*
X42023517Y-41177504D01*
X42019502Y-41209283D01*
X42019502Y-41905155D01*
X42034456Y-42038472D01*
X42047515Y-42075973D01*
X42056395Y-42101472D01*
X42062044Y-42178393D01*
X42028475Y-42247833D01*
X41964684Y-42291185D01*
X41915683Y-42299473D01*
X35084763Y-42299473D01*
X35010263Y-42279511D01*
X34955725Y-42224973D01*
X34935763Y-42150473D01*
X34944749Y-42099513D01*
X34960130Y-42057253D01*
X34960130Y-42057251D01*
X34962980Y-42049422D01*
X34965410Y-42030186D01*
X34979915Y-41915366D01*
X34979915Y-41915361D01*
X34980502Y-41910717D01*
X34980502Y-41214845D01*
X34965548Y-41081528D01*
X34906487Y-40911927D01*
X34894239Y-40892325D01*
X34815732Y-40766689D01*
X34811318Y-40759625D01*
X34704548Y-40652107D01*
X34690638Y-40638100D01*
X34684772Y-40632193D01*
X34684194Y-40631826D01*
X34640586Y-40572243D01*
X34630502Y-40518361D01*
X34630502Y-39939126D01*
X34630501Y-39350937D01*
X34650463Y-39276438D01*
X34705001Y-39221900D01*
X34779501Y-39201938D01*
X34854001Y-39221900D01*
G37*
%TD.AperFunction*%
%TD*%
M02*
