%TF.GenerationSoftware,KiCad,Pcbnew,5.99.0-unknown-43523df843~131~ubuntu21.10.1*%
%TF.CreationDate,2021-08-03T15:32:11+01:00*%
%TF.ProjectId,dboard_panelized,64626f61-7264-45f7-9061-6e656c697a65,rev?*%
%TF.SameCoordinates,Original*%
%TF.FileFunction,Soldermask,Top*%
%TF.FilePolarity,Negative*%
%FSLAX46Y46*%
G04 Gerber Fmt 4.6, Leading zero omitted, Abs format (unit mm)*
G04 Created by KiCad (PCBNEW 5.99.0-unknown-43523df843~131~ubuntu21.10.1) date 2021-08-03 15:32:11*
%MOMM*%
%LPD*%
G01*
G04 APERTURE LIST*
G04 Aperture macros list*
%AMRoundRect*
0 Rectangle with rounded corners*
0 $1 Rounding radius*
0 $2 $3 $4 $5 $6 $7 $8 $9 X,Y pos of 4 corners*
0 Add a 4 corners polygon primitive as box body*
4,1,4,$2,$3,$4,$5,$6,$7,$8,$9,$2,$3,0*
0 Add four circle primitives for the rounded corners*
1,1,$1+$1,$2,$3*
1,1,$1+$1,$4,$5*
1,1,$1+$1,$6,$7*
1,1,$1+$1,$8,$9*
0 Add four rect primitives between the rounded corners*
20,1,$1+$1,$2,$3,$4,$5,0*
20,1,$1+$1,$4,$5,$6,$7,0*
20,1,$1+$1,$6,$7,$8,$9,0*
20,1,$1+$1,$8,$9,$2,$3,0*%
G04 Aperture macros list end*
%ADD10RoundRect,0.200000X0.275000X-0.200000X0.275000X0.200000X-0.275000X0.200000X-0.275000X-0.200000X0*%
%ADD11C,3.800000*%
%ADD12RoundRect,0.250000X0.250000X0.475000X-0.250000X0.475000X-0.250000X-0.475000X0.250000X-0.475000X0*%
%ADD13C,2.152000*%
%ADD14RoundRect,0.250000X0.375000X0.625000X-0.375000X0.625000X-0.375000X-0.625000X0.375000X-0.625000X0*%
%ADD15R,0.650000X1.060000*%
%ADD16R,1.200000X1.800000*%
%ADD17R,0.600000X1.550000*%
%ADD18RoundRect,0.250000X0.625000X-0.312500X0.625000X0.312500X-0.625000X0.312500X-0.625000X-0.312500X0*%
%ADD19RoundRect,0.250000X-0.625000X0.312500X-0.625000X-0.312500X0.625000X-0.312500X0.625000X0.312500X0*%
%ADD20RoundRect,0.200000X-0.275000X0.200000X-0.275000X-0.200000X0.275000X-0.200000X0.275000X0.200000X0*%
%ADD21RoundRect,0.250000X-0.250000X-0.475000X0.250000X-0.475000X0.250000X0.475000X-0.250000X0.475000X0*%
%ADD22C,0.500000*%
%ADD23C,0.650000*%
%ADD24R,0.600000X1.450000*%
%ADD25R,0.300000X1.450000*%
%ADD26O,1.000000X1.600000*%
%ADD27O,1.000000X2.100000*%
%ADD28RoundRect,0.250000X-0.375000X-0.625000X0.375000X-0.625000X0.375000X0.625000X-0.375000X0.625000X0*%
G04 APERTURE END LIST*
D10*
%TO.C,R1*%
X54000000Y-32025000D03*
X54000000Y-30375000D03*
%TD*%
D11*
%TO.C,H2*%
X61300000Y-29500000D03*
%TD*%
D12*
%TO.C,C1*%
X57450000Y-27200000D03*
X55550000Y-27200000D03*
%TD*%
D13*
%TO.C,REF\u002A\u002A*%
X22800000Y-21900000D03*
%TD*%
D11*
%TO.C,H2*%
X24800000Y-39100000D03*
%TD*%
D14*
%TO.C,F1*%
X49000001Y-41349999D03*
X46200001Y-41349999D03*
%TD*%
D15*
%TO.C,U1*%
X46650002Y-39300000D03*
X47600002Y-39300000D03*
X48550002Y-39300000D03*
X48550002Y-37100000D03*
X47600002Y-37100000D03*
X46650002Y-37100000D03*
%TD*%
%TO.C,U1*%
X39450000Y-29300000D03*
X38500000Y-29300000D03*
X37550000Y-29300000D03*
X37550000Y-31500000D03*
X38500000Y-31500000D03*
X39450000Y-31500000D03*
%TD*%
D16*
%TO.C,J1*%
X28600000Y-31850000D03*
X34200000Y-31850000D03*
D17*
X29900000Y-27975000D03*
X30900000Y-27975000D03*
X31900000Y-27975000D03*
X32900000Y-27975000D03*
%TD*%
D18*
%TO.C,R3*%
X29500001Y-39412500D03*
X29500001Y-36487500D03*
%TD*%
D16*
%TO.C,J1*%
X57500000Y-36749999D03*
X51900000Y-36749999D03*
D17*
X56200000Y-40624999D03*
X55200000Y-40624999D03*
X54200000Y-40624999D03*
X53200000Y-40624999D03*
%TD*%
D19*
%TO.C,R3*%
X56600000Y-29187500D03*
X56600000Y-32112500D03*
%TD*%
D20*
%TO.C,R1*%
X32100000Y-36575001D03*
X32100000Y-38225001D03*
%TD*%
D21*
%TO.C,C1*%
X28650002Y-41400001D03*
X30550002Y-41400001D03*
%TD*%
D10*
%TO.C,R2*%
X41200000Y-32025000D03*
X41200000Y-30375000D03*
%TD*%
D11*
%TO.C,H1*%
X24800000Y-29500000D03*
%TD*%
D13*
%TO.C,REF\u002A\u002A*%
X63300000Y-46700000D03*
%TD*%
D22*
%TO.C,mouse-bite-2.54mm-slot*%
X59699999Y-23600001D03*
X58899999Y-25800001D03*
X59699999Y-25800001D03*
X58899999Y-23600001D03*
X58099999Y-23600001D03*
X58099999Y-25800001D03*
%TD*%
%TO.C,mouse-bite-2.54mm-slot*%
X59699999Y-33200001D03*
X58899999Y-35400001D03*
X58099999Y-33200001D03*
X59699999Y-35400001D03*
X58099999Y-35400001D03*
X58899999Y-33200001D03*
%TD*%
D20*
%TO.C,R2*%
X44900000Y-36575001D03*
X44900000Y-38225001D03*
%TD*%
D22*
%TO.C,mouse-bite-2.54mm-slot*%
X26399999Y-42800000D03*
X26399999Y-45000000D03*
X27999999Y-45000000D03*
X27999999Y-42800000D03*
X27199999Y-45000000D03*
X27199999Y-42800000D03*
%TD*%
D23*
%TO.C,J2*%
X44710000Y-30690000D03*
X50490000Y-30690000D03*
D24*
X50850000Y-32135000D03*
X50050000Y-32135000D03*
D25*
X48850000Y-32135000D03*
X47850000Y-32135000D03*
X47350000Y-32135000D03*
X46350000Y-32135000D03*
D24*
X45150000Y-32135000D03*
X44350000Y-32135000D03*
X44350000Y-32135000D03*
X45150000Y-32135000D03*
D25*
X45850000Y-32135000D03*
X46850000Y-32135000D03*
X48350000Y-32135000D03*
X49350000Y-32135000D03*
D24*
X50050000Y-32135000D03*
X50850000Y-32135000D03*
D26*
X43280000Y-27040000D03*
D27*
X43280000Y-31220000D03*
D26*
X51920000Y-27040000D03*
D27*
X51920000Y-31220000D03*
%TD*%
D28*
%TO.C,F1*%
X37100000Y-27250000D03*
X39900000Y-27250000D03*
%TD*%
D11*
%TO.C,H1*%
X61300001Y-39100000D03*
%TD*%
D23*
%TO.C,J2*%
X41390002Y-37910000D03*
X35610002Y-37910000D03*
D24*
X35250002Y-36465000D03*
X36050002Y-36465000D03*
D25*
X37250002Y-36465000D03*
X38250002Y-36465000D03*
X38750002Y-36465000D03*
X39750002Y-36465000D03*
D24*
X40950002Y-36465000D03*
X41750002Y-36465000D03*
X41750002Y-36465000D03*
X40950002Y-36465000D03*
D25*
X40250002Y-36465000D03*
X39250002Y-36465000D03*
X37750002Y-36465000D03*
X36750002Y-36465000D03*
D24*
X36050002Y-36465000D03*
X35250002Y-36465000D03*
D27*
X34180002Y-37380000D03*
D26*
X34180002Y-41560000D03*
X42820002Y-41560000D03*
D27*
X42820002Y-37380000D03*
%TD*%
D22*
%TO.C,mouse-bite-2.54mm-slot*%
X58099999Y-44999999D03*
X58099999Y-42799999D03*
X59699999Y-42799999D03*
X59699999Y-44999999D03*
X58899999Y-42799999D03*
X58899999Y-44999999D03*
%TD*%
%TO.C,mouse-bite-2.54mm-slot*%
X27200000Y-33200001D03*
X26400000Y-35400001D03*
X28000000Y-33200001D03*
X26400000Y-33200001D03*
X27200000Y-35400001D03*
X28000000Y-35400001D03*
%TD*%
%TO.C,mouse-bite-2.54mm-slot*%
X26400000Y-25800001D03*
X28000000Y-23600001D03*
X28000000Y-25800001D03*
X27200000Y-25800001D03*
X27200000Y-23600001D03*
X26400000Y-23600001D03*
%TD*%
M02*
