M48
; DRILL file {KiCad 5.99.0-unknown-43523df843~131~ubuntu21.10.1} date Tue Aug  3 15:32:13 2021
; FORMAT={-:-/ absolute / inch / decimal}
; #@! TF.CreationDate,2021-08-03T15:32:13+01:00
; #@! TF.GenerationSoftware,Kicad,Pcbnew,5.99.0-unknown-43523df843~131~ubuntu21.10.1
; #@! TF.FileFunction,MixedPlating,1,2
FMAT,2
INCH
; #@! TA.AperFunction,Plated,PTH,ViaDrill
T1C0.0157
; #@! TA.AperFunction,Plated,PTH,ComponentDrill
T2C0.0236
; #@! TA.AperFunction,Plated,PTH,ComponentDrill
T3C0.0866
; #@! TA.AperFunction,NonPlated,NPTH,ComponentDrill
T4C0.0197
; #@! TA.AperFunction,NonPlated,NPTH,ComponentDrill
T5C0.0256
; #@! TA.AperFunction,NonPlated,NPTH,ComponentDrill
T6C0.0454
%
G90
G05
T1
X1.0906Y-1.0709
X1.0906Y-1.437
X1.1378Y-1.1004
X1.2087Y-1.2362
X1.2165Y-1.1614
X1.252Y-1.6299
X1.2559Y-1.1614
X1.3543Y-1.124
X1.3976Y-1.5315
X1.4016Y-1.6142
X1.4213Y-1.2598
X1.4712Y-1.544
X1.4712Y-1.5834
X1.5256Y-1.5039
X1.5984Y-1.5098
X1.6063Y-1.6188
X1.624Y-1.0728
X1.7657Y-1.628
X1.7835Y-1.082
X1.7913Y-1.1909
X1.8642Y-1.1969
X1.9186Y-1.1174
X1.9186Y-1.1568
X1.9685Y-1.4409
X1.9882Y-1.0866
X1.9921Y-1.1693
X2.0354Y-1.5768
X2.1339Y-1.5394
X2.1378Y-1.0709
X2.1732Y-1.5394
X2.1811Y-1.4646
X2.252Y-1.6004
X2.2992Y-1.2638
X2.2992Y-1.6299
T3
X0.9764Y-1.1614
X0.9764Y-1.5394
X2.4134Y-1.1614
X2.4134Y-1.5394
T4
X1.0394Y-1.685
X1.0394Y-1.7717
X1.0394Y-0.9291
X1.0394Y-1.0157
X1.0394Y-1.3071
X1.0394Y-1.3937
X1.0709Y-1.685
X1.0709Y-1.7717
X1.0709Y-0.9291
X1.0709Y-1.0157
X1.0709Y-1.3071
X1.0709Y-1.3937
X1.1024Y-1.685
X1.1024Y-1.7717
X1.1024Y-0.9291
X1.1024Y-1.0157
X1.1024Y-1.3071
X1.1024Y-1.3937
X2.2874Y-0.9291
X2.2874Y-1.0157
X2.2874Y-1.3071
X2.2874Y-1.3937
X2.2874Y-1.685
X2.2874Y-1.7717
X2.3189Y-0.9291
X2.3189Y-1.0157
X2.3189Y-1.3071
X2.3189Y-1.3937
X2.3189Y-1.685
X2.3189Y-1.7717
X2.3504Y-0.9291
X2.3504Y-1.0157
X2.3504Y-1.3071
X2.3504Y-1.3937
X2.3504Y-1.685
X2.3504Y-1.7717
T5
X1.402Y-1.4925
X1.6295Y-1.4925
X1.7602Y-1.2083
X1.9878Y-1.2083
T6
X0.8976Y-0.8622
X2.4921Y-1.8386
T2
G00X1.3457Y-1.45
M15
G01X1.3457Y-1.4933
M16
G05
G00X1.3457Y-1.6244
M15
G01X1.3457Y-1.648
M16
G05
G00X1.6858Y-1.45
M15
G01X1.6858Y-1.4933
M16
G05
G00X1.6858Y-1.6244
M15
G01X1.6858Y-1.648
M16
G05
G00X1.7039Y-1.0764
M15
G01X1.7039Y-1.0528
M16
G05
G00X1.7039Y-1.2508
M15
G01X1.7039Y-1.2075
M16
G05
G00X2.0441Y-1.0764
M15
G01X2.0441Y-1.0528
M16
G05
G00X2.0441Y-1.2508
M15
G01X2.0441Y-1.2075
M16
G05
T0
M30
